<svg width="41" height="26" viewBox="0 0 41 26" fill="none"
    xmlns="http://www.w3.org/2000/svg">
    <mask id="mask0_70_720" style="mask-type:alpha" maskUnits="userSpaceOnUse" x="0" y="0" width="41" height="26">
        <rect y="0.293579" width="40.6605" height="25.4128" rx="3.38838" fill="white"/>
    </mask>
    <g mask="url(#mask0_70_720)">
        <path d="M45.9998 0.293579H0V25.7064H45.9998V0.293579Z" fill="#B22234"/>
        <path d="M0 3.22559H45.9998H0ZM45.9998 7.13634H0H45.9998ZM0 11.0447H45.9998H0ZM45.9998 14.9555H0H45.9998ZM0 18.8639H45.9998H0ZM45.9998 22.7747H0H45.9998Z" fill="black"/>
        <path d="M45.9998 23.7511H0V21.7957H45.9998V23.7511ZM45.9998 19.8427H0V17.8873H45.9998V19.8427ZM45.9998 15.932H0V13.9766H45.9998V15.932ZM45.9998 12.0236H0V10.0682H45.9998V12.0236ZM45.9998 8.1128H0V6.15743H45.9998V8.1128ZM45.9998 4.2044H0V2.24902H45.9998V4.2044Z" fill="white"/>
        <path d="M19.6649 0.293579H0V13.9765H19.6649V0.293579Z" fill="#3C3B6E"/>
        <path d="M1.64154 0.879517L2.11112 2.29369L0.879669 1.42072H2.39143L1.16956 2.29605L1.64154 0.879517Z" fill="white"/>
        <path d="M1.64088 3.61597L2.11047 5.03014L0.881409 4.15481H2.39317L1.16651 5.03014L1.64088 3.61597Z" fill="white"/>
        <path d="M1.64136 6.35254L2.11094 7.76672L0.884277 6.89139H2.39604L1.16938 7.76672L1.64136 6.35254Z" fill="white"/>
        <path d="M1.64136 9.08936L2.11094 10.5059L0.884277 9.63056H2.39604L1.16938 10.5059L1.64136 9.08936Z" fill="white"/>
        <path d="M1.64136 11.828L2.11094 13.2422L0.884277 12.3669H2.39604L1.16938 13.2422L1.64136 11.828Z" fill="white"/>
        <path d="M3.27504 2.24902L3.74462 3.6632L2.52036 2.78787H4.03212L2.81025 3.6632L3.27504 2.24902Z" fill="white"/>
        <path d="M3.2757 4.9856L3.74528 6.39977L2.51862 5.52444H4.03038L2.80372 6.39977L3.2757 4.9856Z" fill="white"/>
        <path d="M3.2757 7.72229L3.74528 9.13647L2.51862 8.26114H4.03038L2.80372 9.13647L3.2757 7.72229Z" fill="white"/>
        <path d="M3.2757 10.4587L3.74528 11.8729L2.51862 10.9976H4.03038L2.80372 11.8729L3.2757 10.4587Z" fill="white"/>
        <path d="M4.91644 0.879517L5.38602 2.29369L4.15936 1.41836H5.67113L4.44447 2.29369L4.91644 0.879517Z" fill="white"/>
        <path d="M4.91644 3.61597L5.38602 5.03014L4.15936 4.15481H5.67113L4.44447 5.03014L4.91644 3.61597Z" fill="white"/>
        <path d="M4.91644 6.35254L5.38602 7.76672L4.15936 6.89139H5.67113L4.44447 7.76672L4.91644 6.35254Z" fill="white"/>
        <path d="M4.91644 9.08936L5.38602 10.5035L4.15936 9.6282H5.67113L4.44686 10.5059L4.91644 9.08936Z" fill="white"/>
        <path d="M4.91644 11.828L5.38602 13.2422L4.15936 12.3669H5.67113L4.44447 13.2422L4.91644 11.828Z" fill="white"/>
        <path d="M6.5571 2.24902L7.02668 3.6632L5.80002 2.78787H7.31179L6.08512 3.6632L6.5571 2.24902Z" fill="white"/>
        <path d="M6.5571 4.9856L7.02668 6.39977L5.80002 5.52444H7.31179L6.08512 6.39977L6.5571 4.9856Z" fill="white"/>
        <path d="M6.5571 7.72229L7.02668 9.13647L5.80002 8.26114H7.31179L6.08512 9.13647L6.5571 7.72229Z" fill="white"/>
        <path d="M6.5571 10.4587L7.02668 11.8729L5.80002 10.9976H7.31179L6.08512 11.8729L6.5571 10.4587Z" fill="white"/>
        <path d="M8.19153 0.879517L8.66111 2.29369L7.43445 1.41836H8.94621L7.71955 2.29369L8.19153 0.879517Z" fill="white"/>
        <path d="M8.19153 3.61597L8.66111 5.03014L7.43445 4.15481H8.94621L7.71955 5.03014L8.19153 3.61597Z" fill="white"/>
        <path d="M8.19153 6.35254L8.66111 7.76672L7.43445 6.89139H8.94621L7.71955 7.76672L8.19153 6.35254Z" fill="white"/>
        <path d="M8.19153 9.08936L8.66111 10.5035L7.43445 9.6282H8.94621L7.72195 10.5059L8.19153 9.08936Z" fill="white"/>
        <path d="M8.19153 11.828L8.66111 13.2422L7.43445 12.3669H8.94621L7.71955 13.2422L8.19153 11.828Z" fill="white"/>
        <path d="M9.83225 2.24902L10.3018 3.6632L9.07516 2.78787H10.5893L9.36266 3.6632L9.83225 2.24902Z" fill="white"/>
        <path d="M9.83225 4.9856L10.3018 6.39977L9.07516 5.52444H10.5893L9.36266 6.39977L9.83225 4.9856Z" fill="white"/>
        <path d="M9.83225 7.72229L10.3018 9.13647L9.07516 8.26114H10.5893L9.36266 9.13647L9.83225 7.72229Z" fill="white"/>
        <path d="M9.83225 10.4587L10.3018 11.8729L9.07516 10.9976H10.5893L9.36266 11.8729L9.83225 10.4587Z" fill="white"/>
        <path d="M11.4729 0.879517L11.9425 2.29369L10.7159 1.41836H12.2276L11.001 2.29369L11.4729 0.879517Z" fill="white"/>
        <path d="M11.4729 3.61597L11.9425 5.03014L10.7159 4.15481H12.2276L11.001 5.03014L11.4729 3.61597Z" fill="white"/>
        <path d="M11.4729 6.35254L11.9425 7.76672L10.7159 6.89139H12.2276L11.001 7.76672L11.4729 6.35254Z" fill="white"/>
        <path d="M11.4729 9.08936L11.9425 10.5035L10.7159 9.6282H12.2276L11.001 10.5059L11.4729 9.08936Z" fill="white"/>
        <path d="M11.4729 11.828L11.9425 13.2422L10.7159 12.3669H12.2276L11.001 13.2422L11.4729 11.828Z" fill="white"/>
        <path d="M13.1077 2.24902L13.5773 3.6632L12.353 2.78787H13.8648L12.6381 3.6632L13.1077 2.24902Z" fill="white"/>
        <path d="M13.1073 4.9856L13.5768 6.39977L12.3502 5.52444H13.862L12.6353 6.39977L13.1073 4.9856Z" fill="white"/>
        <path d="M13.1073 7.72229L13.5768 9.13647L12.3502 8.26114H13.862L12.6353 9.13647L13.1073 7.72229Z" fill="white"/>
        <path d="M13.1073 10.4587L13.5768 11.8729L12.3502 10.9976H13.862L12.6353 11.8729L13.1073 10.4587Z" fill="white"/>
        <path d="M14.7491 0.879517L15.2187 2.29369L13.992 1.42072H15.5038L14.2795 2.29605L14.7491 0.879517Z" fill="white"/>
        <path d="M14.7491 3.61597L15.2187 5.03015L13.992 4.15717H15.5038L14.2795 5.0325L14.7491 3.61597Z" fill="white"/>
        <path d="M14.7491 6.35254L15.2187 7.76672L13.992 6.89374H15.5038L14.2795 7.76907L14.7491 6.35254Z" fill="white"/>
        <path d="M14.7491 9.08936L15.2187 10.5035L13.992 9.63056H15.5038L14.2795 10.5059L14.7491 9.08936Z" fill="white"/>
        <path d="M14.7491 11.828L15.2187 13.2422L13.992 12.3669H15.5038L14.2795 13.2422L14.7491 11.828Z" fill="white"/>
        <path d="M16.3898 2.24902L16.8594 3.6632L15.6328 2.78787H17.1445L15.9179 3.6632L16.3898 2.24902Z" fill="white"/>
        <path d="M16.3898 4.9856L16.8594 6.39977L15.6328 5.52444H17.1445L15.9179 6.39977L16.3898 4.9856Z" fill="white"/>
        <path d="M16.3898 7.72229L16.8594 9.13647L15.6328 8.26114H17.1445L15.9179 9.13647L16.3898 7.72229Z" fill="white"/>
        <path d="M16.3898 10.4587L16.8594 11.8729L15.6328 10.9976H17.1445L15.9179 11.8729L16.3898 10.4587Z" fill="white"/>
        <path d="M18.0235 0.879517L18.4955 2.29605L17.2688 1.42072H18.7806L17.5539 2.29605L18.0235 0.879517Z" fill="white"/>
        <path d="M18.0242 3.61597L18.4937 5.03014L17.2671 4.15481H18.7789L17.5522 5.03014L18.0242 3.61597Z" fill="white"/>
        <path d="M18.0242 6.35254L18.4937 7.76672L17.2671 6.89139H18.7789L17.5522 7.76672L18.0242 6.35254Z" fill="white"/>
        <path d="M18.0235 9.08936L18.4955 10.5059L17.2688 9.63056H18.7806L17.5539 10.5059L18.0235 9.08936Z" fill="white"/>
        <path d="M18.0242 11.828L18.4937 13.2422L17.2671 12.3669H18.7789L17.5522 13.2422L18.0242 11.828Z" fill="white"/>
    </g>
</svg>
