<svg width="48" height="48" viewBox="0 0 48 48" fill="none"
    xmlns="http://www.w3.org/2000/svg">
    <rect width="48" height="48" rx="16" fill="#2CBBF3"/>
    <path d="M25.437 30.276C26.425 28.414 29.718 28.414 29.718 28.414C33.15 28.378 33.614 26.294 33.924 25.241C33.6506 27.4221 32.6665 29.4525 31.1238 31.0185C29.5812 32.5845 27.5658 33.5989 25.389 33.905C25.066 33.225 24.684 31.695 25.437 30.276Z" fill="white"/>
    <path d="M17.006 17.8341L16.594 17.4821C16.56 17.4529 16.5273 17.4222 16.496 17.3901C14.8844 19.2144 13.9965 21.5658 14 24.0001C14 29.4601 18.377 33.9001 23.814 33.9981C23.461 32.9431 23.23 31.2341 24.112 29.5731C24.922 28.0471 26.552 27.4461 27.59 27.1901C28.2662 27.0265 28.9576 26.9343 29.653 26.9151H29.706C31.087 26.8991 31.623 26.4921 31.87 26.2131C32.176 25.8691 32.296 25.4611 32.463 24.8921L32.485 24.8181C32.5799 24.4953 32.7807 24.2138 33.0549 24.0188C33.3291 23.8238 33.6609 23.7267 33.997 23.7431C33.9386 21.3439 33.0161 19.0464 31.399 17.2731C31.367 17.4501 31.329 17.6161 31.292 17.7621C31.122 18.4231 30.838 19.1371 30.488 19.6671C30.147 20.1871 29.539 20.6501 29.136 20.9401C28.831 21.1591 28.519 21.3401 28.263 21.4891L28.171 21.5421C27.939 21.6751 27.755 21.7821 27.579 21.8971C27.223 22.1321 27.009 22.3411 26.865 22.6241C26.953 22.9461 27.015 23.3171 27.017 23.7041C27.019 24.6261 26.547 25.3541 25.984 25.8081C25.4167 26.2618 24.7104 26.5061 23.984 26.5001C21.034 26.4681 19.304 24.0611 19.081 21.5821C19.016 20.8611 18.692 20.0841 18.239 19.3601C17.8927 18.8024 17.4785 18.2898 17.006 17.8341Z" fill="white"/>
    <path d="M20.5751 21.447C20.3881 19.363 18.7811 17.421 18.0001 16.711L17.5701 16.341C19.3697 14.8258 21.6475 13.9965 24.0001 14C26.2141 14 28.2601 14.72 29.9161 15.936C30.1501 16.647 29.7041 18.132 29.2361 18.842C29.0661 19.099 28.6821 19.419 28.2601 19.722C27.3101 20.405 26.1101 20.742 25.5001 22C25.3476 22.3167 25.318 22.6787 25.4171 23.016C25.4771 23.236 25.5171 23.475 25.5171 23.708C25.5191 24.463 24.7551 25.008 24.0001 25C22.0361 24.979 20.7501 23.396 20.5751 21.447Z" fill="white"/>
</svg>
