<svg width="375" height="812" viewBox="0 0 375 812" fill="none" xmlns="http://www.w3.org/2000/svg">
<path fill-rule="evenodd" clip-rule="evenodd" d="M329.7 724.138C329.152 725.609 328.961 725.938 327.305 726.11C327.378 725.709 327.564 725.337 327.841 725.038C329.575 722.882 329.547 724.134 329.709 724.133L329.7 724.138ZM318.515 714.765C316.856 718.471 316.185 720.729 317.035 723.702C317.515 725.241 318.152 726.727 318.936 728.135C319.734 727.435 320.646 726.877 321.633 726.486C322.922 726.019 321.797 726.31 322.926 726.605L319.419 729.011C320.799 731.401 322.62 734.415 325.084 738.303C325.329 738.728 325.584 739.169 325.824 739.585C327.836 739.07 326.527 739.422 327.494 739.637L326.282 740.337C334.327 753.833 339.658 770.466 340.491 773.148C342.052 774.11 343.705 774.916 345.425 775.554C345.55 775.6 345.666 775.67 345.764 775.76C345.863 775.85 345.943 775.959 346 776.08C346.056 776.202 346.088 776.333 346.094 776.466C346.1 776.6 346.08 776.733 346.034 776.859C345.988 776.985 345.918 777.1 345.828 777.199C345.738 777.298 345.629 777.378 345.507 777.434C345.386 777.491 345.255 777.523 345.121 777.529C344.988 777.535 344.854 777.514 344.729 777.468C335.659 774.16 329.025 766.27 323.518 759.75C322.206 758.198 320.99 756.752 319.843 755.486C318.894 754.441 317.85 753.173 316.73 751.753C316.665 751.703 316.604 751.65 316.545 751.593C316.176 751.114 315.793 750.631 315.405 750.139C309.762 743.004 302.582 733.928 297.858 737.406C297.486 737.621 297.15 737.919 296.784 738.165L296.697 738.215C294.579 739.646 292.205 740.936 289.855 742.165C285.777 744.381 281.851 746.521 279.903 749.066C279.872 749.092 279.837 749.113 279.799 749.126C279.651 749.35 279.503 749.574 279.369 749.802C280.039 750.101 280.683 750.455 281.296 750.86C279.555 751.184 279.438 751.263 278.895 750.861L278.792 751.243C278.534 752.316 278.269 753.277 278.031 754.165C277.001 757.901 276.391 760.124 278.68 764.009C278.793 763.501 279.065 763.042 279.457 762.699C279.849 762.356 280.341 762.148 280.86 762.104C280.524 763.193 280.032 764.228 279.4 765.176C279.595 765.514 279.8 765.869 280.005 766.224C280.785 767.575 281.698 769.057 282.784 770.577L284.447 768.798C284.76 770.36 284.686 771.211 283.213 771.161C286.642 775.74 292.007 780.391 301.98 781.665C307.712 782.336 313.342 783.704 318.743 785.739C320.525 783.867 320.476 785.201 320.82 785.337C320.571 785.669 320.295 785.98 319.993 786.265C321.988 787.069 323.916 788.029 325.761 789.135C327.907 787.641 330.175 786.332 332.542 785.22C333.755 784.601 334.936 783.988 336.071 783.333C339.881 781.133 344.404 785.266 349.461 789.886C353.7 793.766 358.35 798.021 362.792 798.736C362.924 798.757 363.051 798.803 363.165 798.873C363.278 798.943 363.377 799.034 363.456 799.143C363.534 799.251 363.591 799.373 363.622 799.503C363.653 799.633 363.658 799.767 363.637 799.899C363.616 800.031 363.57 800.158 363.5 800.271C363.43 800.385 363.339 800.484 363.231 800.563C363.123 800.641 363 800.697 362.87 800.729C362.74 800.76 362.606 800.765 362.474 800.744C358.666 800.148 355.007 797.492 351.53 794.488C351.177 795.561 350.521 796.509 349.642 797.218C349.237 796.297 349.004 796.374 349.867 795.009C350.092 794.565 350.423 794.183 350.831 793.898C349.895 793.076 348.979 792.231 348.074 791.403C343.599 787.312 339.599 783.663 337.087 785.113C335.996 785.743 334.731 786.393 333.458 787.047L332.869 787.387L336.458 790.303C334.522 790.451 332.297 788.537 331.757 787.96C328.295 789.785 325.063 791.767 324.177 794.392C327.498 794.345 331.666 796.084 333.342 798.026L323.996 795.339C323.936 795.89 323.972 796.447 324.104 796.986C324.823 800.231 325.572 803.008 326.251 805.064C326.87 806.936 327.395 808.145 327.813 808.389C328.414 808.603 329.036 808.755 329.668 808.842C330.378 808.561 331.137 808.424 331.901 808.439C332.665 808.454 333.418 808.621 334.117 808.929C333.693 809.093 333.21 809.257 332.704 809.421C337.52 810.311 342.22 811.743 346.714 813.688C346.706 812.873 347.106 812.526 347.974 811.69C348.017 813.144 347.964 813.232 347.368 813.98C347.714 814.139 348.051 814.302 348.392 814.474C351.588 816.148 355.059 817.234 358.638 817.681C361.313 818.083 364.046 817.647 366.462 816.432C367.813 815.652 369.181 813.361 370.184 811.338L370.284 811.131C371.154 809.358 371.721 807.841 371.725 807.828C371.823 807.575 372.017 807.372 372.264 807.262C372.512 807.153 372.793 807.147 373.045 807.244C373.298 807.342 373.501 807.536 373.61 807.784C373.72 808.031 373.726 808.312 373.629 808.565C373.629 808.565 373.37 809.257 372.92 810.278C375.174 809.462 379.145 806.939 382.259 799.113C383.169 796.809 383.981 794.655 384.742 792.553C388.07 783.518 390.86 775.949 400.501 764.229C408.477 754.543 407.316 747.592 405.814 738.771C404.994 734.507 404.517 730.183 404.388 725.842C404.198 711.633 406.605 705.521 408.242 701.377C408.499 700.721 408.735 700.111 408.926 699.562L408.97 699.537C409.538 697.742 408.189 694.445 406.268 691.397C404.347 688.35 401.851 685.587 400.199 685.006C399.222 684.857 398.223 685.029 397.352 685.495L396.958 688.032C395.756 692.19 395.708 701.547 395.727 705.901C395.743 708.848 396.658 725.513 396.029 726.823C394.246 722.575 393.423 692.59 397.069 685.565C396.016 686.047 394.998 686.604 394.024 687.231C390.595 689.405 387.473 692.03 384.744 695.037C384.13 695.773 384.863 697.982 385.951 701.268C387.747 706.057 388.969 711.041 389.593 716.116C390.971 715.563 391.154 715.539 392.103 716.723C390.749 717.158 390.411 717.192 389.646 716.687C389.878 719.591 389.848 722.511 389.555 725.411C389.754 725.515 390.048 725.565 390.266 725.001L391.329 727.262C390.466 727.067 391.401 729.068 389.973 726.394C389.763 726.03 389.618 725.779 389.523 725.614C388.914 731.043 387.5 736.351 385.325 741.363C386.856 743.054 388.301 744.818 389.501 746.377C390.003 743.385 391.07 739.594 391.709 738.82C392.178 740.374 391.726 743.129 391.199 744.738C390.898 745.616 390.681 746.619 390.397 747.568L390.674 747.928C392.536 750.433 390.057 753.919 386.707 758.636C381.728 765.633 374.587 775.645 377.792 787.755C377.863 788.02 377.827 788.302 377.69 788.54C377.554 788.778 377.328 788.952 377.064 789.024C376.799 789.096 376.516 789.059 376.278 788.923C376.04 788.786 375.866 788.561 375.795 788.296C372.378 775.258 379.809 764.79 385.014 757.466L386.047 756.015C385.514 755.499 385.092 754.88 384.806 754.195C384.52 753.511 384.376 752.775 384.384 752.033L386.761 754.991C388.639 752.244 389.766 750.196 389.005 749.157C387.249 746.772 385.367 744.482 383.369 742.296C382.775 741.646 382.159 741.02 381.555 740.433C380.385 739.264 379.089 738.227 377.691 737.341C377.552 737.299 377.424 737.227 377.316 737.131C376.666 736.736 375.926 736.515 375.167 736.489L374.524 738.096C374.103 738.986 373.93 739.328 373.594 740.065L371.384 748.396C371.006 749.942 370.42 750.927 370.061 752.485C369.047 756.869 367.573 764.175 364.745 768.337C364.536 765.975 365.062 766.387 365.822 764.343C368.043 758.35 370.626 741.224 374.797 736.529L374.617 736.576C373.984 736.78 373.379 736.932 372.721 737.093C368.563 738.131 362.524 739.631 363.129 749.559C363.775 760.237 359.991 766.024 358.71 767.664C359.119 768.844 359.599 769.997 360.149 771.117C360.266 771.356 360.282 771.632 360.196 771.883C360.109 772.135 359.926 772.341 359.687 772.458C359.448 772.574 359.173 772.591 358.922 772.505C358.67 772.418 358.464 772.235 358.347 771.996C352.088 759.155 354.988 742.758 357.026 731.709C357.334 729.961 357.627 728.349 357.851 726.937C355.855 725.48 352.01 721.499 351.847 720.739C354.115 720.827 356.516 723.724 357.974 726.15C358.358 723.515 358.474 721.636 358.029 720.865C357.584 720.094 357.126 719.181 356.593 718.138C354.136 713.263 350.562 706.192 344.865 707.645L344.49 707.735C344.569 708.013 344.701 708.48 344.943 709.24L347.954 735.215C345.726 731.536 344.809 713.267 343.547 707.922C341.091 708.319 338.616 708.592 336.132 708.739C333.594 708.922 330.949 709.121 328.495 709.511C328.519 709.993 328.313 710.216 328.115 710.653L327.688 709.653C323.509 710.415 319.976 711.796 318.664 714.863L318.515 714.765ZM292.528 749.213C292.973 750.585 293.726 749.469 291.975 751.137C291.245 749.873 291.659 750.05 292.528 749.213ZM322.797 715.941C322.877 716.98 322.828 716.235 322.57 717.088C320.058 713.458 320.864 712.854 321.589 711.569C321.947 712.69 322.257 713.747 322.526 714.793C322.64 715.17 322.73 715.553 322.797 715.941ZM322.569 719.906C323.843 720.614 323.822 719.657 323.612 721.614C322.898 721.356 323.438 721.991 322.759 721.055C321.959 719.97 322.557 720.606 322.584 719.932L322.569 719.906ZM333.9 749.853C333.782 750.868 334.712 749.499 333.499 751.158C332.843 752.022 332.934 751.6 332.442 751.907C332.332 750.816 332.493 749.996 333.96 749.876L333.9 749.853ZM323.16 769.01C322.769 766.833 324.018 764.496 325.879 762.821C326.132 764.118 326.12 763.617 325.657 764.716L323.18 769.044L323.16 769.01ZM303.833 770.595C304.177 772.891 301.978 776.482 301.343 778.961C300.887 780.772 301.43 779.893 300.465 781.442C299.807 778.301 302.174 772.281 303.837 770.582L303.833 770.595ZM289.975 762.973C292.277 762.36 293.276 762.349 294.789 763.531C293.413 764.268 294.075 764.093 292.306 763.81C291.453 763.791 290.63 763.491 289.965 762.956L289.975 762.973ZM340.067 746.754C341.525 750.439 343.831 754.154 345.373 758.044C348.227 765.287 350.102 772.115 352.594 779.371C353.848 783.023 356.728 788.392 356.603 790.416C352.459 783.917 350.077 775.512 347.88 768.467C346.784 764.989 345.501 761.307 344.129 757.769L340.093 748.159C339.864 747.022 339.986 747.575 340.127 746.778L340.067 746.754ZM362.774 778.504C364.894 780.895 369.443 789.954 370.942 793.211C372.986 797.631 375.178 803.328 372.367 806.14L371.253 807.35C371.021 806.329 370.858 806.885 371.459 806.007C377.007 799.616 362.372 784.048 362.774 778.504ZM394.946 734.227C394.552 732.445 394.277 730.848 395.477 729.647C396.225 731.802 396.284 732.265 394.946 734.227ZM303.413 738.368L297.02 746.354C296.743 744.274 300.939 738.583 303.413 738.368ZM334.025 784.549C333.768 783.601 333.862 782.593 334.29 781.71C334.717 780.826 335.45 780.127 336.353 779.741C336.068 781.538 335.258 783.211 334.025 784.549ZM311.222 780.174L310.315 782.603C309.102 780.902 309.37 780.966 311.222 780.174ZM337.41 809.372C337.605 808.89 336.436 808.445 339.426 808.104C339.426 808.104 340.371 809.521 337.41 809.372ZM355.88 816.502C355.852 815.075 355.379 814.655 357.994 812.464C357.992 813.782 358.442 814.18 355.88 816.502ZM377.176 804.969C377.578 802.925 378.185 800.927 378.986 799.005C380.316 795.928 382.949 784.928 383.54 781.272L386.481 769.066C387.304 765.67 388.335 760.756 390.509 757.503C390.172 759.623 389.655 761.711 388.962 763.743L386.027 775.599C385.382 780.001 382.654 789.578 381.555 793.734C380.565 797.539 379.646 801.626 377.156 804.934L377.176 804.969ZM396.506 768.729C395.14 768.363 394.044 767.506 395.177 765.847L396.506 768.729ZM354.631 733.681C352.381 733.202 353.608 732.089 353.631 731.948C355.172 732.837 354.582 733.074 354.631 733.681ZM399.695 742.673C401.504 742.345 401.028 742.343 402.597 743.7C400.64 744.31 401.42 744.38 399.695 742.673ZM396.521 754.436C395.928 754.028 396.31 756.071 395.558 753.307C395.125 751.778 395.578 752.902 395.779 752.151C396.485 752.633 395.909 750.656 396.639 753.179C397.245 755.289 396.707 752.978 396.506 754.41L396.521 754.436ZM398.617 751.125C398.087 750.207 398.043 750.832 397.927 749.491C397.851 748.38 397.832 749.326 398.361 748.502C399.712 749.603 399.11 750.159 398.617 751.125ZM366.364 746.421C365.849 744.409 366.11 743.242 367.671 742.145C367.841 744.021 367.747 745.057 366.364 746.421ZM402.695 759.128C402.132 758.802 401.657 758.346 401.308 757.798C400.959 757.25 400.748 756.625 400.691 755.978C401.21 756.117 401.185 755.173 402.419 757.232C403.219 758.617 402.818 758.503 402.695 759.128ZM404.251 710.945C402.164 711.769 402.917 711.853 401.449 710.091C402.52 709.946 402.153 709.87 403.005 710.105C404.14 710.432 403.334 710.135 404.26 710.94L404.251 710.945ZM392.266 708.465C390.477 709.186 391.227 709.065 389.564 708.385C389.64 708.271 389.723 708.161 389.813 708.057C389.951 707.867 390.139 707.719 390.355 707.628C390.572 707.538 390.809 707.509 391.041 707.544C392.487 707.748 391.267 707.356 392.266 708.465ZM404.888 703.048C404.682 703.491 406.548 703.522 403.633 704.073C403.78 703.469 401.679 702.569 404.888 703.048ZM403.042 695.731C401.417 695.376 400.125 694.678 400.443 692.289C401.367 693.13 402.999 694.716 403.042 695.731ZM387.906 698.835C386.876 699.21 387.174 698.946 386.143 698.56L389.234 697.433C389.203 697.52 390.158 698.054 387.906 698.835ZM372.97 778.045C371.338 776.297 369.042 774.54 368.99 771.81L372.726 776.281C373.481 777.588 373.069 777.076 372.996 778.03L372.97 778.045ZM376.136 764.127C374.743 762.795 375.737 762.176 375.838 762.071L378.022 764.274C376.974 764.66 377.277 765.224 376.171 764.188L376.136 764.127ZM375.444 744.77C374.167 743.717 374.594 743.517 374.555 742.87C375.836 743.408 376.955 744.27 377.801 745.372C376.67 745.413 376.627 745.738 375.444 744.77ZM371.598 756.967C373.135 756.669 373.671 757.017 374.956 758.123C372.34 758.352 372.636 758.746 371.598 756.967ZM362.038 771.47C362.025 769.746 362.178 769.611 363.697 768.203C363.687 769.906 363.758 770.708 362.038 771.47ZM353.063 746.283C351.63 746.222 350.074 745.827 350.486 743.36L353.063 746.283ZM346.981 742.45C348.331 743.369 347.834 742.767 347.782 744.217C347.327 744.029 347.626 744.827 346.91 743.566C346.045 742.068 346.658 743.63 346.971 742.433L346.981 742.45ZM312.342 761.872C313.953 762.443 313.686 762.32 313.486 763.995C312.929 763.67 313.389 764.766 312.512 762.987C312.512 762.987 312.362 762.068 312.342 761.872ZM305.824 753.984C306.243 754.407 306.542 754.933 306.69 755.509C306.838 756.085 306.83 756.691 306.666 757.262C305.037 756.321 305.45 755.355 305.824 753.984ZM306.518 766.286C306.982 768.05 307.26 767.97 305.441 767.9C305.184 767.056 305.733 766.866 306.518 766.286ZM350.027 763.486C351.363 763.8 352.64 765.072 354.219 766.366C351.999 766.701 351.208 765.91 350.027 763.486ZM362.965 789.895C363.571 790.204 363.246 789.802 363.751 790.515L363.71 791.185C361.229 790.308 362.98 789.921 362.965 789.895ZM365.924 798.879C367.19 798.472 366.853 798.169 368.131 799.822C366.488 799.997 367.105 800.265 365.924 798.879ZM318.781 776.445L321.157 773.641C321.245 774.356 321.094 775.08 320.73 775.701C319.27 778.033 318.878 776.493 318.781 776.445ZM338.436 793.11C339.258 793.519 339.975 794.11 340.532 794.84C341.09 795.569 341.472 796.416 341.65 797.317C340.241 796.595 338.503 795.046 338.436 793.11ZM350.719 806.804C350.719 805.383 350.965 805.01 352.355 804.877C352.084 806.108 353.491 804.325 351.788 806.255C350.878 807.3 351.208 806.59 350.719 806.804ZM363.647 814.235C363.835 813.722 362.162 814.284 364.577 812.947C366.067 812.087 365.084 812.805 365.872 812.95C364.926 814.27 365.386 814.108 363.647 814.235ZM338.216 721.669C336.972 723.634 336.462 723.051 335.219 721.517L337.871 721.591C337.836 721.45 338.087 721.605 338.191 721.626L338.216 721.669Z" fill="#3C648C"/>
<path fill-rule="evenodd" clip-rule="evenodd" d="M331.284 702.981C332.589 701.962 331.968 701.766 333.417 703.216C331.694 703.772 332.596 703.794 331.284 702.981ZM327.835 707.467C330.47 707.031 333.245 706.838 335.96 706.621C338.768 706.494 341.562 706.151 344.317 705.595C341.597 702.29 339.197 698.735 337.148 694.977C336.284 695.311 335.383 695.536 334.464 695.649C333.692 695.833 332.911 695.976 332.124 696.076C330.655 696.151 331.132 696.037 330.349 695.681C330.699 695.109 330.045 695.395 331 694.97L333.988 694.584C334.861 694.359 335.747 694.183 336.64 694.058C334.337 689.81 332.464 685.626 330.846 682.022C328.302 676.297 326.434 672.122 324.929 671.894C320.609 671.381 316.233 671.625 311.998 672.616C309.241 673.342 307.031 674.514 306.548 676.317L306.511 676.454C307.77 678.528 309.247 680.463 310.917 682.224C313.164 684.217 315.622 685.535 317.558 687.627C314.735 687.178 308.11 682.182 306.063 678.098C304.924 682.405 304.621 685.859 313.042 692.405L313.087 692.483C313.531 691.373 314.346 690.244 315.529 690.173C315.007 691.629 314.865 692.242 313.716 693.033C316.338 695.146 318.626 697.645 320.5 700.443C320.371 699.86 320.716 699.257 321.287 698.407C321.575 698.95 321.756 699.543 321.822 700.153C321.956 702.385 321.977 700.422 321.391 701.626C321.279 701.542 321.174 701.448 321.078 701.345C322.422 703.515 323.418 705.881 324.031 708.358C324.898 708.1 325.804 707.889 326.738 707.708L325.723 705.349C327.011 705.76 325.554 704.177 327.165 706.307C327.165 706.307 327.588 707.159 327.757 707.512L327.835 707.467ZM328.281 682.96C326.419 684.035 325.08 684.936 323.381 684.473C324.294 683.415 326.459 682.165 328.281 682.96ZM323.396 677.779C318.109 677.482 319.158 678.759 316.801 677.556C319.441 676.609 321.917 675.758 323.396 677.779ZM318.953 688.843L320.797 692.177C319.072 691.73 318.111 691.165 318.953 688.843ZM328.047 698.315L326.256 699.672C325.783 698.074 325.937 698.459 327.093 697.122C328.266 697.715 327.449 696.639 328.064 698.305L328.047 698.315Z" fill="#3C648C"/>
<path fill-rule="evenodd" clip-rule="evenodd" d="M351.526 688.742C355.875 695.354 367.535 709.649 367.499 715.028C365.61 712.435 364.155 708.875 362.1 705.836C357.547 699.111 350.72 690.466 347.28 683.527C346.87 682.739 346.505 681.927 346.189 681.097C346.058 680.691 345.971 680.273 345.93 679.849C345.885 679.771 346.006 679.62 345.932 679.432C345.91 679.386 345.898 679.336 345.897 679.286C345.895 679.235 345.904 679.184 345.923 679.137C345.669 679.572 345.481 680.042 345.366 680.532C344.966 682.452 344.932 684.43 345.268 686.363C345.627 688.401 346.186 690.399 346.934 692.329C347.34 693.196 347.876 693.997 348.524 694.702C348.18 693.326 348.394 691.871 349.119 690.652C349.437 691.533 349.624 692.456 349.673 693.392C349.847 695.393 349.748 695.381 349.486 695.809C350.115 696.497 350.828 697.252 351.593 698.057C355.614 702.282 360.994 707.941 363.885 715.348C366.83 722.989 363.741 729.818 360.992 733.876C361.285 733.765 361.684 733.615 362.204 733.396L364.637 732.73C363.294 735.284 362.444 734.193 360.748 734.975C360.791 734.766 360.755 734.548 360.649 734.363C359.87 735.48 359.003 736.533 358.056 737.511C357.18 742.539 356.693 747.626 356.599 752.728C357.37 752.029 358.362 751.624 359.402 751.584C359.112 752.152 358.711 752.657 358.223 753.069C357.736 753.481 357.171 753.793 356.563 753.985C356.577 757.728 357.046 761.454 357.959 765.084C359.297 762.825 360.211 760.341 360.655 757.754C358.417 758.157 359.875 758.042 358.639 757.162C360.635 756.379 359.772 755.804 360.663 757.668C361.131 755.018 361.276 752.321 361.095 749.636C360.399 738.029 367.404 736.283 372.248 735.114C372.929 734.952 373.556 734.798 374.021 734.645C375.294 734.341 376.634 734.523 377.779 735.154C381.075 731.759 382.956 727.239 383.042 722.508C383.261 716.389 381.011 710.09 378.228 705.011C375.446 699.932 374.41 694.398 373.502 689.426C372.661 685.028 371.934 681.209 370.31 679.237C368.276 676.841 365.773 674.887 362.954 673.496C362.28 673.162 361.585 672.873 360.873 672.631C364.301 675.328 371.888 688.21 370.223 692.266C368.803 688.467 368.216 685.989 366.174 682.133C364.4 678.781 361.969 675.589 360.347 672.46C359.031 672.003 357.616 671.907 356.249 672.182C353.586 672.942 351.096 674.214 348.92 675.929C347.75 676.816 346.748 677.906 345.964 679.148C347.954 682.214 349.393 685.586 351.549 688.822L351.526 688.742ZM374.999 720.998C374.509 718.809 374.577 719.647 375.986 718.488C376.204 721.145 376.734 719.303 374.999 720.998ZM355.402 701.215C355.486 700.85 355.711 700.532 356.028 700.332C356.345 700.132 356.728 700.065 357.094 700.146C356.009 702.366 355.546 701.225 355.402 701.215ZM357.146 748.475C356.768 744.502 361.22 739.091 363.988 735.507C366.229 732.608 370.504 725.972 373.125 723.592C372.811 726.648 366.73 733.716 364.888 736.165C357.962 745.348 360.416 743.1 357.146 748.475ZM375.827 730.992C376.191 730.263 373.515 730.988 377.215 729.776C377.804 729.548 378.452 729.519 379.06 729.692C377.962 731.25 377.862 731.076 375.827 730.992ZM378.744 725.844C379.143 725.234 379.715 724.757 380.387 724.474C381.059 724.191 381.8 724.115 382.515 724.256C382.019 725.097 382.173 725.204 380.618 725.79L379.094 725.931C379.019 725.801 378.862 725.869 378.744 725.844ZM368.029 717.285C370.428 719.26 368.923 719.575 368.891 719.778C366.495 718.148 367.929 717.632 368.029 717.285ZM358.419 682.8C357.813 682.965 357.179 683.004 356.557 682.916C357.275 681.44 358.164 681.4 359.721 681.736C359.596 681.959 360.657 682.097 358.419 682.8ZM363.287 690.012C361.637 690.295 361.653 690.482 360.69 688.994C362.084 688.709 362.489 688.591 363.287 690.012ZM364.434 695.019C366.479 694.682 365.475 694.303 366.943 695.765C365.174 696.14 366.134 696.463 364.365 694.979L364.434 695.019Z" fill="#3C648C"/>
<path fill-rule="evenodd" clip-rule="evenodd" d="M314.691 720.541C312.76 719.196 306.01 714.005 302.057 706.658C298.23 699.63 292.195 701.197 287.628 702.367L286.428 702.668L286.367 702.703C285.554 703.04 284.87 703.629 284.416 704.383C289.325 709.147 300.379 721.252 301.682 724.01L300.081 722.856C296.47 718.982 287.576 710.157 283.94 705.12C282.716 707.363 281.765 709.746 281.109 712.216C279.739 716.922 279.043 721.757 279.382 723.224C279.608 723.995 281.112 725.02 283.2 726.297C282.763 724.24 282.972 723.542 284.757 721.934C284.821 723.445 284.486 725.324 283.256 726.334C283.758 726.644 284.307 726.974 284.869 727.308C288.369 729.274 291.67 731.576 294.726 734.18C294.686 734.111 294.783 733.94 294.514 733.933C294.718 733.446 293.343 733.905 295.498 732.718C297.966 731.293 295.403 732.554 296.869 732.573C296.614 732.952 297.493 732.814 295.641 733.825C295.361 734.011 295.058 734.159 294.74 734.265C295.341 734.807 295.927 735.381 296.491 735.979L296.829 735.784C297.42 735.338 298.088 735.003 298.799 734.796C298.524 734.02 298.454 734.938 299.346 733.903C300.595 732.466 299.469 733.717 300.255 733.598C300.202 733.934 300.128 734.266 300.033 734.592C305.648 734.318 312.007 742.332 317.21 748.924C317.952 749.869 318.679 750.789 319.366 751.639C320.716 752.042 321.962 752.733 323.018 753.665C322.308 753.683 321.599 753.616 320.905 753.464C321.102 753.685 321.285 753.903 321.477 754.115C322.686 755.45 323.916 756.899 325.204 758.43C328.825 762.702 332.936 767.603 337.866 771.281C335.975 765.606 331.236 752.419 324.665 741.398C324.213 741.729 323.83 742.147 323.538 742.626C323.486 742.714 323.472 743.091 323.365 743.026C323.258 742.96 323.253 743.31 323.185 743.453C322.272 741.671 322.409 741.349 324.059 740.408C323.859 740.062 323.659 739.715 323.459 739.369C318.708 731.858 316.134 727.64 315.172 724.235C314.811 723.025 314.664 721.762 314.738 720.502L314.691 720.541ZM306.924 725.868C308.452 725.135 310.024 724.078 311.351 724.236C311.205 724.612 310.978 724.952 310.687 725.232C310.396 725.512 310.047 725.725 309.665 725.856C307.463 726.942 307.29 726.003 306.924 725.868ZM293.334 720.689C293.589 720.815 293.86 720.907 294.139 720.963C293.836 721.231 293.483 721.435 293.099 721.563C293.03 721.603 292.831 721.718 292.719 721.644C292.607 721.57 292.461 721.678 292.327 721.686C292.652 721.048 292.117 721.322 293.132 720.759L293.334 720.689ZM304.069 730.183C304.708 731.131 304.322 731.481 304.32 731.597C302.578 731.021 303.154 731.358 302.626 729.204C303.754 729.557 303.155 728.84 304.069 730.183ZM293.334 720.689C292.323 720.118 294.988 719.734 293.334 720.689V720.689ZM290.2 728.722C291.859 727.475 290.451 728.577 291.349 728.971L289.755 729.672C289.952 728.773 289.102 729.54 290.2 728.722ZM325.186 755.219C326.972 756.312 325.456 755.687 325.565 756.155C324.465 756.79 324.358 756.944 324.157 755.097C324.523 755.071 324.716 754.925 325.176 755.202L325.186 755.219ZM311.957 735.606C312.659 733.422 312.737 734.797 313.265 734.851C313.096 735.098 314.278 735.767 311.957 735.606ZM288.048 715.415L286.862 716.1C286.936 715.988 286.996 715.792 287.038 715.744L287.635 715.399C287.609 715.253 287.91 715.414 288.048 715.415ZM300.795 711.312L298.066 711.386C298.981 709.911 299.721 710.512 300.795 711.312ZM313.568 742.435C315.067 741.212 314.304 741.491 315.811 742.041C314.989 743.358 315.013 743.079 313.568 742.435Z" fill="#3C648C"/>
<path fill-rule="evenodd" clip-rule="evenodd" d="M277.949 748.682C275.707 746.2 267.047 736.5 263.22 731.17C263.066 730.963 262.899 730.766 262.718 730.582C261.443 729.332 259.581 729.287 257.559 729.866C255.16 730.674 252.905 731.859 250.879 733.376C249.241 734.541 247.699 735.837 246.269 737.25C245.908 737.66 245.639 738.142 245.48 738.664L246.217 739.22C246.262 739.298 247.149 740.194 247.378 740.432C248.014 741.092 248.756 741.818 249.43 742.446C250.967 743.868 252.266 745.057 253.918 746.459C256.712 748.818 261.317 751.275 263.123 753.142C258.704 752.968 249.209 744.443 245.254 739.453C244.979 740.835 244.86 742.245 244.897 743.654C244.925 746.177 245.19 748.691 245.688 751.165C245.725 751.272 245.747 751.383 245.753 751.497C245.907 752.368 246.172 753.216 246.54 754.021C246.885 754.619 251.435 756.738 257.568 759.582C264.514 762.812 273.379 766.966 280.923 771.294C279.994 769.925 279.193 768.597 278.471 767.386C278.121 766.78 277.796 766.217 277.471 765.654C274.37 760.724 275.081 758.155 276.298 753.722C276.528 752.862 276.786 751.928 277.046 750.877L277.092 750.677C274.852 752.317 271.851 754.8 269.38 754.241L277.671 749.2L277.966 748.672L277.949 748.682ZM249.42 751.008L251.006 750.276C251.051 750.758 251.048 751.243 250.999 751.724C250.994 752.117 250.927 752.506 250.8 752.878C249.604 752.067 250.037 752.637 249.42 751.008ZM254.502 755.29C253.827 754.121 256.172 753.703 256.337 753.688C256.021 755.302 255.917 755.201 254.502 755.29ZM269.379 758.098C271.05 758.773 269.691 758.218 271.028 759.074C268.822 759.574 268.985 759.676 267.471 757.814C268.998 757.798 267.832 757.479 269.379 758.098ZM260.568 758.277C261.828 755.379 261.578 757.487 261.919 757.497C261.574 758.101 261.879 757.867 261.233 758.309C261.181 758.339 261.025 758.429 260.921 758.328C260.816 758.227 260.707 758.278 260.594 758.262L260.568 758.277ZM261.322 746.584C263.161 746.388 262.437 746.795 265.116 746.275C265.116 746.275 265.906 747.644 263.525 748.06C262.311 748.276 262.224 747.806 261.322 746.584ZM257.815 738.009C256.532 739.407 257.137 739.335 255.236 739.082C255.305 738.961 254.23 738.739 256.472 738.022C257.512 737.664 257.231 737.918 257.78 737.948L257.815 738.009Z" fill="#3C648C"/>
<path fill-rule="evenodd" clip-rule="evenodd" d="M243.876 752.246C239.376 750.052 235.952 746.521 232.994 743.517C232.949 743.439 232.86 743.386 232.803 743.327C232.174 743.972 231.49 744.56 230.758 745.085C230.734 744.584 230.829 744.083 231.033 743.625C231.237 743.166 231.546 742.761 231.934 742.443C229.258 739.808 227.165 737.922 225.357 738.77C223.242 739.748 219.839 743.214 216.65 747.03L215.489 748.439L217.18 750.488C215.935 750.572 216.516 751.518 215.371 749.754C215.222 749.537 215.089 749.308 214.976 749.07C212.06 752.74 209.628 756.326 208.967 758.001L217.315 760.941C219.658 761.54 218.068 760.726 220.062 762.08C218.114 763.205 211.277 760.524 208.774 758.528C208.458 759.981 209.256 763.123 210.36 765.995C211.393 768.644 212.62 770.949 213.36 771.192L216.84 772.139C216.928 771.277 217.254 770.457 217.782 769.77C217.908 770.448 218.141 771.492 218.319 772.52L227.035 774.936C227.503 774.336 228.035 773.789 228.621 773.304C230.328 771.977 232.273 770.987 234.351 770.389C234.05 769.408 234.178 768.849 235.393 768.194C235.564 768.792 235.656 769.41 235.669 770.032C238.102 769.448 240.639 769.443 243.074 770.017C244.727 770.46 249.279 773.744 254.93 777.872C254.874 776.952 255.016 776.032 255.346 775.172C255.676 774.312 256.187 773.533 256.844 772.887C256.941 773.826 256.852 774.776 256.582 775.681C256.312 776.586 255.866 777.428 255.27 778.161C255.424 778.268 255.575 778.389 255.734 778.505C259.267 781.084 263.155 783.919 266.979 786.562C271.703 787.125 276.454 787.453 281.142 787.772C295.682 788.777 309.736 789.739 322.337 797.544L322.277 797.44C321.973 796.225 322.005 794.951 322.368 793.753C322.732 792.555 323.414 791.477 324.341 790.636C322.185 789.418 319.932 788.378 317.605 787.528C317.575 788.052 317.487 788.571 317.344 789.076C315.821 788.639 316.662 788.315 316.599 787.786C316.599 787.786 316.847 787.515 317.077 787.313C312.174 785.58 307.093 784.4 301.929 783.796C293.853 782.789 288.63 779.742 284.998 776.251C276.891 770.85 265.264 765.451 256.663 761.433C250.192 758.426 245.38 756.192 244.715 755.04C244.3 754.151 243.995 753.214 243.809 752.25L243.876 752.246ZM241.365 758.637C241.136 757.061 241.15 756.764 242.2 755.603C242.95 756.902 242.62 757.67 241.365 758.637ZM274.204 786.836C273.71 784.5 273.704 784.63 275.462 783.015C275.522 784.758 275.181 785.348 274.204 786.836ZM258.564 769.307C258.206 767.447 258.371 767.733 259.692 766.52C260.324 768.095 260.168 768.104 258.564 769.307ZM269.048 771.465C268.494 769.706 268.716 769.751 270.288 768.173C270.438 770.073 270.177 770.201 269.048 771.465ZM294.943 787.356C294.288 785.482 294.436 785.258 295.913 783.817C296.054 785.421 296.399 783.998 295.794 786.091C295.378 787.37 295.683 786.698 294.943 787.356ZM301.078 787.983C300.507 786.534 300.336 786.979 301.299 786.365C301.719 786.18 302.176 786.089 302.636 786.101C302.465 787.666 302.995 787.384 301.095 787.973L301.078 787.983ZM317.097 794.749C317.413 794.117 316.898 794.564 317.681 794.02L318.362 794.019C318.362 794.019 317.906 795.229 317.458 794.795C317.393 794.682 317.219 794.76 317.097 794.749ZM306.796 788.387C306.796 788.387 304.565 786.662 308.172 787.87L306.796 788.387ZM276.622 780.544C275.79 778.784 275.727 778.994 277.068 777.677C277.896 779.011 277.505 779.353 276.622 780.544ZM219.198 751.343C220.898 750.928 219.454 750.446 221.028 751.973C219.341 752.231 220.367 752.828 219.198 751.343ZM224.602 762.703C225.338 763.098 224.958 762.879 225.633 763.529C224.286 764.075 223.445 763.879 223.332 762.282C223.985 762.413 223.578 762.129 224.64 762.728L224.602 762.703Z" fill="#3C648C"/>
<path fill-rule="evenodd" clip-rule="evenodd" d="M249.546 807.366C249.634 807.638 249.953 807.131 249.546 807.366V807.366ZM248.809 807.791L249.13 807.606L249.546 807.366C249.512 807.178 249.523 806.986 249.579 806.804L248.294 807.338C248.747 807.503 248.852 807.685 248.829 807.825L248.809 807.791ZM309.142 800.67C305.049 800.91 300.945 800.877 296.856 800.57C291.782 800.141 286.778 799.107 281.949 797.491C278.444 796.102 275.1 794.334 271.978 792.22C271.523 793.244 270.891 794.18 270.11 794.984C269.95 793.807 269.68 793.339 270.401 792.507C270.62 792.212 270.9 791.967 271.222 791.791C265.754 788.32 259.746 783.913 254.568 780.125C253.78 779.54 253.008 778.982 252.267 778.439C252.234 779.015 252.02 779.565 251.655 780.01C251.289 780.455 250.792 780.773 250.234 780.918C250.495 779.37 250.586 778.867 251.46 777.901C247.037 774.681 243.636 772.349 242.536 772.025C240.398 771.534 238.174 771.553 236.043 772.079C234.105 772.506 232.265 773.294 230.618 774.403C231.756 774.562 232.853 774.936 233.852 775.504C236.333 776.6 242.933 780.653 244.564 782.598C241.861 782.115 237.04 778.305 233.227 776.442C232.108 775.998 231.027 775.463 229.995 774.844L229.909 774.894C229.31 775.401 228.769 775.973 228.295 776.599C228.257 776.678 228.203 776.748 228.137 776.805C226.052 779.716 224.397 782.911 223.223 786.294C222.353 788.522 221.921 790.896 221.949 793.288C224.713 793.888 227.313 795.082 229.57 796.786C228.003 796.813 229.43 797.005 227.806 796.592C225.787 796.035 223.851 795.211 222.05 794.142C222.137 794.604 222.3 795.048 222.532 795.457C222.837 795.985 223.222 796.652 223.602 797.31C225.877 801.551 227.913 805.317 237.146 805.749C239.327 805.899 241.494 806.216 243.627 806.695C243.139 805.349 243.329 804.558 244.82 803.801C245.022 804.84 244.964 805.914 244.649 806.925C245.96 807.195 247.258 807.543 248.667 807.884L248.841 807.726C248.838 807.76 248.827 807.792 248.81 807.822C248.794 807.851 248.771 807.877 248.744 807.897C256.895 810.016 266.412 813.32 273.553 815.768C277.697 817.185 281.039 818.374 282.694 818.781C285.768 819.604 291.663 818.914 297.798 818.201C299.733 817.973 301.699 817.738 303.615 817.556C303.477 816.234 303.769 814.903 304.449 813.761C304.847 814.944 304.992 816.197 304.876 817.44C307.883 817.108 310.915 817.063 313.931 817.304C318.85 817.825 324.743 819.792 330.202 821.767C330.463 820.632 331.043 819.597 331.873 818.781C332.107 819.941 331.901 821.146 331.297 822.162L334.259 823.293C336.386 824.097 338.383 824.837 340.113 825.432C340.321 825.062 340.549 824.703 340.796 824.357C341.665 823.081 340.586 823.993 342.153 823.227C342.274 824.635 342.162 825.023 341.228 825.805C341.557 825.915 341.877 826.008 342.182 826.097C346.843 827.47 354.532 822.188 358.015 819.519C354.425 818.996 350.946 817.884 347.719 816.226C342.257 813.678 336.471 811.893 330.523 810.923C329.315 810.784 328.129 810.486 326.998 810.037C326.132 809.498 325.33 807.929 324.563 805.6C324.382 805.046 324.203 804.457 324.017 803.814L323.884 803.764C320.276 802.237 316.468 801.231 312.576 800.778C312.686 800.968 312.744 801.269 312.888 801.637C313.37 802.952 312.786 802.181 312.483 802.817C311.441 801.952 311.83 802.386 311.531 800.688C310.755 800.636 309.977 800.622 309.199 800.649L309.142 800.67ZM304.874 809.578C305.017 810.384 304.785 810.183 304.656 810.639C302.96 809.701 303.173 809.89 304.265 808.682C304.954 809.196 304.523 807.69 304.874 809.578ZM281.09 807.502C281.863 809.122 282.072 808.782 280.37 809.996C280.083 808.498 280.033 808.712 281.09 807.502ZM318.908 810.424C318.791 808.783 318.606 808.162 319.417 806.747C320.187 809.069 320.427 811.535 320.119 813.963C319.304 813.451 319.477 813.791 319.199 812.369C319.077 811.715 319 811.054 318.968 810.389L318.908 810.424ZM333.187 816.037C333.138 815.753 333.864 815.53 333.187 816.037V816.037ZM279.111 813.355C279.263 814.838 278.83 815.688 277.793 817.072C277.485 815.137 277.385 814.525 279.111 813.355ZM264.316 799.45C262.699 802.889 262.221 801.26 262.185 801.258C262.283 800.808 261.587 801.002 262.873 799.809C264.838 797.993 263.931 799.441 264.316 799.45ZM332.363 817.009C332.686 816.129 331.945 816.846 332.936 816.182L333.213 816.022C333.268 816.117 333.353 816.264 333.717 816.354C332.676 817.532 333.381 816.952 332.383 817.044L332.363 817.009ZM235.509 797.814C237.875 799.912 236.122 798.615 236.049 799.35C233.087 798.219 235.357 798.271 235.509 797.814ZM248.333 786.946C247.953 788.066 248.212 788.356 246.851 788.379C246.841 788.061 246.444 787.933 247.292 787.143C248.909 785.643 247.37 787.017 248.327 786.996L248.333 786.946Z" fill="#3C648C"/>
<path fill-rule="evenodd" clip-rule="evenodd" d="M50.71 48.4563C49.35 48.4063 49.05 48.4563 48.41 49.7663C48.746 49.8309 49.0935 49.7961 49.41 49.6663C51.68 48.9563 50.65 48.5863 50.7 48.4563H50.71ZM54.81 60.2363C51.35 60.4263 49.35 60.2363 47.22 58.6763C46.1372 57.8275 45.1483 56.8653 44.27 55.8063C45.0712 55.3854 45.7922 54.8269 46.4 54.1563C47.17 53.2763 46.6 54.0863 46.71 53.0863L43.71 55.1563C42.19 53.3463 40.38 50.9463 38.02 47.7863C37.77 47.4563 37.52 47.1163 37.26 46.7863C38.26 45.3363 37.6 46.2663 37.73 45.4363C37.36 45.7063 37.05 45.9463 36.73 46.1763C28.42 35.6263 16.73 26.2863 14.87 24.7963C14.5818 23.2568 14.4478 21.6924 14.47 20.1263C14.4831 20.0036 14.4703 19.8794 14.4323 19.7619C14.3943 19.6444 14.3321 19.5363 14.2495 19.4444C14.167 19.3526 14.0661 19.2792 13.9533 19.2289C13.8405 19.1786 13.7185 19.1526 13.595 19.1526C13.4715 19.1526 13.3494 19.1786 13.2367 19.2289C13.1239 19.2792 13.023 19.3526 12.9405 19.4444C12.8579 19.5363 12.7957 19.6444 12.7577 19.7619C12.7197 19.8794 12.7069 20.0036 12.72 20.1263C12.59 28.3763 16.86 36.1263 20.38 42.4763C21.21 43.9763 22 45.4063 22.67 46.7163C23.21 47.7963 23.92 49.0163 24.67 50.3363L24.73 50.5263C24.99 50.9663 25.26 51.4263 25.54 51.8863C29.54 58.5863 34.54 67.0663 30.34 69.7863L29.41 70.4063H29.34C27.55 71.6663 25.79 73.1663 24.07 74.6363C21.07 77.2163 18.15 79.7063 15.51 80.4563H15.4C15.1797 80.5163 14.9559 80.5631 14.73 80.5963C14.6896 79.9707 14.6027 79.349 14.47 78.7363C13.69 80.0263 13.58 80.0963 13.74 80.6463C13.6269 80.6566 13.5131 80.6566 13.4 80.6463C12.47 80.5263 11.62 80.4463 10.84 80.3663C7.54 80.0463 5.58 79.8563 3.18 76.8363C3.61962 76.9012 4.06847 76.8236 4.46077 76.6148C4.85307 76.4061 5.16821 76.0772 5.36 75.6763C4.3873 75.6133 3.41061 75.6908 2.46 75.9063L1.82 75.0863C1 74.0863 0.079998 72.8763 -0.800001 71.5363L1.24 70.7563C0.0900002 70.0263 -0.640001 69.8363 -1.03 71.0063C-3.63 66.8763 -5.74 61.1863 -3.66 52.7963C-2.44404 48.0172 -1.81606 43.1076 -1.79 38.1763C0.209999 37.3163 -0.790001 36.9563 -0.790001 36.6163C-1.13325 36.7152 -1.46773 36.8423 -1.79 36.9963C-1.82228 35.159 -1.99612 33.3269 -2.31 31.5163C-0.45627 30.2676 1.28981 28.866 2.91 27.3263C3.77 26.5563 4.62 25.7963 5.51 25.0763C8.43 22.7063 6.51 17.8363 4.37 12.3863C2.55 7.81631 0.569998 2.79632 1.36 -0.963684C1.39345 -1.18537 1.34199 -1.41152 1.21592 -1.59691C1.08986 -1.78231 0.89846 -1.91329 0.68 -1.96368C0.457993 -1.99958 0.230661 -1.94912 0.044693 -1.82266C-0.141275 -1.6962 -0.271772 -1.50334 -0.32 -1.28368C-0.99 1.91632 0 5.71632 1.33 9.36632C0.367935 9.32011 -0.587 9.55277 -1.42 10.0363C-0.799999 10.6463 -0.93 10.8063 0.42 10.5263C0.843912 10.4875 1.25049 10.3393 1.6 10.0963C1.97 11.0963 2.36 12.0963 2.75 13.0963C4.65 17.9163 6.34 22.2263 4.42 23.7863C3.55 24.3963 2.64 25.2063 1.73 26.0263L1.3 26.3963L0.0699997 22.6463C-0.65 24.1463 0.199999 26.5063 0.49 27.1163C-2.02 29.3163 -4.58 31.2963 -6.95 31.1963C-5.95 28.5663 -6.02 24.7063 -7.05 22.7663L-7.74 31.0863C-8.19914 30.9609 -8.63483 30.7616 -9.03 30.4963C-11.37 28.9063 -13.38 27.4963 -14.82 26.3063C-16.26 25.1163 -16.93 24.4563 -17 24.0463C-16.9811 23.491 -16.9108 22.9387 -16.79 22.3963C-16.348 21.9156 -16.0069 21.351 -15.787 20.7361C-15.5672 20.1212 -15.473 19.4683 -15.51 18.8163C-15.76 19.1063 -16.04 19.4363 -16.33 19.8163C-15.5842 15.721 -15.2957 11.5554 -15.47 7.39632C-14.83 7.65632 -14.47 7.39632 -13.47 6.99632C-14.62 6.52632 -14.71 6.54632 -15.47 6.78632C-15.47 6.46632 -15.52 6.14632 -15.55 5.78632C-15.9081 2.72343 -15.7151 -0.378822 -14.98 -3.37368C-14.4828 -5.63043 -13.2985 -7.67764 -11.59 -9.23368C-10.59 -10.0737 -8.31 -10.4737 -6.38 -10.6537H-6.19C-4.5 -10.8037 -3.12 -10.7937 -3.11 -10.7937C-2.9949 -10.7937 -2.88095 -10.8165 -2.77474 -10.8609C-2.66853 -10.9052 -2.57217 -10.9702 -2.49125 -11.052C-2.41034 -11.1339 -2.34646 -11.231 -2.30333 -11.3377C-2.2602 -11.4444 -2.23868 -11.5586 -2.24 -11.6737C-2.23138 -11.7963 -2.24885 -11.9194 -2.29125 -12.0348C-2.33366 -12.1502 -2.40004 -12.2553 -2.48602 -12.3432C-2.57201 -12.431 -2.67564 -12.4997 -2.79009 -12.5446C-2.90454 -12.5895 -3.0272 -12.6096 -3.15 -12.6037C-3.15 -12.6037 -3.79 -12.6037 -4.74 -12.6037C-3.4 -14.1537 -0.170002 -16.5537 7.03 -16.6037C9.15 -16.6037 11.13 -16.6037 13.03 -16.6037C21.26 -16.5037 28.16 -16.4137 40.46 -20.5337C50.63 -23.9337 55.85 -20.8637 62.46 -16.9937C65.6161 -15.0395 68.9232 -13.3408 72.35 -11.9137C83.63 -7.41368 89.25 -7.46368 93.06 -7.50368H94.77C96.37 -7.40368 98.6 -5.31368 100.45 -2.86368C102.3 -0.413683 103.73 2.44632 103.69 3.94632V4.00632C103.516 4.83044 103.077 5.57497 102.44 6.12632L100.28 5.64632C96.52 5.39632 89.05 2.57632 85.59 1.22632C83.24 0.306316 70.2 -5.50368 68.97 -5.40368C71.82 -2.69368 95.51 7.13632 102.23 6.39632C101.526 7.09481 100.77 7.73992 99.97 8.32632C97.1849 10.3928 94.1342 12.0745 90.9 13.3263C90.12 13.5963 88.59 12.3263 86.3 10.4663C82.9879 7.60191 79.3494 5.13822 75.46 3.12632C76.32 2.19632 76.39 2.05632 75.74 0.936316C74.98 1.93632 74.84 2.14631 75.02 2.93632C72.77 1.85985 70.4271 0.989624 68.02 0.336317C68.02 0.146317 68.02 -0.103683 68.56 -0.103683L67.14 -1.66368C67.03 -0.923683 65.72 -2.27369 67.42 -0.313684L67.91 0.276316C63.3768 -0.908825 58.6909 -1.40438 54.01 -1.19368C53.14 -2.93368 52.14 -4.60368 51.28 -6.05368C53.82 -5.54368 57.17 -5.23368 57.99 -5.51368C56.5131 -6.37076 54.8467 -6.84834 53.14 -6.90368C52.35 -6.90368 51.47 -7.07368 50.63 -7.14368C50.56 -7.25368 50.5 -7.36368 50.43 -7.46368C48.99 -9.72368 45.43 -8.80368 40.67 -7.57368C33.56 -5.73368 23.4 -3.11368 14.67 -9.35368C14.4812 -9.48743 14.2473 -9.54144 14.019 -9.504C13.7906 -9.46657 13.5862 -9.34072 13.45 -9.15368C13.3163 -8.96487 13.2622 -8.73098 13.2997 -8.50265C13.3371 -8.27431 13.463 -8.06991 13.65 -7.93368C23.03 -1.22368 33.65 -3.93368 41.08 -5.88368L42.56 -6.26368C42.8043 -5.67978 43.1667 -5.15272 43.6245 -4.71561C44.0822 -4.27849 44.6255 -3.94078 45.22 -3.72368L43.59 -6.51368C46.37 -7.18368 48.33 -7.45368 48.93 -6.51368C50.2975 -4.38415 51.5526 -2.18447 52.69 0.0763168C53.03 0.746317 53.34 1.42632 53.62 2.07632C54.1958 3.35817 54.6284 4.69961 54.91 6.07632C54.9004 6.20266 54.921 6.32947 54.97 6.44632C55.0771 7.08234 55.0255 7.73497 54.82 8.34632H53.34L51.48 8.49632L44.14 7.80632C42.79 7.63632 41.82 7.80632 40.47 7.61632C36.65 7.08632 30.35 6.04632 26.18 7.01632C28.03 7.88632 27.84 7.35632 29.7 7.37632C35.17 7.43632 49.63 10.6063 54.7 8.70632L54.61 8.83632C54.26 9.27632 53.95 9.72632 53.61 10.1963C51.51 13.1963 48.46 17.5563 40.74 14.0563C32.41 10.2763 26.63 11.5263 24.93 12.0563C24.1159 11.3672 23.3413 10.6327 22.61 9.85632C22.5333 9.77103 22.4403 9.70196 22.3365 9.65316C22.2327 9.60435 22.1201 9.57681 22.0055 9.57215C21.8909 9.5675 21.7765 9.58581 21.6691 9.62603C21.5617 9.66624 21.4634 9.72754 21.38 9.80632C21.2959 9.88376 21.2279 9.97703 21.1799 10.0808C21.1318 10.1845 21.1047 10.2967 21.1001 10.411C21.0954 10.5252 21.1133 10.6392 21.1528 10.7465C21.1922 10.8538 21.2525 10.9523 21.33 11.0363C29.64 19.9763 43.63 22.6363 53.07 24.3963C54.56 24.6763 55.93 24.9363 57.13 25.1963C57.71 27.1963 59.69 31.5163 60.24 31.8763C60.87 30.0463 59.24 27.2363 57.79 25.3363C60.01 25.8263 61.55 26.3363 62.03 26.9063C62.51 27.4763 63.1 28.1463 63.77 28.9063C66.91 32.3963 71.46 37.3963 68.56 41.4863L68.38 41.7563C68.18 41.6063 67.85 41.3563 67.32 40.9363L47.49 30.5863C49.75 33.4863 64.05 39.8063 67.93 42.4463C66.865 44.2895 65.8938 46.1852 65.02 48.1263C64.1 50.1263 63.13 52.1263 62.02 53.9863C61.692 53.9016 61.348 53.9016 61.02 53.9863L61.69 54.6363C59.81 57.7363 57.61 60.1163 54.8 60.2763L54.81 60.2363ZM19.37 70.4563C18.37 69.6763 19.52 69.4563 17.66 70.3063C18.42 71.3063 18.43 70.8963 19.37 70.4563ZM55.14 56.4563C54.33 56.0763 54.91 56.3363 54.14 56.2863C56.28 59.3963 57 58.9363 58.24 58.7563C57.46 58.1263 56.72 57.5563 55.96 57.0163C55.6953 56.8125 55.4181 56.6255 55.13 56.4563H55.14ZM51.94 55.3963C51.77 54.1563 52.52 54.4663 50.94 54.0563C50.94 54.7063 50.58 54.0563 51.12 54.9063C51.66 55.7563 51.41 55.2063 51.96 55.3963H51.94ZM31.5 37.2263C30.64 37.0063 32.02 36.6763 30.3 37.1663C29.43 37.4163 29.78 37.4863 29.38 37.7763C30.24 38.2363 30.92 38.3163 31.5 37.2263ZM12.91 39.9463C14.53 40.9463 16.76 40.6563 18.71 39.6963C17.71 39.0963 18.15 39.2563 17.13 39.2963L12.91 39.9463ZM5.74 54.8863C4.02 53.8863 0.48 54.5763 -1.7 54.3163C-3.29 54.1263 -2.42 53.9663 -3.96 54.2663C-1.65 55.7563 3.88 55.7063 5.74 54.8863ZM7.6 68.2863C8.79 66.6363 9.1 65.8463 8.6 64.2863C7.6 65.1663 7.93 64.6863 7.6 66.1763C7.36531 66.8669 7.36531 67.6157 7.6 68.3063V68.2863ZM35.86 33.2863C33.36 30.9963 31.1 28.0163 28.46 25.5963C23.56 21.0963 18.68 17.5163 13.65 13.3163C11.11 11.1963 7.71 7.25632 6.05 6.73632C9.97 11.9963 15.96 16.4663 20.91 20.3963C23.35 22.3263 25.91 24.4763 28.3 26.6463L34.74 32.8663C35.58 33.3963 35.18 33.1263 35.86 33.2663V33.2863ZM17.44 5.39632C16.14 2.99632 10.34 -3.40368 8.2 -5.60368C5.29 -8.60368 1.42 -12.0637 -1.69 -10.6837L-2.99 -10.1637C-2.24 -9.66368 -2.74 -9.70368 -1.85 -9.91368C4.93 -12.3937 12.89 4.04632 17.44 5.39632ZM62.61 -6.72368C63.91 -5.86368 65.11 -5.15368 66.43 -5.72368C64.94 -6.98368 64.59 -7.16368 62.61 -6.72368ZM31.33 65.0963L23 67.7563C24.58 68.6163 30.41 67.0063 31.33 65.0963ZM3.82 26.5463C4.49791 27.0349 5.32934 27.2624 6.16154 27.187C6.99375 27.1117 7.77082 26.7386 8.35 26.1363C6.83246 25.8259 5.25715 25.9685 3.82 26.5463ZM0.34 46.0863H-1.86C-0.860001 47.5763 -0.860001 47.3563 0.359999 46.0863H0.34ZM-14.97 16.2563C-14.53 16.2563 -14.52 17.3163 -13.34 15.0363C-13.34 15.0363 -14.19 13.8463 -14.97 16.2563ZM-15.02 -0.663683C-13.89 -0.213682 -13.7 0.336315 -11.15 -1.12368C-12.2 -1.52368 -12.38 -2.01368 -15.02 -0.663683ZM0.699999 -14.1537C2.45234 -13.8457 4.23166 -13.7183 6.01 -13.7737C8.85 -13.9237 18.46 -12.6037 21.56 -11.9837L32.21 -10.6037C35.21 -10.2237 39.41 -9.54368 42.65 -10.3137C40.8531 -10.6965 39.0261 -10.9207 37.19 -10.9837L26.83 -12.2737C23.14 -13.0937 14.64 -13.8437 10.99 -14.2437C7.64 -14.6037 4.14 -15.1237 0.699999 -14.1537ZM35.54 -18.5037C35.42 -17.3137 35.76 -16.1737 37.43 -16.5637L35.54 -18.5037ZM50.73 25.6363C50.42 27.5863 51.68 26.9363 51.73 26.9563C51.49 25.4563 51.13 25.8563 50.73 25.6363ZM57.32 -13.0937C58.13 -14.4337 57.99 -14.0937 57.32 -15.7037C56.23 -14.3237 56.44 -14.9537 57.32 -13.0937ZM46.94 -14.1037C47.08 -13.5037 45.6 -14.4537 47.55 -12.9937C48.64 -12.1837 47.87 -12.8837 48.55 -12.8137C48.38 -13.5237 49.79 -12.4637 47.99 -13.8137C46.49 -14.9437 48.17 -13.8137 46.99 -14.1037H46.94ZM50.22 -14.7737C50.79 -14.0637 50.28 -14.2137 51.32 -13.7137C52.2 -13.2937 51.43 -13.6037 52.24 -13.7637C51.77 -15.1837 51.15 -14.8637 50.24 -14.7637L50.22 -14.7737ZM44.14 12.3963C45.6 13.3963 46.6 13.5663 47.96 12.6563C46.51 11.9463 45.65 11.7063 44.14 12.3963ZM45.14 -20.5237C45.2266 -19.9753 45.4447 -19.4561 45.7755 -19.0103C46.1064 -18.5645 46.5402 -18.2054 47.04 -17.9637C47.09 -18.4137 47.83 -18.1137 46.57 -19.7237C45.72 -20.7937 45.68 -20.4337 45.14 -20.5237ZM84.14 -7.04368C82.75 -5.60368 82.92 -6.21368 83.87 -4.50368C84.3 -5.29368 84.26 -4.99368 84.33 -5.75368C84.42 -6.75368 84.41 -6.02368 84.06 -7.01368L84.14 -7.04368ZM82.37 3.31632C81.25 4.53632 81.58 3.97631 81.61 5.50632C81.7256 5.47709 81.8392 5.44034 81.95 5.39632C82.1431 5.34516 82.3183 5.24143 82.456 5.09666C82.5937 4.9519 82.6886 4.77177 82.73 4.57632C83.01 3.36632 82.95 4.45632 82.37 3.31632ZM90.55 -5.10368C90.13 -5.10368 90.69 -6.57368 89.35 -4.41368C89.88 -4.34368 89.96 -2.41368 90.55 -5.10368ZM95.83 -1.39368C95.61 0.0163155 95.83 1.26632 97.83 1.72632C97.43 0.726316 96.68 -1.06368 95.83 -1.39368ZM88.73 9.73632C88.11 10.4563 88.42 10.2963 88.4 11.2363L90.25 9.10632C90.18 9.10632 90.06 8.19632 88.73 9.73632ZM20.92 -2.54368C21.82 -0.703684 22.54 1.69632 24.68 2.54632L22.24 -1.78368C21.4 -2.78368 21.7 -2.30368 20.92 -2.54368ZM33 -0.813684C33.64 0.706316 34.44 0.106316 34.55 0.0563164L33.47 -2.35368C32.84 -1.63368 32.47 -2.04368 33 -0.813684ZM48.25 5.64632C48.69 6.99632 48.98 6.72632 49.49 6.94632C49.4561 5.75817 49.1113 4.59967 48.49 3.58632C48.11 4.48631 47.84 4.40632 48.26 5.64632H48.25ZM37.33 5.00632C38.03 3.86632 37.93 3.32632 37.43 2.00632C36.43 4.00632 36.22 3.66632 37.33 5.00632ZM22.83 8.19632C24.2 8.73632 24.36 8.65632 25.96 7.88632C24.59 7.37632 23.96 7.06632 22.83 8.19632ZM40.19 23.0663C39.81 24.2263 39.64 25.5863 41.74 26.0163L40.19 23.0663ZM41.39 29.0663C41.08 27.7063 41.39 28.2963 40.23 27.8863C40.23 28.3063 39.7 27.8263 40.47 28.7763C41.41 29.9163 40.35 28.9563 41.39 29.0663ZM15.28 50.7963C15.28 49.3263 15.34 49.5763 13.94 49.2363C14.03 49.7763 13.3 49.0663 14.45 50.3163L15.28 50.7963ZM19.6 58.3963C19.3905 57.9314 19.0601 57.5312 18.6432 57.2374C18.2264 56.9437 17.7383 56.7672 17.23 56.7263C17.49 58.3163 18.39 58.2763 19.6 58.3963ZM9.99 54.0963C8.73 53.1863 8.88 52.9863 8.37 54.4663C8.97 54.9263 9.28 54.5563 9.99 54.0963ZM25.52 20.2163C25.71 19.0263 25.05 17.6463 24.52 15.9963C23.57 17.6563 23.96 18.5363 25.52 20.2163ZM8.42 1.78632C8.36 1.20632 8.59 1.58632 8.17 0.966316L7.62 0.806316C7.54 3.02632 8.39 1.80632 8.42 1.80632V1.78632ZM2.14 -3.32368C2.86 -4.20368 3 -3.84368 2.07 -5.32368C1.43 -4.10368 1.41 -4.68368 2.14 -3.32368ZM5.65 41.1763L8.65 40.1763C8.10636 39.8924 7.48583 39.7907 6.88 39.8863C4.57 40.3363 5.7 41.1163 5.69 41.2163L5.65 41.1763ZM-1.64 20.3963C-1.7151 19.6151 -1.96879 18.8616 -2.38146 18.194C-2.79414 17.5265 -3.35475 16.9627 -4.02 16.5463C-3.86 17.8863 -3.16 19.7463 -1.64 20.3963ZM-8.81 6.39632C-7.67 6.83632 -7.3 6.75632 -6.81 5.68632C-7.88 5.52632 -6.03 4.94632 -8.09 5.68632C-9.2 6.09632 -8.54 6.03632 -8.85 6.36632L-8.81 6.39632ZM-10.81 -6.13368C-10.34 -6.13368 -11.3 -4.95368 -9.49 -6.47368C-8.37 -7.42368 -9.23 -6.84368 -9.1 -7.47368C-10.44 -7.11368 -10.2 -7.41368 -10.81 -6.08368V-6.13368ZM55.34 42.4663C53.34 42.8663 53.7 43.4663 54.55 44.9163L55.29 42.7763C55.37 42.8063 55.33 42.5663 55.34 42.4663Z" fill="#C7E6EE"/>
<path fill-rule="evenodd" clip-rule="evenodd" d="M68.1396 53.6863C69.3496 52.9563 69.3196 53.5063 68.6096 51.9163C67.6096 53.1163 67.8896 52.3963 68.1396 53.6863ZM63.4396 55.0963C64.5996 53.0963 65.6196 50.9563 66.5996 48.8663C67.5555 46.6598 68.6857 44.5331 69.9796 42.5063C71.7869 45.6961 73.8895 48.7093 76.2597 51.5063C75.734 52.0787 75.2806 52.7134 74.9096 53.3963C74.5225 53.955 74.1685 54.536 73.8496 55.1363C73.3496 56.2963 73.5796 55.9463 73.6296 56.6763C74.1896 56.5763 73.7596 57.0063 74.3896 56.3763L75.6096 54.1063C76.059 53.4819 76.4698 52.8307 76.8396 52.1563C79.5296 55.2963 82.2997 58.0663 84.6897 60.4463C88.4797 64.2263 91.2397 66.9963 90.9697 68.2663C90.0596 71.8805 88.5266 75.3084 86.4397 78.3963C85.0197 80.3963 83.4396 81.7763 81.8196 81.6163H81.6897C80.4248 79.9711 79.3355 78.1981 78.4397 76.3263C77.5297 73.9163 77.2296 71.5463 76.1396 69.3963C75.6396 71.7763 77.5997 78.5963 80.2197 81.4663C76.4397 81.0663 73.5797 80.2363 70.9397 71.5263V71.4363C71.4454 71.4914 71.9565 71.4045 72.4157 71.1855C72.875 70.9665 73.2641 70.624 73.5396 70.1963C72.2197 70.1963 71.6797 70.0963 70.7197 70.7463C69.8379 68.0058 68.543 65.416 66.8796 63.0663C67.3096 63.3463 67.8796 63.2563 68.7496 63.0663C68.409 62.6557 67.9911 62.316 67.5196 62.0663C65.8196 61.2863 67.3196 61.8763 66.2096 61.9563C66.2096 62.0763 66.2897 62.1963 66.3297 62.2963C65.0165 60.5556 63.4331 59.0364 61.6396 57.7963C62.1096 57.1763 62.5596 56.5163 62.9896 55.7963L64.5496 57.3963C64.6196 56.2363 65.4296 57.8863 64.2296 55.9463L63.4396 55.1063V55.0963ZM83.1396 62.2263C81.7096 63.3863 80.5796 64.2263 80.4096 65.7063C81.5296 65.2963 83.1896 63.9463 83.1396 62.2263ZM85.8297 67.6763C84.4497 71.9863 83.7496 70.7563 83.9896 73.0063C85.5496 71.1863 86.9897 69.5063 85.8297 67.6763ZM75.6396 67.8363L73.5497 65.3963C73.3697 66.9163 73.5497 67.8463 75.6497 67.8863L75.6396 67.8363ZM70.8697 57.6863L69.2296 58.6863C70.3696 59.5563 70.0996 59.3163 71.4996 58.8263C71.3896 57.7063 72.0097 58.6863 70.8697 57.6863Z" fill="#C7E6EE"/>
<path fill-rule="evenodd" clip-rule="evenodd" d="M85.6699 41.8763C81.6699 36.3863 73.8699 22.6963 69.5599 21.0863C71.0499 23.3863 73.4699 25.6463 75.2499 28.2063C79.2499 33.8963 84.0599 42.0163 88.5399 46.8563C89.0376 47.4273 89.5721 47.9651 90.1399 48.4663C90.4203 48.7012 90.7295 48.8995 91.0599 49.0563C91.1299 49.1063 91.2599 49.0563 91.3899 49.1863C91.4531 49.2447 91.5341 49.28 91.6199 49.2863C91.1954 49.3462 90.7645 49.3462 90.3399 49.2863C88.6791 49.0306 87.0833 48.4568 85.6399 47.5963C84.1163 46.6751 82.6891 45.603 81.3799 44.3963C80.8051 43.8078 80.326 43.133 79.9599 42.3963C80.9564 43.0878 82.1844 43.3607 83.3799 43.1563C82.7821 42.6306 82.1077 42.199 81.3799 41.8763C79.8299 41.1263 79.8099 41.2063 79.3799 41.2963C79.0199 40.5863 78.6399 39.7863 78.2299 38.9363C76.1399 34.4863 73.2199 28.4663 68.1399 23.9063C62.9399 19.2263 56.5299 19.6063 52.4499 20.5563L53.1999 19.7363L54.4799 17.9963C52.0299 18.2863 52.6499 19.2963 51.4799 20.4163C51.6597 20.4443 51.8232 20.5367 51.9399 20.6763C50.8097 20.9606 49.703 21.3317 48.6299 21.7863C44.3837 20.9476 40.2081 19.7841 36.1399 18.3063C36.9305 17.8963 37.5505 17.2197 37.8899 16.3963C36.8085 16.5198 35.8198 17.0663 35.1399 17.9163C32.1431 16.7602 29.2987 15.2423 26.6699 13.3963C28.8978 13.0224 31.1754 13.0596 33.3899 13.5063C32.3899 15.1663 32.9299 14.0363 33.2499 15.2963C34.4799 13.9363 34.6799 14.8063 33.4599 13.5163C35.7202 13.9583 37.9193 14.6701 40.0099 15.6363C49.0599 19.7363 52.5899 14.6363 55.0099 11.1863C55.3499 10.6963 55.6699 10.2463 55.9299 9.91631C56.5742 8.99339 56.8457 7.86102 56.6899 6.74631C60.4116 5.15082 64.5997 5.02574 68.4099 6.39631C73.4099 8.09631 77.7099 11.8163 80.9199 15.5863C84.1299 19.3563 88.2399 21.8663 91.9199 24.1263C95.1799 26.1263 98.0099 27.8863 99.0899 29.7863C100.368 32.1406 101.158 34.7292 101.41 37.3963C101.469 38.0345 101.489 38.6757 101.47 39.3163C100.36 35.7963 92.3799 25.7963 88.6499 25.8963C91.0894 27.8308 93.3792 29.9468 95.4999 32.2263C97.6399 34.6663 99.4399 37.5763 101.44 39.8263C101.414 41.0157 101.068 42.1761 100.44 43.1863C98.9978 45.0873 97.1972 46.6875 95.1399 47.8963C94.0757 48.5613 92.9002 49.0288 91.6699 49.2763C89.8299 46.7463 87.5699 44.5663 85.6699 41.8763ZM67.1399 13.2763C68.7299 14.3363 68.0799 14.0263 69.4399 13.2763C67.4399 12.2763 69.0199 12.4263 67.1399 13.2763ZM76.9299 34.9563C78.0199 35.1663 78.2799 33.9563 78.2799 33.9563C76.1799 34.1463 76.9499 34.8663 76.9299 34.9563ZM39.6899 19.1363C42.7499 20.6463 48.4299 18.7463 52.1399 17.6363C55.1399 16.7263 61.7599 15.3763 64.4399 13.9763C61.8999 13.2963 54.4399 15.9763 51.8899 16.7163C42.4399 19.4363 44.9799 18.1663 39.6899 19.1363ZM59.3699 9.57631C60.0699 9.50631 58.6499 11.4463 60.7699 8.8463C61.135 8.44628 61.3567 7.93616 61.3999 7.39631C59.8199 7.79631 59.9299 7.92631 59.3999 9.57631H59.3699ZM64.3699 8.85631C64.9783 8.72128 65.533 8.40883 65.9638 7.95847C66.3946 7.50812 66.6821 6.94011 66.7899 6.32631C65.9699 6.46631 65.9299 6.3263 64.9899 7.3763L64.4099 8.53631C64.4599 8.66631 64.4099 8.74631 64.4099 8.85631H64.3699ZM67.8999 20.0363C67.0599 17.5163 66.3499 18.6263 66.1699 18.5963C66.7399 20.9963 67.5999 20.0163 67.8999 20.0363ZM92.4999 38.2563C92.1835 38.6897 91.9589 39.1831 91.8399 39.7063C93.2399 39.5863 93.5399 38.8863 93.7499 37.5363C93.5299 37.5363 93.7499 36.6863 92.4999 38.2563ZM88.2299 32.1663C87.4999 33.3963 87.3599 33.3263 88.2299 34.5463C88.8899 33.5463 89.0999 33.2363 88.2299 32.1663ZM84.5799 29.7163C85.4799 28.1863 85.4699 29.1063 84.7599 27.4863C83.9599 28.6963 83.9699 27.8563 84.6099 29.7163H84.5799Z" fill="#C7E6EE"/>
<path fill-rule="evenodd" clip-rule="evenodd" d="M49.0196 61.5663C49.5296 63.5063 51.5896 70.4963 56.2196 75.9163C60.6496 81.1063 57.5696 85.4563 55.2196 88.7463C55.0196 89.0263 54.8196 89.3063 54.6096 89.6163C54.0887 90.146 53.4128 90.4963 52.6796 90.6163C50.3796 85.2463 44.0896 72.7163 42.2796 70.8463L42.7096 72.4763C44.7096 76.5363 49.0296 86.3363 51.9496 90.7763C49.7751 91.074 47.5728 91.1109 45.3896 90.8863C41.2196 90.5363 37.1396 89.6263 36.0896 88.8863C35.5396 88.4663 35.1796 86.9563 34.7896 84.8863C36.2896 85.8863 36.9196 85.8863 38.7896 84.9763C38.1748 84.6591 37.4977 84.4812 36.8063 84.4552C36.115 84.4293 35.4264 84.556 34.7896 84.8263C34.6996 84.3263 34.6096 83.8263 34.5096 83.2363C34.0133 79.8296 33.1826 76.4801 32.0296 73.2363C32.0996 73.2363 32.2396 73.2363 32.1696 73.4863C32.6196 73.4863 31.8396 74.4163 33.4396 73.0663C35.2996 71.4963 33.5396 73.1863 33.9696 72.0663C33.5896 72.1463 33.9696 71.4963 32.5996 72.6563C32.382 72.8196 32.184 73.0075 32.0096 73.2163C31.7496 72.5663 31.4796 71.9263 31.1696 71.2963L31.4496 71.1163C31.9863 70.7811 32.4574 70.3507 32.8396 69.8463C33.3696 70.2963 32.6196 70.0763 33.7196 69.6763C35.2496 69.1263 33.9096 69.6763 34.2496 69.0463C33.9622 68.9871 33.6718 68.9437 33.3796 68.9163C35.3796 64.5063 30.8596 56.9963 27.1996 50.8463C26.6796 49.9563 26.1996 49.1063 25.6996 48.2963C25.7577 47.1165 25.5669 45.9376 25.1396 44.8363C24.8965 45.3854 24.7251 45.9635 24.6296 46.5563L24.2796 45.8963C23.5896 44.5163 22.7996 43.0963 21.9696 41.5963C19.6596 37.4063 16.9696 32.5963 15.5796 27.5963C19.5796 30.8463 28.5796 38.6663 35.4096 47.2763C35.0049 47.5285 34.5576 47.7047 34.0896 47.7963C33.9996 47.7963 33.6896 47.7163 33.7096 47.7963C33.7296 47.8763 33.4496 47.7963 33.3196 47.7963C34.4496 49.0663 34.7596 49.0663 36.0196 48.0263C36.2196 48.2963 36.4296 48.5663 36.6296 48.8463C41.1396 54.9263 43.7496 58.2763 46.1396 60.0763C46.9924 60.7344 47.9535 61.2386 48.9796 61.5663H49.0196ZM42.3996 66.1363C43.4496 65.1363 44.7796 64.2163 45.0496 63.1363C44.7054 63.139 44.3658 63.2153 44.0536 63.3602C43.7414 63.5051 43.4638 63.7152 43.2396 63.9763C41.6996 65.4163 42.3996 65.8363 42.3996 66.1663V66.1363ZM42.3996 78.5763C42.3707 78.3372 42.3707 78.0954 42.3996 77.8563C42.0885 78.0032 41.8097 78.2105 41.5796 78.4663C41.5796 78.5163 41.3696 78.6263 41.3996 78.7463C41.4296 78.8663 41.2996 78.9463 41.2496 79.0463C41.8596 78.9863 41.4796 79.3263 42.2496 78.6863L42.3896 78.5763H42.3996ZM38.0696 67.1063C37.5196 66.2963 37.0696 66.5063 37.0696 66.4663C36.9996 68.0363 36.8996 67.4663 38.4596 68.5563C38.5196 67.5563 38.9096 68.2363 38.1096 67.1063H38.0696ZM42.3796 78.5763C42.5196 79.5763 43.6596 77.5763 42.3796 78.5763V78.5763ZM35.0096 78.5763C36.5096 77.5763 35.2096 78.4363 35.1596 77.5763L34.1596 78.6363C34.9296 78.7563 34.0596 79.1963 35.0496 78.5763H35.0096ZM24.5396 42.5763C24.2396 40.8063 24.2896 42.1963 23.8996 41.9763C23.0696 42.6863 22.8996 42.6963 24.3196 43.4263C24.4396 43.1463 24.6196 43.0363 24.5396 42.5763ZM36.1396 59.1463C38.1396 59.2563 37.0196 58.7763 37.1396 58.3363C36.8996 58.3863 36.7196 57.2363 36.1396 59.1463ZM44.9696 84.3963L44.0596 85.1363C44.1696 85.1363 44.3496 85.1363 44.3996 85.1363L44.8596 84.7663C44.9696 84.8363 44.9296 84.5463 44.9696 84.4363V84.3963ZM52.1396 75.4863L51.2396 77.6363C52.6996 77.3563 52.4396 76.5763 52.1396 75.4863ZM31.1396 55.7663C32.5896 54.9463 32.1396 55.4763 32.1396 54.1063C30.8896 54.3963 31.1396 54.3963 31.1896 55.7663H31.1396Z" fill="#C7E6EE"/>
<path fill-rule="evenodd" clip-rule="evenodd" d="M15.3297 82.3063C16.6197 84.8463 21.7097 94.7163 24.8197 99.4063C24.944 99.5877 25.0479 99.7822 25.1297 99.9863C25.7397 101.386 25.2097 102.886 24.1297 104.316C22.7596 105.991 21.1246 107.43 19.2897 108.576C17.855 109.531 16.3469 110.37 14.7797 111.086C14.3454 111.247 13.882 111.316 13.4197 111.286L13.1997 110.516C13.1997 110.436 12.6997 109.516 12.5897 109.226C12.2497 108.516 11.8997 107.696 11.5897 106.966C10.9097 105.286 10.3697 103.906 9.75971 102.156C8.75971 99.1563 8.17971 94.7663 7.23971 92.7663C6.03971 96.3963 9.93971 106.536 12.7197 111.216C11.53 111.011 10.3664 110.675 9.24971 110.216C7.24582 109.421 5.32076 108.44 3.49971 107.286C3.42421 107.222 3.34007 107.168 3.24971 107.126C2.60311 106.736 2.00553 106.269 1.46971 105.736C1.13971 105.286 0.809707 100.996 0.399707 95.2363C-0.050293 88.7063 -0.600293 80.3263 -1.80029 73.0063C-1.00029 74.1763 -0.180293 75.2163 0.569707 76.1563L1.56971 77.5063C4.56971 81.5063 6.81971 81.7063 10.7297 82.0963C11.4897 82.1663 12.3097 82.2463 13.2297 82.3663H13.4097C11.4097 83.6563 8.50971 85.2863 8.20971 87.4363L14.8097 82.3963C14.9841 82.3821 15.1577 82.3587 15.3297 82.3263V82.3063ZM4.74971 104.396L5.80971 103.396C5.44359 103.211 5.05786 103.066 4.65971 102.966C4.33849 102.849 4.00128 102.782 3.65971 102.766C3.94971 103.966 3.65971 103.446 4.73971 104.436L4.74971 104.396ZM2.87971 99.0363C3.64971 99.9063 4.65971 98.1863 4.71971 98.0363C3.33971 97.7963 3.38971 97.9163 2.87971 99.0363ZM5.18971 86.2663C5.18971 84.7363 5.18971 85.9763 4.90971 84.6563C3.83971 86.2563 3.80971 86.1063 4.82971 87.8763C5.30971 86.6663 5.20971 87.6863 5.18971 86.2663ZM2.36971 93.2663C5.06971 93.1463 3.30971 92.7063 3.36971 92.4263C2.78971 92.5163 3.06971 92.3463 2.48971 92.7463C2.48971 92.7463 2.34971 92.8963 2.38971 92.9863C2.42971 93.0763 2.38971 93.1763 2.33971 93.2663H2.36971ZM11.9297 96.2663C12.3 95.2447 12.7724 94.2631 13.3397 93.3363C13.3397 93.3363 12.4897 92.3363 11.4297 94.0563C10.8897 94.9563 11.2597 95.1563 11.9297 96.2663ZM17.7097 101.696C16.1997 102.286 16.4397 101.826 16.0697 103.426C16.1797 103.426 16.0697 104.326 17.2897 102.756C17.8997 101.966 17.5897 102.136 17.7097 101.666V101.696Z" fill="#C7E6EE"/>
<path fill-rule="evenodd" clip-rule="evenodd" d="M90.3996 122.256C90.8474 122.072 91.2192 121.741 91.4537 121.318C91.6882 120.894 91.7714 120.403 91.6896 119.926C90.6896 120.096 90.8096 119.666 90.2796 120.826C89.4396 122.656 90.3896 122.236 90.3996 122.256Z" fill="#C7E6EE"/>
<path fill-rule="evenodd" clip-rule="evenodd" d="M82.1396 123.086C84.1396 123.826 87.0596 124.416 88.7496 124.086C88.4896 123.786 88.6496 123.726 87.8396 123.316L85.2396 122.676C81.9596 122.236 82.6396 122.826 82.1396 123.086Z" fill="#C7E6EE"/>
<path fill-rule="evenodd" clip-rule="evenodd" d="M93.5796 122.666L98.5096 125.136C98.1296 123.896 98.2496 123.886 96.5096 122.946C94.7696 122.006 94.4496 122.176 93.5796 122.666Z" fill="#C7E6EE"/>
<path fill-rule="evenodd" clip-rule="evenodd" d="M95.7496 118.396C94.4896 116.206 91.6596 116.696 90.0596 117.566L95.7496 118.396Z" fill="#C7E6EE"/>
</svg>
