<svg width="375" height="812" viewBox="0 0 375 812" fill="none"
    xmlns="http://www.w3.org/2000/svg">
    <path fill-rule="evenodd" clip-rule="evenodd" d="M334.635 682.343C333.774 684.654 333.474 685.172 330.872 685.441C330.986 684.811 331.279 684.227 331.714 683.757C334.439 680.37 334.395 682.336 334.648 682.335L334.635 682.343ZM317.061 667.616C314.454 673.439 313.4 676.987 314.736 681.658C315.49 684.076 316.491 686.41 317.724 688.623C318.977 687.523 320.41 686.646 321.961 686.032C323.986 685.298 322.219 685.756 323.992 686.22L318.482 689.999C320.65 693.755 323.511 698.489 327.383 704.599C327.768 705.266 328.168 705.96 328.546 706.613C331.707 705.804 329.649 706.356 331.169 706.695L329.264 707.794C341.905 728.997 350.28 755.13 351.589 759.346C354.042 760.857 356.639 762.123 359.34 763.125C359.538 763.197 359.719 763.307 359.874 763.448C360.029 763.59 360.155 763.761 360.244 763.952C360.333 764.142 360.383 764.348 360.392 764.558C360.402 764.768 360.369 764.978 360.298 765.176C360.226 765.373 360.116 765.554 359.974 765.709C359.832 765.864 359.661 765.99 359.471 766.079C359.28 766.168 359.074 766.218 358.864 766.227C358.654 766.237 358.444 766.205 358.247 766.133C343.998 760.934 333.575 748.538 324.922 738.295C322.861 735.856 320.95 733.585 319.149 731.595C317.656 729.953 316.016 727.961 314.256 725.73C314.155 725.652 314.059 725.568 313.967 725.48C313.387 724.726 312.785 723.967 312.176 723.194C303.309 711.985 292.029 697.725 284.607 703.19C284.022 703.527 283.494 703.995 282.919 704.382L282.782 704.46C279.454 706.709 275.725 708.734 272.033 710.666C265.626 714.148 259.457 717.51 256.396 721.509C256.348 721.55 256.292 721.582 256.233 721.603C256 721.955 255.768 722.307 255.557 722.664C256.61 723.135 257.623 723.691 258.585 724.327C255.849 724.836 255.667 724.96 254.812 724.328L254.651 724.929C254.246 726.615 253.83 728.125 253.456 729.52C251.837 735.389 250.878 738.882 254.476 744.987C254.652 744.188 255.08 743.466 255.696 742.928C256.312 742.389 257.084 742.062 257.9 741.994C257.373 743.705 256.6 745.33 255.606 746.819C255.913 747.35 256.235 747.908 256.557 748.466C257.782 750.588 259.217 752.917 260.923 755.306L263.536 752.51C264.028 754.965 263.911 756.302 261.598 756.223C266.985 763.417 275.413 770.725 291.082 772.726C300.089 773.78 308.934 775.929 317.419 779.128C320.22 776.186 320.142 778.282 320.683 778.495C320.292 779.018 319.857 779.505 319.383 779.953C322.518 781.217 325.548 782.725 328.446 784.463C331.817 782.116 335.381 780.058 339.1 778.312C341.005 777.339 342.862 776.376 344.645 775.347C350.631 771.89 357.736 778.383 365.683 785.642C372.341 791.739 379.648 798.424 386.628 799.547C386.835 799.58 387.034 799.653 387.212 799.763C387.391 799.872 387.547 800.016 387.67 800.186C387.793 800.356 387.882 800.548 387.931 800.752C387.98 800.956 387.988 801.168 387.955 801.375C387.922 801.582 387.849 801.781 387.739 801.959C387.63 802.138 387.486 802.294 387.316 802.417C387.146 802.54 386.954 802.629 386.75 802.678C386.546 802.727 386.334 802.735 386.127 802.702C380.144 801.766 374.396 797.592 368.932 792.873C368.378 794.559 367.348 796.049 365.966 797.162C365.33 795.715 364.964 795.835 366.321 793.691C366.673 792.993 367.193 792.394 367.835 791.946C366.364 790.655 364.925 789.327 363.503 788.025C356.472 781.598 350.187 775.866 346.241 778.144C344.527 779.134 342.54 780.154 340.539 781.182L339.614 781.716L345.253 786.298C342.212 786.53 338.716 783.523 337.866 782.617C332.428 785.484 327.35 788.597 325.957 792.721C331.176 792.648 337.724 795.38 340.357 798.432L325.673 794.21C325.579 795.075 325.636 795.951 325.843 796.797C326.972 801.896 328.149 806.26 329.216 809.49C330.188 812.43 331.013 814.33 331.669 814.713C332.614 815.049 333.591 815.288 334.584 815.425C335.7 814.984 336.893 814.769 338.093 814.792C339.293 814.816 340.477 815.077 341.575 815.562C340.908 815.82 340.149 816.077 339.355 816.336C346.921 817.734 354.306 819.982 361.367 823.039C361.353 821.759 361.982 821.214 363.347 819.9C363.413 822.184 363.33 822.323 362.394 823.498C362.937 823.747 363.466 824.004 364.003 824.274C369.024 826.904 374.477 828.61 380.101 829.312C384.303 829.945 388.597 829.259 392.393 827.35C394.516 826.124 396.665 822.525 398.241 819.347L398.397 819.021C399.765 816.236 400.656 813.853 400.662 813.831C400.816 813.435 401.12 813.115 401.509 812.943C401.898 812.772 402.34 812.761 402.736 812.915C403.133 813.068 403.452 813.373 403.624 813.762C403.796 814.151 403.806 814.593 403.653 814.989C403.653 814.989 403.246 816.076 402.54 817.681C406.081 816.399 412.319 812.435 417.213 800.139C418.642 796.52 419.917 793.135 421.113 789.833C426.343 775.638 430.725 763.746 445.873 745.331C458.404 730.114 456.58 719.193 454.221 705.334C452.932 698.634 452.183 691.841 451.981 685.02C451.682 662.696 455.463 653.093 458.036 646.583C458.439 645.552 458.81 644.594 459.111 643.731L459.179 643.692C460.072 640.872 457.952 635.691 454.934 630.903C451.915 626.115 447.994 621.775 445.398 620.861C443.864 620.627 442.295 620.897 440.926 621.629L440.306 625.615C438.417 632.148 438.343 646.85 438.373 653.69C438.398 658.32 439.836 684.503 438.847 686.562C436.046 679.888 434.753 632.776 440.482 621.74C438.826 622.497 437.228 623.371 435.697 624.357C430.309 627.772 425.405 631.898 421.117 636.621C420.151 637.777 421.303 641.249 423.014 646.411C425.835 653.935 427.755 661.765 428.736 669.74C430.901 668.871 431.187 668.833 432.679 670.693C430.552 671.377 430.02 671.43 428.818 670.636C429.183 675.2 429.136 679.787 428.676 684.343C428.989 684.507 429.451 684.585 429.792 683.698L431.462 687.251C430.106 686.946 431.576 690.088 429.332 685.887C429.002 685.315 428.774 684.921 428.625 684.662C427.669 693.192 425.446 701.532 422.029 709.406C424.434 712.063 426.705 714.834 428.591 717.283C429.379 712.583 431.055 706.626 432.059 705.411C432.797 707.852 432.086 712.181 431.259 714.709C430.786 716.089 430.444 717.665 429.998 719.156L430.434 719.721C433.359 723.656 429.464 729.134 424.2 736.545C416.378 747.538 405.159 763.268 410.193 782.295C410.306 782.711 410.249 783.154 410.034 783.528C409.82 783.902 409.466 784.176 409.05 784.288C408.634 784.401 408.19 784.344 407.816 784.129C407.442 783.915 407.169 783.561 407.056 783.145C401.687 762.659 413.363 746.212 421.542 734.705L423.165 732.426C422.327 731.616 421.663 730.643 421.214 729.567C420.764 728.492 420.539 727.336 420.551 726.17L424.286 730.817C427.237 726.501 429.007 723.284 427.811 721.652C425.052 717.905 422.096 714.307 418.957 710.872C418.023 709.851 417.056 708.867 416.106 707.946C414.267 706.108 412.232 704.479 410.036 703.087C409.817 703.021 409.616 702.908 409.446 702.756C408.425 702.136 407.263 701.789 406.07 701.748L405.06 704.273C404.398 705.671 404.127 706.208 403.598 707.366L400.125 720.456C399.532 722.885 398.611 724.432 398.047 726.881C396.455 733.769 394.138 745.248 389.695 751.786C389.366 748.075 390.194 748.722 391.388 745.511C394.877 736.095 398.935 709.187 405.489 701.811L405.205 701.885C404.211 702.205 403.261 702.445 402.227 702.697C395.694 704.328 386.206 706.685 387.157 722.283C388.171 739.06 382.227 748.152 380.213 750.729C380.856 752.582 381.611 754.394 382.475 756.154C382.658 756.53 382.684 756.963 382.548 757.357C382.412 757.752 382.125 758.077 381.749 758.26C381.374 758.443 380.941 758.47 380.546 758.334C380.151 758.198 379.826 757.91 379.643 757.535C369.81 737.36 374.366 711.598 377.569 694.238C378.051 691.492 378.512 688.958 378.864 686.741C375.728 684.452 369.686 678.198 369.432 677.002C372.995 677.14 376.766 681.693 379.058 685.505C379.661 681.365 379.842 678.412 379.143 677.201C378.444 675.99 377.724 674.555 376.887 672.916C373.027 665.256 367.412 654.148 358.462 656.431L357.872 656.572C357.997 657.008 358.203 657.742 358.584 658.937L363.314 699.746C359.814 693.966 358.373 665.263 356.39 656.865C352.531 657.49 348.643 657.918 344.74 658.149C340.753 658.437 336.597 658.75 332.741 659.362C332.78 660.119 332.456 660.47 332.145 661.157L331.474 659.585C324.908 660.782 319.358 662.952 317.296 667.771L317.061 667.616ZM276.232 721.74C276.931 723.894 278.114 722.141 275.364 724.763C274.217 722.776 274.867 723.054 276.232 721.74ZM323.789 669.465C323.915 671.097 323.838 669.926 323.432 671.267C319.486 665.563 320.752 664.614 321.891 662.596C322.455 664.357 322.941 666.017 323.364 667.66C323.542 668.253 323.684 668.855 323.789 669.465ZM323.431 675.695C325.433 676.806 325.399 675.302 325.07 678.377C323.948 677.973 324.796 678.97 323.729 677.5C322.472 675.795 323.412 676.794 323.454 675.736L323.431 675.695ZM341.234 722.745C341.048 724.34 342.51 722.19 340.604 724.796C339.573 726.153 339.716 725.49 338.943 725.972C338.769 724.258 339.023 722.969 341.328 722.781L341.234 722.745ZM324.359 752.843C323.745 749.424 325.707 745.751 328.632 743.119C329.029 745.158 329.01 744.37 328.283 746.096L324.39 752.897L324.359 752.843ZM293.994 755.334C294.535 758.941 291.079 764.582 290.081 768.479C289.365 771.323 290.218 769.941 288.703 772.376C287.668 767.441 291.387 757.982 294 755.313L293.994 755.334ZM272.222 743.358C275.838 742.395 277.407 742.378 279.785 744.235C277.623 745.392 278.663 745.119 275.884 744.673C274.543 744.643 273.25 744.172 272.206 743.331L272.222 743.358ZM350.923 717.876C353.213 723.666 356.837 729.502 359.259 735.614C363.743 746.995 366.689 757.721 370.604 769.122C372.574 774.86 377.1 783.295 376.904 786.475C370.392 776.265 366.65 763.059 363.198 751.99C361.476 746.525 359.461 740.741 357.304 735.182L350.964 720.084C350.603 718.297 350.796 719.165 351.017 717.913L350.923 717.876ZM386.599 767.76C389.929 771.516 397.076 785.75 399.431 790.866C402.643 797.811 406.087 806.762 401.671 811.18L399.92 813.08C399.556 811.476 399.299 812.35 400.244 810.97C408.961 800.93 385.968 776.47 386.599 767.76ZM437.145 698.194C436.526 695.394 436.094 692.886 437.98 690.999C439.155 694.385 439.247 695.111 437.145 698.194ZM293.334 704.7L283.29 717.248C282.854 713.98 289.448 705.039 293.334 704.7ZM341.43 777.257C341.026 775.769 341.174 774.184 341.846 772.796C342.518 771.408 343.669 770.309 345.087 769.703C344.639 772.527 343.367 775.155 341.43 777.257ZM305.604 770.384L304.179 774.2C302.273 771.527 302.694 771.628 305.604 770.384ZM346.748 816.258C347.055 815.5 345.218 814.801 349.916 814.266C349.916 814.266 351.401 816.492 346.748 816.258ZM375.767 827.461C375.724 825.218 374.98 824.559 379.088 821.116C379.086 823.186 379.792 823.812 375.767 827.461ZM409.226 809.34C409.858 806.129 410.811 802.99 412.071 799.969C414.16 795.135 418.296 777.852 419.226 772.109L423.846 752.932C425.138 747.596 426.758 739.876 430.175 734.764C429.645 738.096 428.832 741.375 427.744 744.568L423.132 763.195C422.118 770.112 417.834 785.158 416.107 791.689C414.551 797.667 413.107 804.088 409.195 809.286L409.226 809.34ZM439.596 752.402C437.45 751.827 435.729 750.48 437.508 747.874L439.596 752.402ZM373.806 697.336C370.269 696.584 372.198 694.835 372.234 694.614C374.655 696.011 373.727 696.383 373.806 697.336ZM444.607 711.465C447.448 710.949 446.702 710.945 449.167 713.078C446.092 714.037 447.316 714.146 444.607 711.465ZM439.621 729.946C438.688 729.305 439.289 732.514 438.107 728.171C437.427 725.77 438.139 727.536 438.455 726.356C439.563 727.113 438.659 724.006 439.805 727.971C440.757 731.286 439.913 727.655 439.597 729.905L439.621 729.946ZM442.913 724.744C442.08 723.301 442.012 724.284 441.829 722.176C441.71 720.43 441.68 721.918 442.51 720.622C444.634 722.353 443.687 723.226 442.913 724.744ZM392.239 717.353C391.429 714.192 391.84 712.359 394.292 710.635C394.56 713.582 394.412 715.21 392.239 717.353ZM449.32 737.318C448.436 736.806 447.689 736.089 447.141 735.227C446.593 734.366 446.261 733.385 446.172 732.368C446.987 732.587 446.948 731.104 448.887 734.338C450.144 736.515 449.514 736.335 449.32 737.318ZM451.765 661.614C448.485 662.909 449.669 663.042 447.363 660.274C449.046 660.046 448.468 659.926 449.807 660.296C451.59 660.808 450.323 660.342 451.779 661.607L451.765 661.614ZM432.934 657.719C430.124 658.852 431.302 658.662 428.689 657.594C428.809 657.413 428.939 657.241 429.081 657.077C429.298 656.779 429.592 656.546 429.933 656.404C430.273 656.262 430.646 656.216 431.01 656.272C433.282 656.593 431.366 655.976 432.934 657.719ZM452.766 649.208C452.442 649.903 455.373 649.952 450.794 650.819C451.025 649.868 447.723 648.455 452.766 649.208ZM449.866 637.711C447.313 637.154 445.283 636.058 445.783 632.304C447.235 633.625 449.799 636.118 449.866 637.711ZM426.085 642.588C424.467 643.178 424.934 642.762 423.314 642.156L428.171 640.386C428.122 640.523 429.623 641.362 426.085 642.588ZM402.619 767.038C400.054 764.292 396.446 761.531 396.364 757.242L402.234 764.267C403.42 766.321 402.774 765.515 402.66 767.015L402.619 767.038ZM407.592 745.172C405.404 743.079 406.965 742.106 407.124 741.941L410.555 745.403C408.909 746.008 409.385 746.895 407.647 745.267L407.592 745.172ZM406.506 714.758C404.499 713.105 405.17 712.79 405.109 711.773C407.121 712.619 408.879 713.974 410.209 715.705C408.432 715.769 408.364 716.28 406.506 714.758ZM400.462 733.922C402.877 733.454 403.719 734.001 405.738 735.739C401.628 736.098 402.094 736.717 400.462 733.922ZM385.443 756.708C385.421 753.999 385.662 753.788 388.049 751.575C388.034 754.251 388.145 755.511 385.443 756.708ZM371.341 717.137C369.09 717.039 366.645 716.419 367.292 712.544L371.341 717.137ZM361.786 711.115C363.907 712.557 363.126 711.611 363.044 713.89C362.33 713.595 362.799 714.848 361.673 712.867C360.314 710.513 361.278 712.968 361.771 711.087L361.786 711.115ZM307.362 741.629C309.894 742.526 309.474 742.333 309.16 744.963C308.285 744.453 309.008 746.176 307.629 743.38C307.629 743.38 307.395 741.937 307.362 741.629ZM297.123 729.236C297.781 729.9 298.25 730.727 298.482 731.632C298.715 732.537 298.702 733.488 298.446 734.386C295.886 732.907 296.534 731.39 297.123 729.236ZM298.212 748.563C298.942 751.335 299.378 751.21 296.521 751.1C296.117 749.773 296.979 749.475 298.212 748.563ZM366.572 744.164C368.671 744.657 370.677 746.656 373.157 748.689C369.669 749.215 368.426 747.973 366.572 744.164ZM386.899 785.657C387.85 786.142 387.341 785.51 388.133 786.631L388.07 787.684C384.172 786.306 386.923 785.697 386.899 785.657ZM391.547 799.772C393.536 799.132 393.008 798.657 395.015 801.254C392.434 801.528 393.403 801.949 391.547 799.772ZM317.479 764.525L321.213 760.12C321.35 761.243 321.114 762.38 320.541 763.356C318.248 767.02 317.631 764.601 317.479 764.525ZM348.361 790.708C349.652 791.35 350.779 792.28 351.654 793.426C352.529 794.571 353.13 795.903 353.411 797.317C351.196 796.183 348.466 793.75 348.361 790.708ZM367.658 812.222C367.658 809.991 368.045 809.405 370.229 809.196C369.803 811.129 372.014 808.329 369.338 811.361C367.909 813.003 368.426 811.888 367.658 812.222ZM387.97 823.899C388.266 823.092 385.637 823.975 389.432 821.875C391.772 820.524 390.228 821.651 391.467 821.88C389.979 823.954 390.703 823.699 387.97 823.899ZM348.015 678.464C346.061 681.551 345.26 680.635 343.306 678.225L347.473 678.341C347.417 678.119 347.812 678.363 347.976 678.396L348.015 678.464Z" fill="#3C648C"/>
    <path fill-rule="evenodd" clip-rule="evenodd" d="M337.124 649.103C339.174 647.502 338.199 647.194 340.475 649.472C337.768 650.345 339.185 650.38 337.124 649.103ZM331.704 656.151C335.844 655.466 340.204 655.162 344.471 654.821C348.882 654.622 353.271 654.083 357.6 653.21C353.327 648.017 349.556 642.431 346.336 636.527C344.979 637.051 343.563 637.406 342.12 637.583C340.907 637.872 339.68 638.096 338.443 638.254C336.134 638.372 336.884 638.193 335.654 637.633C336.205 636.734 335.176 637.183 336.678 636.516L341.372 635.91C342.744 635.556 344.135 635.279 345.538 635.083C341.921 628.409 338.978 621.835 336.435 616.174C332.439 607.178 329.504 600.618 327.139 600.26C320.352 599.454 313.477 599.838 306.822 601.395C302.491 602.535 299.019 604.377 298.26 607.21L298.202 607.424C300.18 610.684 302.501 613.723 305.124 616.49C308.655 619.622 312.517 621.692 315.558 624.98C311.123 624.274 300.713 616.424 297.498 610.008C295.708 616.774 295.232 622.202 308.463 632.487L308.534 632.609C309.231 630.864 310.511 629.091 312.37 628.979C311.55 631.267 311.326 632.23 309.522 633.472C313.642 636.793 317.235 640.719 320.181 645.115C319.978 644.198 320.519 643.251 321.417 641.916C321.869 642.769 322.154 643.7 322.258 644.66C322.468 648.167 322.501 645.082 321.58 646.974C321.404 646.842 321.239 646.694 321.089 646.532C323.2 649.941 324.765 653.659 325.728 657.551C327.09 657.146 328.513 656.814 329.981 656.529L328.386 652.823C330.41 653.469 328.121 650.981 330.652 654.327C330.652 654.327 331.316 655.667 331.582 656.221L331.704 656.151ZM332.406 617.647C329.48 619.336 327.376 620.751 324.707 620.024C326.142 618.361 329.543 616.397 332.406 617.647ZM324.73 609.506C316.424 609.041 318.072 611.046 314.369 609.157C318.517 607.669 322.407 606.331 324.73 609.506ZM317.749 626.889L320.647 632.129C317.937 631.425 316.427 630.538 317.749 626.889ZM332.038 641.771L329.223 643.904C328.481 641.393 328.722 641.998 330.539 639.897C332.382 640.828 331.098 639.139 332.065 641.755L332.038 641.771Z" fill="#3C648C"/>
    <path fill-rule="evenodd" clip-rule="evenodd" d="M368.927 626.731C375.759 637.119 394.078 659.579 394.022 668.029C391.054 663.956 388.768 658.363 385.539 653.588C378.387 643.022 367.661 629.44 362.255 618.537C361.611 617.299 361.038 616.024 360.541 614.719C360.335 614.082 360.199 613.425 360.135 612.759C360.064 612.636 360.254 612.4 360.137 612.104C360.103 612.032 360.085 611.953 360.082 611.874C360.08 611.794 360.094 611.714 360.124 611.64C359.725 612.323 359.43 613.062 359.249 613.833C358.619 616.849 358.567 619.957 359.095 622.993C359.659 626.195 360.536 629.335 361.713 632.366C362.35 633.729 363.192 634.987 364.21 636.095C363.669 633.934 364.005 631.646 365.144 629.732C365.645 631.116 365.938 632.567 366.015 634.037C366.288 637.181 366.132 637.162 365.722 637.834C366.709 638.915 367.829 640.101 369.031 641.366C375.35 648.005 383.802 656.895 388.344 668.532C392.971 680.537 388.118 691.267 383.798 697.644C384.26 697.468 384.886 697.233 385.703 696.889L389.526 695.843C387.415 699.855 386.081 698.14 383.416 699.37C383.483 699.041 383.427 698.699 383.26 698.408C382.036 700.163 380.674 701.817 379.186 703.355C377.81 711.253 377.044 719.246 376.897 727.263C378.108 726.164 379.667 725.528 381.301 725.464C380.844 726.357 380.215 727.15 379.449 727.798C378.683 728.446 377.796 728.935 376.84 729.237C376.863 735.117 377.6 740.972 379.034 746.675C381.136 743.126 382.572 739.223 383.27 735.158C379.753 735.791 382.044 735.612 380.103 734.229C383.239 732.999 381.882 732.095 383.283 735.024C384.018 730.86 384.246 726.623 383.961 722.404C382.867 704.168 393.873 701.424 401.485 699.588C402.553 699.333 403.538 699.091 404.27 698.85C406.269 698.374 408.374 698.659 410.174 699.65C415.352 694.317 418.307 687.215 418.442 679.783C418.787 670.168 415.251 660.272 410.879 652.292C406.508 644.312 404.881 635.617 403.455 627.805C402.132 620.895 400.99 614.896 398.439 611.797C395.244 608.032 391.31 604.962 386.882 602.777C385.823 602.253 384.73 601.799 383.612 601.418C388.997 605.656 400.919 625.895 398.302 632.268C396.072 626.299 395.148 622.405 391.941 616.347C389.154 611.08 385.334 606.066 382.786 601.15C380.717 600.432 378.494 600.281 376.347 600.713C372.162 601.906 368.251 603.906 364.833 606.599C362.994 607.993 361.42 609.706 360.188 611.658C363.314 616.475 365.575 621.773 368.963 626.856L368.927 626.731ZM405.806 677.409C405.036 673.971 405.143 675.288 407.357 673.465C407.699 677.64 408.532 674.746 405.806 677.409ZM375.017 646.328C375.148 645.754 375.502 645.255 376 644.94C376.498 644.626 377.1 644.521 377.675 644.648C375.97 648.137 375.243 646.343 375.017 646.328ZM377.756 720.58C377.163 714.337 384.156 705.837 388.506 700.205C392.027 695.65 398.743 685.224 402.862 681.485C402.368 686.287 392.814 697.391 389.92 701.239C379.038 715.668 382.894 712.135 377.756 720.58ZM407.107 693.112C407.679 691.966 403.475 693.105 409.287 691.201C410.214 690.843 411.231 690.797 412.186 691.069C410.461 693.516 410.304 693.244 407.107 693.112ZM411.69 685.024C412.316 684.065 413.215 683.315 414.271 682.871C415.326 682.426 416.491 682.307 417.615 682.528C416.835 683.849 417.078 684.018 414.634 684.939L412.24 685.16C412.122 684.956 411.875 685.062 411.69 685.024ZM394.855 671.576C398.624 674.679 396.26 675.173 396.209 675.493C392.444 672.932 394.697 672.121 394.855 671.576ZM379.756 617.395C378.804 617.654 377.809 617.716 376.832 617.578C377.959 615.258 379.356 615.195 381.803 615.724C381.605 616.074 383.273 616.29 379.756 617.395ZM387.405 628.726C384.813 629.171 384.838 629.465 383.325 627.127C385.515 626.679 386.151 626.493 387.405 628.726ZM389.207 636.593C392.42 636.063 390.843 635.468 393.149 637.765C390.369 638.354 391.877 638.862 389.098 636.53L389.207 636.593Z" fill="#3C648C"/>
    <path fill-rule="evenodd" clip-rule="evenodd" d="M311.053 676.691C308.019 674.578 297.414 666.423 291.203 654.879C285.191 643.837 275.709 646.299 268.534 648.138L266.648 648.61L266.552 648.665C265.275 649.195 264.201 650.121 263.487 651.306C271.201 658.79 288.567 677.808 290.615 682.141L288.099 680.328C282.426 674.242 268.452 660.377 262.74 652.463C260.816 655.988 259.323 659.731 258.292 663.612C256.138 671.005 255.046 678.603 255.578 680.908C255.932 682.118 258.296 683.729 261.577 685.735C260.89 682.504 261.218 681.407 264.023 678.88C264.123 681.254 263.597 684.206 261.665 685.794C262.454 686.281 263.316 686.8 264.199 687.324C269.698 690.413 274.885 694.029 279.685 698.121C279.622 698.012 279.775 697.743 279.352 697.733C279.672 696.968 277.512 697.688 280.899 695.824C284.777 693.585 280.75 695.566 283.053 695.596C282.653 696.19 284.033 695.974 281.123 697.563C280.684 697.855 280.208 698.087 279.707 698.254C280.652 699.105 281.572 700.007 282.459 700.946L282.99 700.64C283.919 699.939 284.968 699.413 286.086 699.089C285.653 697.869 285.543 699.311 286.945 697.685C288.907 695.428 287.138 697.392 288.373 697.206C288.29 697.733 288.173 698.255 288.023 698.768C296.845 698.337 306.836 710.928 315.011 721.285C316.177 722.771 317.319 724.215 318.399 725.551C320.519 726.184 322.477 727.27 324.137 728.733C323.022 728.763 321.907 728.657 320.817 728.419C321.126 728.766 321.414 729.108 321.716 729.442C323.615 731.538 325.547 733.815 327.571 736.221C333.26 742.933 339.719 750.633 347.464 756.411C344.494 747.495 337.049 726.776 326.725 709.46C326.014 709.982 325.413 710.637 324.954 711.39C324.871 711.528 324.85 712.121 324.682 712.018C324.514 711.916 324.505 712.465 324.399 712.69C322.964 709.89 323.18 709.384 325.773 707.905C325.458 707.361 325.144 706.817 324.83 706.273C317.364 694.473 313.32 687.846 311.81 682.495C311.243 680.595 311.011 678.61 311.127 676.63L311.053 676.691ZM298.85 685.061C301.252 683.91 303.721 682.249 305.805 682.496C305.576 683.088 305.22 683.623 304.763 684.062C304.305 684.502 303.757 684.836 303.157 685.042C299.697 686.749 299.426 685.273 298.85 685.061ZM277.498 676.924C277.899 677.122 278.324 677.266 278.763 677.355C278.287 677.776 277.732 678.097 277.13 678.298C277.021 678.361 276.708 678.541 276.532 678.425C276.356 678.309 276.127 678.478 275.917 678.49C276.427 677.488 275.587 677.919 277.181 677.035L277.498 676.924ZM294.365 691.841C295.369 693.329 294.762 693.88 294.759 694.063C292.022 693.157 292.927 693.687 292.097 690.302C293.869 690.857 292.929 689.731 294.365 691.841ZM277.498 676.924C275.91 676.027 280.097 675.424 277.498 676.924V676.924ZM272.575 689.545C275.182 687.587 272.97 689.317 274.379 689.937L271.876 691.037C272.186 689.625 270.85 690.831 272.575 689.545ZM327.543 731.176C330.349 732.894 327.967 731.91 328.138 732.646C326.41 733.644 326.241 733.886 325.926 730.984C326.501 730.943 326.804 730.713 327.527 731.149L327.543 731.176ZM306.758 700.361C307.861 696.93 307.984 699.09 308.813 699.174C308.547 699.563 310.405 700.613 306.758 700.361ZM269.194 668.638L267.33 669.714C267.446 669.538 267.54 669.23 267.606 669.156L268.545 668.614C268.503 668.384 268.976 668.637 269.194 668.638ZM289.221 662.192L284.934 662.308C286.371 659.991 287.533 660.935 289.221 662.192ZM309.289 711.091C311.644 709.169 310.445 709.607 312.813 710.471C311.522 712.541 311.559 712.102 309.289 711.091Z" fill="#3C648C"/>
    <path fill-rule="evenodd" clip-rule="evenodd" d="M253.326 720.904C249.805 717.005 236.199 701.766 230.185 693.391C229.943 693.066 229.68 692.757 229.397 692.467C227.393 690.504 224.467 690.433 221.291 691.342C217.522 692.612 213.98 694.473 210.796 696.857C208.222 698.688 205.8 700.724 203.552 702.944C202.985 703.587 202.563 704.345 202.313 705.165L203.471 706.039C203.541 706.161 204.935 707.57 205.295 707.943C206.294 708.981 207.46 710.121 208.519 711.107C210.934 713.341 212.975 715.211 215.57 717.413C219.96 721.119 227.195 724.979 230.032 727.913C223.09 727.64 208.172 714.246 201.958 706.404C201.527 708.577 201.338 710.791 201.397 713.005C201.441 716.969 201.857 720.92 202.64 724.806C202.698 724.974 202.733 725.15 202.742 725.327C202.985 726.696 203.401 728.029 203.979 729.293C204.521 730.232 211.669 733.562 221.306 738.031C232.218 743.105 246.146 749.632 258 756.431C256.54 754.281 255.282 752.195 254.147 750.292C253.597 749.34 253.086 748.455 252.576 747.571C247.704 739.825 248.821 735.788 250.732 728.824C251.095 727.472 251.499 726.005 251.907 724.354L251.98 724.04C248.46 726.617 243.746 730.518 239.864 729.638L252.889 721.719L253.353 720.889L253.326 720.904ZM208.503 724.559L210.996 723.41C211.066 724.167 211.062 724.928 210.985 725.684C210.977 726.302 210.871 726.914 210.671 727.498C208.793 726.224 209.473 727.12 208.503 724.559ZM216.488 731.288C215.427 729.451 219.111 728.793 219.371 728.771C218.875 731.307 218.711 731.147 216.488 731.288ZM239.862 735.699C242.487 736.759 240.352 735.888 242.453 737.233C238.987 738.018 239.243 738.179 236.864 735.253C239.263 735.228 237.431 734.726 239.862 735.699ZM226.019 735.981C227.998 731.428 227.605 734.738 228.141 734.756C227.6 735.703 228.078 735.337 227.063 736.031C226.982 736.078 226.737 736.219 226.573 736.06C226.408 735.901 226.237 735.982 226.06 735.957L226.019 735.981ZM227.204 717.608C230.092 717.301 228.955 717.94 233.165 717.124C233.165 717.124 234.406 719.274 230.665 719.928C228.757 720.268 228.621 719.53 227.204 717.608ZM221.693 704.136C219.678 706.333 220.628 706.22 217.641 705.822C217.749 705.632 216.06 705.283 219.582 704.157C221.217 703.594 220.776 703.994 221.638 704.041L221.693 704.136Z" fill="#3C648C"/>
    <path fill-rule="evenodd" clip-rule="evenodd" d="M199.793 726.504C192.723 723.057 187.343 717.51 182.695 712.791C182.625 712.668 182.486 712.585 182.396 712.492C181.408 713.505 180.333 714.429 179.183 715.254C179.146 714.466 179.294 713.68 179.615 712.959C179.936 712.238 180.421 711.603 181.031 711.103C176.827 706.963 173.538 704 170.697 705.332C167.375 706.868 162.028 712.314 157.017 718.309L155.193 720.523L157.85 723.742C155.894 723.874 156.807 725.361 155.008 722.59C154.773 722.248 154.565 721.889 154.387 721.515C149.806 727.28 145.984 732.916 144.945 735.547L158.062 740.166C161.743 741.106 159.245 739.827 162.379 741.955C159.317 743.723 148.576 739.51 144.643 736.375C144.147 738.657 145.4 743.594 147.135 748.107C148.758 752.268 150.686 755.89 151.849 756.271L157.316 757.759C157.454 756.405 157.966 755.117 158.796 754.038C158.994 755.103 159.359 756.742 159.64 758.359L173.333 762.154C174.068 761.211 174.904 760.352 175.826 759.59C178.508 757.505 181.563 755.95 184.828 755.009C184.356 753.468 184.556 752.59 186.465 751.561C186.733 752.501 186.879 753.471 186.899 754.449C190.722 753.532 194.707 753.524 198.533 754.426C201.13 755.122 208.282 760.282 217.16 766.767C217.072 765.322 217.295 763.875 217.814 762.524C218.333 761.173 219.135 759.949 220.167 758.935C220.32 760.411 220.18 761.902 219.756 763.324C219.332 764.746 218.631 766.07 217.694 767.22C217.937 767.389 218.173 767.579 218.423 767.761C223.974 771.813 230.084 776.268 236.091 780.419C243.514 781.304 250.978 781.82 258.343 782.322C281.188 783.9 303.268 785.411 323.066 797.674L322.972 797.511C322.495 795.602 322.544 793.6 323.116 791.718C323.687 789.835 324.758 788.143 326.216 786.821C322.827 784.907 319.287 783.273 315.631 781.938C315.584 782.761 315.447 783.577 315.221 784.37C312.829 783.683 314.15 783.174 314.051 782.343C314.051 782.343 314.441 781.918 314.802 781.601C307.099 778.877 299.116 777.023 291.002 776.075C278.314 774.492 270.108 769.705 264.401 764.22C251.665 755.735 233.396 747.251 219.883 740.939C209.716 736.214 202.157 732.704 201.112 730.895C200.459 729.498 199.98 728.025 199.687 726.511L199.793 726.504ZM195.848 736.546C195.488 734.069 195.51 733.603 197.16 731.78C198.338 733.821 197.819 735.027 195.848 736.546ZM247.443 780.85C246.666 777.18 246.657 777.385 249.419 774.847C249.513 777.586 248.978 778.513 247.443 780.85ZM222.871 753.31C222.308 750.388 222.567 750.837 224.642 748.931C225.635 751.406 225.39 751.42 222.871 753.31ZM239.341 756.7C238.471 753.937 238.821 754.007 241.29 751.529C241.526 754.513 241.115 754.714 239.341 756.7ZM280.026 781.668C278.998 778.724 279.23 778.372 281.55 776.107C281.772 778.628 282.314 776.392 281.364 779.68C280.71 781.69 281.189 780.634 280.026 781.668ZM289.665 782.652C288.768 780.376 288.501 781.075 290.012 780.111C290.673 779.819 291.391 779.678 292.113 779.696C291.846 782.155 292.678 781.711 289.692 782.636L289.665 782.652ZM314.834 793.283C315.331 792.289 314.521 792.992 315.751 792.137L316.821 792.136C316.821 792.136 316.104 794.038 315.402 793.355C315.299 793.178 315.025 793.3 314.834 793.283ZM298.65 783.288C298.65 783.288 295.144 780.577 300.811 782.476L298.65 783.288ZM251.242 770.965C249.935 768.199 249.835 768.529 251.943 766.46C253.244 768.557 252.629 769.093 251.242 770.965ZM161.021 725.087C163.692 724.434 161.422 723.676 163.896 726.076C161.246 726.481 162.858 727.419 161.021 725.087ZM169.512 742.935C170.668 743.555 170.07 743.211 171.131 744.231C169.014 745.09 167.694 744.783 167.515 742.273C168.541 742.479 167.902 742.032 169.57 742.974L169.512 742.935Z" fill="#3C648C"/>
    <path fill-rule="evenodd" clip-rule="evenodd" d="M208.701 813.105C208.839 813.533 209.34 812.736 208.701 813.105V813.105ZM207.544 813.773L208.048 813.482L208.701 813.105C208.648 812.811 208.666 812.508 208.753 812.222L206.734 813.061C207.447 813.321 207.612 813.607 207.576 813.828L207.544 813.773ZM302.336 802.586C295.905 802.963 289.456 802.91 283.032 802.428C275.061 801.755 267.198 800.131 259.612 797.59C254.104 795.408 248.851 792.632 243.946 789.31C243.231 790.919 242.237 792.389 241.011 793.653C240.759 791.803 240.335 791.068 241.467 789.761C241.811 789.297 242.251 788.913 242.758 788.635C234.167 783.181 224.727 776.259 216.592 770.306C215.354 769.388 214.14 768.511 212.977 767.658C212.925 768.562 212.588 769.426 212.014 770.126C211.44 770.826 210.659 771.325 209.782 771.553C210.193 769.121 210.335 768.331 211.708 766.812C204.76 761.753 199.415 758.09 197.689 757.581C194.328 756.809 190.834 756.838 187.487 757.665C184.442 758.336 181.55 759.575 178.964 761.316C180.751 761.567 182.475 762.153 184.044 763.046C187.942 764.769 198.312 771.136 200.875 774.192C196.627 773.433 189.053 767.447 183.063 764.519C181.304 763.822 179.606 762.983 177.985 762.009L177.849 762.087C176.908 762.884 176.057 763.783 175.313 764.766C175.254 764.89 175.169 765.001 175.065 765.091C171.789 769.663 169.189 774.684 167.344 779.998C165.978 783.499 165.298 787.23 165.343 790.987C169.685 791.931 173.77 793.806 177.316 796.484C174.855 796.526 177.097 796.828 174.545 796.178C171.372 795.304 168.331 794.009 165.501 792.329C165.638 793.055 165.894 793.753 166.259 794.395C166.738 795.225 167.343 796.273 167.94 797.307C171.514 803.969 174.713 809.887 189.219 810.565C192.646 810.802 196.051 811.299 199.402 812.052C198.635 809.937 198.933 808.694 201.276 807.504C201.594 809.138 201.502 810.824 201.008 812.413C203.068 812.838 205.107 813.384 207.321 813.92L207.594 813.671C207.589 813.724 207.572 813.776 207.546 813.822C207.52 813.868 207.484 813.909 207.442 813.941C220.248 817.269 235.201 822.46 246.42 826.306C252.931 828.534 258.181 830.401 260.782 831.04C265.611 832.334 274.873 831.25 284.512 830.129C287.553 829.771 290.642 829.403 293.651 829.116C293.434 827.039 293.894 824.948 294.962 823.153C295.587 825.012 295.815 826.981 295.632 828.934C300.357 828.413 305.121 828.341 309.859 828.721C317.588 829.538 326.847 832.628 335.424 835.732C335.833 833.95 336.744 832.322 338.049 831.041C338.416 832.863 338.093 834.756 337.143 836.353L341.797 838.129C345.139 839.393 348.278 840.556 350.995 841.491C351.322 840.909 351.681 840.345 352.069 839.801C353.434 837.797 351.739 839.229 354.201 838.025C354.39 840.238 354.215 840.847 352.747 842.076C353.264 842.249 353.766 842.395 354.246 842.535C361.569 844.693 373.65 836.394 379.121 832.201C373.481 831.379 368.015 829.631 362.944 827.027C354.364 823.023 345.274 820.219 335.928 818.695C334.029 818.476 332.167 818.008 330.39 817.303C329.03 816.455 327.769 813.99 326.564 810.332C326.28 809.462 325.999 808.535 325.706 807.525L325.497 807.446C319.828 805.047 313.845 803.468 307.731 802.755C307.904 803.054 307.995 803.527 308.22 804.105C308.978 806.171 308.06 804.959 307.585 805.959C305.948 804.6 306.559 805.282 306.089 802.614C304.87 802.532 303.647 802.511 302.425 802.552L302.336 802.586ZM295.63 816.581C295.854 817.848 295.49 817.532 295.287 818.249C292.622 816.775 292.956 817.072 294.673 815.174C295.756 815.982 295.079 813.615 295.63 816.581ZM258.261 813.319C259.477 815.865 259.804 815.331 257.131 817.237C256.68 814.885 256.602 815.221 258.261 813.319ZM317.678 817.911C317.496 815.332 317.205 814.357 318.479 812.133C319.689 815.782 320.066 819.656 319.582 823.47C318.302 822.667 318.573 823.2 318.136 820.967C317.944 819.939 317.823 818.9 317.774 817.856L317.678 817.911ZM340.113 826.729C340.037 826.283 341.178 825.933 340.113 826.729V826.729ZM255.153 822.516C255.391 824.845 254.711 826.181 253.082 828.356C252.597 825.316 252.441 824.354 255.153 822.516ZM231.908 800.668C229.367 806.072 228.616 803.512 228.559 803.509C228.714 802.803 227.62 803.108 229.64 801.234C232.728 798.381 231.302 800.655 231.908 800.668ZM338.818 828.257C339.327 826.875 338.162 828 339.719 826.957L340.154 826.705C340.24 826.855 340.374 827.086 340.946 827.228C339.311 829.079 340.418 828.168 338.85 828.311L338.818 828.257ZM186.648 798.099C190.365 801.395 187.61 799.357 187.497 800.511C182.843 798.735 186.409 798.817 186.648 798.099ZM206.796 781.023C206.198 782.784 206.605 783.238 204.468 783.275C204.452 782.776 203.827 782.574 205.161 781.333C207.701 778.977 205.283 781.135 206.787 781.101L206.796 781.023Z" fill="#3C648C"/>
    <path fill-rule="evenodd" clip-rule="evenodd" d="M50.71 48.4563C49.35 48.4063 49.05 48.4563 48.41 49.7663C48.746 49.8309 49.0935 49.7961 49.41 49.6663C51.68 48.9563 50.65 48.5863 50.7 48.4563H50.71ZM54.81 60.2363C51.35 60.4263 49.35 60.2363 47.22 58.6763C46.1372 57.8275 45.1483 56.8653 44.27 55.8063C45.0712 55.3854 45.7922 54.8269 46.4 54.1563C47.17 53.2763 46.6 54.0863 46.71 53.0863L43.71 55.1563C42.19 53.3463 40.38 50.9463 38.02 47.7863C37.77 47.4563 37.52 47.1163 37.26 46.7863C38.26 45.3363 37.6 46.2663 37.73 45.4363C37.36 45.7063 37.05 45.9463 36.73 46.1763C28.42 35.6263 16.73 26.2863 14.87 24.7963C14.5818 23.2568 14.4478 21.6924 14.47 20.1263C14.4831 20.0036 14.4703 19.8794 14.4323 19.7619C14.3943 19.6444 14.3321 19.5363 14.2495 19.4444C14.167 19.3526 14.0661 19.2792 13.9533 19.2289C13.8405 19.1786 13.7185 19.1526 13.595 19.1526C13.4715 19.1526 13.3494 19.1786 13.2367 19.2289C13.1239 19.2792 13.023 19.3526 12.9405 19.4444C12.8579 19.5363 12.7957 19.6444 12.7577 19.7619C12.7197 19.8794 12.7069 20.0036 12.72 20.1263C12.59 28.3763 16.86 36.1263 20.38 42.4763C21.21 43.9763 22 45.4063 22.67 46.7163C23.21 47.7963 23.92 49.0163 24.67 50.3363L24.73 50.5263C24.99 50.9663 25.26 51.4263 25.54 51.8863C29.54 58.5863 34.54 67.0663 30.34 69.7863L29.41 70.4063H29.34C27.55 71.6663 25.79 73.1663 24.07 74.6363C21.07 77.2163 18.15 79.7063 15.51 80.4563H15.4C15.1797 80.5163 14.9559 80.5631 14.73 80.5963C14.6896 79.9707 14.6027 79.349 14.47 78.7363C13.69 80.0263 13.58 80.0963 13.74 80.6463C13.6269 80.6566 13.5131 80.6566 13.4 80.6463C12.47 80.5263 11.62 80.4463 10.84 80.3663C7.54 80.0463 5.58 79.8563 3.18 76.8363C3.61962 76.9012 4.06847 76.8236 4.46077 76.6148C4.85307 76.4061 5.16821 76.0772 5.36 75.6763C4.3873 75.6133 3.41061 75.6908 2.46 75.9063L1.82 75.0863C1 74.0863 0.079998 72.8763 -0.800001 71.5363L1.24 70.7563C0.0900002 70.0263 -0.640001 69.8363 -1.03 71.0063C-3.63 66.8763 -5.74 61.1863 -3.66 52.7963C-2.44404 48.0172 -1.81606 43.1076 -1.79 38.1763C0.209999 37.3163 -0.790001 36.9563 -0.790001 36.6163C-1.13325 36.7152 -1.46773 36.8423 -1.79 36.9963C-1.82228 35.159 -1.99612 33.3269 -2.31 31.5163C-0.45627 30.2676 1.28981 28.866 2.91 27.3263C3.77 26.5563 4.62 25.7963 5.51 25.0763C8.43 22.7063 6.51 17.8363 4.37 12.3863C2.55 7.81631 0.569998 2.79632 1.36 -0.963684C1.39345 -1.18537 1.34199 -1.41152 1.21592 -1.59691C1.08986 -1.78231 0.89846 -1.91329 0.68 -1.96368C0.457993 -1.99958 0.230661 -1.94912 0.044693 -1.82266C-0.141275 -1.6962 -0.271772 -1.50334 -0.32 -1.28368C-0.99 1.91632 0 5.71632 1.33 9.36632C0.367935 9.32011 -0.587 9.55277 -1.42 10.0363C-0.799999 10.6463 -0.93 10.8063 0.42 10.5263C0.843912 10.4875 1.25049 10.3393 1.6 10.0963C1.97 11.0963 2.36 12.0963 2.75 13.0963C4.65 17.9163 6.34 22.2263 4.42 23.7863C3.55 24.3963 2.64 25.2063 1.73 26.0263L1.3 26.3963L0.0699997 22.6463C-0.65 24.1463 0.199999 26.5063 0.49 27.1163C-2.02 29.3163 -4.58 31.2963 -6.95 31.1963C-5.95 28.5663 -6.02 24.7063 -7.05 22.7663L-7.74 31.0863C-8.19914 30.9609 -8.63483 30.7616 -9.03 30.4963C-11.37 28.9063 -13.38 27.4963 -14.82 26.3063C-16.26 25.1163 -16.93 24.4563 -17 24.0463C-16.9811 23.491 -16.9108 22.9387 -16.79 22.3963C-16.348 21.9156 -16.0069 21.351 -15.787 20.7361C-15.5672 20.1212 -15.473 19.4683 -15.51 18.8163C-15.76 19.1063 -16.04 19.4363 -16.33 19.8163C-15.5842 15.721 -15.2957 11.5554 -15.47 7.39632C-14.83 7.65632 -14.47 7.39632 -13.47 6.99632C-14.62 6.52632 -14.71 6.54632 -15.47 6.78632C-15.47 6.46632 -15.52 6.14632 -15.55 5.78632C-15.9081 2.72343 -15.7151 -0.378822 -14.98 -3.37368C-14.4828 -5.63043 -13.2985 -7.67764 -11.59 -9.23368C-10.59 -10.0737 -8.31 -10.4737 -6.38 -10.6537H-6.19C-4.5 -10.8037 -3.12 -10.7937 -3.11 -10.7937C-2.9949 -10.7937 -2.88095 -10.8165 -2.77474 -10.8609C-2.66853 -10.9052 -2.57217 -10.9702 -2.49125 -11.052C-2.41034 -11.1339 -2.34646 -11.231 -2.30333 -11.3377C-2.2602 -11.4444 -2.23868 -11.5586 -2.24 -11.6737C-2.23138 -11.7963 -2.24885 -11.9194 -2.29125 -12.0348C-2.33366 -12.1502 -2.40004 -12.2553 -2.48602 -12.3432C-2.57201 -12.431 -2.67564 -12.4997 -2.79009 -12.5446C-2.90454 -12.5895 -3.0272 -12.6096 -3.15 -12.6037C-3.15 -12.6037 -3.79 -12.6037 -4.74 -12.6037C-3.4 -14.1537 -0.170002 -16.5537 7.03 -16.6037C9.15 -16.6037 11.13 -16.6037 13.03 -16.6037C21.26 -16.5037 28.16 -16.4137 40.46 -20.5337C50.63 -23.9337 55.85 -20.8637 62.46 -16.9937C65.6161 -15.0395 68.9232 -13.3408 72.35 -11.9137C83.63 -7.41368 89.25 -7.46368 93.06 -7.50368H94.77C96.37 -7.40368 98.6 -5.31368 100.45 -2.86368C102.3 -0.413683 103.73 2.44632 103.69 3.94632V4.00632C103.516 4.83044 103.077 5.57497 102.44 6.12632L100.28 5.64632C96.52 5.39632 89.05 2.57632 85.59 1.22632C83.24 0.306316 70.2 -5.50368 68.97 -5.40368C71.82 -2.69368 95.51 7.13632 102.23 6.39632C101.526 7.09481 100.77 7.73992 99.97 8.32632C97.1849 10.3928 94.1342 12.0745 90.9 13.3263C90.12 13.5963 88.59 12.3263 86.3 10.4663C82.9879 7.60191 79.3494 5.13822 75.46 3.12632C76.32 2.19632 76.39 2.05632 75.74 0.936316C74.98 1.93632 74.84 2.14631 75.02 2.93632C72.77 1.85985 70.4271 0.989624 68.02 0.336317C68.02 0.146317 68.02 -0.103683 68.56 -0.103683L67.14 -1.66368C67.03 -0.923683 65.72 -2.27369 67.42 -0.313684L67.91 0.276316C63.3768 -0.908825 58.6909 -1.40438 54.01 -1.19368C53.14 -2.93368 52.14 -4.60368 51.28 -6.05368C53.82 -5.54368 57.17 -5.23368 57.99 -5.51368C56.5131 -6.37076 54.8467 -6.84834 53.14 -6.90368C52.35 -6.90368 51.47 -7.07368 50.63 -7.14368C50.56 -7.25368 50.5 -7.36368 50.43 -7.46368C48.99 -9.72368 45.43 -8.80368 40.67 -7.57368C33.56 -5.73368 23.4 -3.11368 14.67 -9.35368C14.4812 -9.48743 14.2473 -9.54144 14.019 -9.504C13.7906 -9.46657 13.5862 -9.34072 13.45 -9.15368C13.3163 -8.96487 13.2622 -8.73098 13.2997 -8.50265C13.3371 -8.27431 13.463 -8.06991 13.65 -7.93368C23.03 -1.22368 33.65 -3.93368 41.08 -5.88368L42.56 -6.26368C42.8043 -5.67978 43.1667 -5.15272 43.6245 -4.71561C44.0822 -4.27849 44.6255 -3.94078 45.22 -3.72368L43.59 -6.51368C46.37 -7.18368 48.33 -7.45368 48.93 -6.51368C50.2975 -4.38415 51.5526 -2.18447 52.69 0.0763168C53.03 0.746317 53.34 1.42632 53.62 2.07632C54.1958 3.35817 54.6284 4.69961 54.91 6.07632C54.9004 6.20266 54.921 6.32947 54.97 6.44632C55.0771 7.08234 55.0255 7.73497 54.82 8.34632H53.34L51.48 8.49632L44.14 7.80632C42.79 7.63632 41.82 7.80632 40.47 7.61632C36.65 7.08632 30.35 6.04632 26.18 7.01632C28.03 7.88632 27.84 7.35632 29.7 7.37632C35.17 7.43632 49.63 10.6063 54.7 8.70632L54.61 8.83632C54.26 9.27632 53.95 9.72632 53.61 10.1963C51.51 13.1963 48.46 17.5563 40.74 14.0563C32.41 10.2763 26.63 11.5263 24.93 12.0563C24.1159 11.3672 23.3413 10.6327 22.61 9.85632C22.5333 9.77103 22.4403 9.70196 22.3365 9.65316C22.2327 9.60435 22.1201 9.57681 22.0055 9.57215C21.8909 9.5675 21.7765 9.58581 21.6691 9.62603C21.5617 9.66624 21.4634 9.72754 21.38 9.80632C21.2959 9.88376 21.2279 9.97703 21.1799 10.0808C21.1318 10.1845 21.1047 10.2967 21.1001 10.411C21.0954 10.5252 21.1133 10.6392 21.1528 10.7465C21.1922 10.8538 21.2525 10.9523 21.33 11.0363C29.64 19.9763 43.63 22.6363 53.07 24.3963C54.56 24.6763 55.93 24.9363 57.13 25.1963C57.71 27.1963 59.69 31.5163 60.24 31.8763C60.87 30.0463 59.24 27.2363 57.79 25.3363C60.01 25.8263 61.55 26.3363 62.03 26.9063C62.51 27.4763 63.1 28.1463 63.77 28.9063C66.91 32.3963 71.46 37.3963 68.56 41.4863L68.38 41.7563C68.18 41.6063 67.85 41.3563 67.32 40.9363L47.49 30.5863C49.75 33.4863 64.05 39.8063 67.93 42.4463C66.865 44.2895 65.8938 46.1852 65.02 48.1263C64.1 50.1263 63.13 52.1263 62.02 53.9863C61.692 53.9016 61.348 53.9016 61.02 53.9863L61.69 54.6363C59.81 57.7363 57.61 60.1163 54.8 60.2763L54.81 60.2363ZM19.37 70.4563C18.37 69.6763 19.52 69.4563 17.66 70.3063C18.42 71.3063 18.43 70.8963 19.37 70.4563ZM55.14 56.4563C54.33 56.0763 54.91 56.3363 54.14 56.2863C56.28 59.3963 57 58.9363 58.24 58.7563C57.46 58.1263 56.72 57.5563 55.96 57.0163C55.6953 56.8125 55.4181 56.6255 55.13 56.4563H55.14ZM51.94 55.3963C51.77 54.1563 52.52 54.4663 50.94 54.0563C50.94 54.7063 50.58 54.0563 51.12 54.9063C51.66 55.7563 51.41 55.2063 51.96 55.3963H51.94ZM31.5 37.2263C30.64 37.0063 32.02 36.6763 30.3 37.1663C29.43 37.4163 29.78 37.4863 29.38 37.7763C30.24 38.2363 30.92 38.3163 31.5 37.2263ZM12.91 39.9463C14.53 40.9463 16.76 40.6563 18.71 39.6963C17.71 39.0963 18.15 39.2563 17.13 39.2963L12.91 39.9463ZM5.74 54.8863C4.02 53.8863 0.48 54.5763 -1.7 54.3163C-3.29 54.1263 -2.42 53.9663 -3.96 54.2663C-1.65 55.7563 3.88 55.7063 5.74 54.8863ZM7.6 68.2863C8.79 66.6363 9.1 65.8463 8.6 64.2863C7.6 65.1663 7.93 64.6863 7.6 66.1763C7.36531 66.8669 7.36531 67.6157 7.6 68.3063V68.2863ZM35.86 33.2863C33.36 30.9963 31.1 28.0163 28.46 25.5963C23.56 21.0963 18.68 17.5163 13.65 13.3163C11.11 11.1963 7.71 7.25632 6.05 6.73632C9.97 11.9963 15.96 16.4663 20.91 20.3963C23.35 22.3263 25.91 24.4763 28.3 26.6463L34.74 32.8663C35.58 33.3963 35.18 33.1263 35.86 33.2663V33.2863ZM17.44 5.39632C16.14 2.99632 10.34 -3.40368 8.2 -5.60368C5.29 -8.60368 1.42 -12.0637 -1.69 -10.6837L-2.99 -10.1637C-2.24 -9.66368 -2.74 -9.70368 -1.85 -9.91368C4.93 -12.3937 12.89 4.04632 17.44 5.39632ZM62.61 -6.72368C63.91 -5.86368 65.11 -5.15368 66.43 -5.72368C64.94 -6.98368 64.59 -7.16368 62.61 -6.72368ZM31.33 65.0963L23 67.7563C24.58 68.6163 30.41 67.0063 31.33 65.0963ZM3.82 26.5463C4.49791 27.0349 5.32934 27.2624 6.16154 27.187C6.99375 27.1117 7.77082 26.7386 8.35 26.1363C6.83246 25.8259 5.25715 25.9685 3.82 26.5463ZM0.34 46.0863H-1.86C-0.860001 47.5763 -0.860001 47.3563 0.359999 46.0863H0.34ZM-14.97 16.2563C-14.53 16.2563 -14.52 17.3163 -13.34 15.0363C-13.34 15.0363 -14.19 13.8463 -14.97 16.2563ZM-15.02 -0.663683C-13.89 -0.213682 -13.7 0.336315 -11.15 -1.12368C-12.2 -1.52368 -12.38 -2.01368 -15.02 -0.663683ZM0.699999 -14.1537C2.45234 -13.8457 4.23166 -13.7183 6.01 -13.7737C8.85 -13.9237 18.46 -12.6037 21.56 -11.9837L32.21 -10.6037C35.21 -10.2237 39.41 -9.54368 42.65 -10.3137C40.8531 -10.6965 39.0261 -10.9207 37.19 -10.9837L26.83 -12.2737C23.14 -13.0937 14.64 -13.8437 10.99 -14.2437C7.64 -14.6037 4.14 -15.1237 0.699999 -14.1537ZM35.54 -18.5037C35.42 -17.3137 35.76 -16.1737 37.43 -16.5637L35.54 -18.5037ZM50.73 25.6363C50.42 27.5863 51.68 26.9363 51.73 26.9563C51.49 25.4563 51.13 25.8563 50.73 25.6363ZM57.32 -13.0937C58.13 -14.4337 57.99 -14.0937 57.32 -15.7037C56.23 -14.3237 56.44 -14.9537 57.32 -13.0937ZM46.94 -14.1037C47.08 -13.5037 45.6 -14.4537 47.55 -12.9937C48.64 -12.1837 47.87 -12.8837 48.55 -12.8137C48.38 -13.5237 49.79 -12.4637 47.99 -13.8137C46.49 -14.9437 48.17 -13.8137 46.99 -14.1037H46.94ZM50.22 -14.7737C50.79 -14.0637 50.28 -14.2137 51.32 -13.7137C52.2 -13.2937 51.43 -13.6037 52.24 -13.7637C51.77 -15.1837 51.15 -14.8637 50.24 -14.7637L50.22 -14.7737ZM44.14 12.3963C45.6 13.3963 46.6 13.5663 47.96 12.6563C46.51 11.9463 45.65 11.7063 44.14 12.3963ZM45.14 -20.5237C45.2266 -19.9753 45.4447 -19.4561 45.7755 -19.0103C46.1064 -18.5645 46.5402 -18.2054 47.04 -17.9637C47.09 -18.4137 47.83 -18.1137 46.57 -19.7237C45.72 -20.7937 45.68 -20.4337 45.14 -20.5237ZM84.14 -7.04368C82.75 -5.60368 82.92 -6.21368 83.87 -4.50368C84.3 -5.29368 84.26 -4.99368 84.33 -5.75368C84.42 -6.75368 84.41 -6.02368 84.06 -7.01368L84.14 -7.04368ZM82.37 3.31632C81.25 4.53632 81.58 3.97631 81.61 5.50632C81.7256 5.47709 81.8392 5.44034 81.95 5.39632C82.1431 5.34516 82.3183 5.24143 82.456 5.09666C82.5937 4.9519 82.6886 4.77177 82.73 4.57632C83.01 3.36632 82.95 4.45632 82.37 3.31632ZM90.55 -5.10368C90.13 -5.10368 90.69 -6.57368 89.35 -4.41368C89.88 -4.34368 89.96 -2.41368 90.55 -5.10368ZM95.83 -1.39368C95.61 0.0163155 95.83 1.26632 97.83 1.72632C97.43 0.726316 96.68 -1.06368 95.83 -1.39368ZM88.73 9.73632C88.11 10.4563 88.42 10.2963 88.4 11.2363L90.25 9.10632C90.18 9.10632 90.06 8.19632 88.73 9.73632ZM20.92 -2.54368C21.82 -0.703684 22.54 1.69632 24.68 2.54632L22.24 -1.78368C21.4 -2.78368 21.7 -2.30368 20.92 -2.54368ZM33 -0.813684C33.64 0.706316 34.44 0.106316 34.55 0.0563164L33.47 -2.35368C32.84 -1.63368 32.47 -2.04368 33 -0.813684ZM48.25 5.64632C48.69 6.99632 48.98 6.72632 49.49 6.94632C49.4561 5.75817 49.1113 4.59967 48.49 3.58632C48.11 4.48631 47.84 4.40632 48.26 5.64632H48.25ZM37.33 5.00632C38.03 3.86632 37.93 3.32632 37.43 2.00632C36.43 4.00632 36.22 3.66632 37.33 5.00632ZM22.83 8.19632C24.2 8.73632 24.36 8.65632 25.96 7.88632C24.59 7.37632 23.96 7.06632 22.83 8.19632ZM40.19 23.0663C39.81 24.2263 39.64 25.5863 41.74 26.0163L40.19 23.0663ZM41.39 29.0663C41.08 27.7063 41.39 28.2963 40.23 27.8863C40.23 28.3063 39.7 27.8263 40.47 28.7763C41.41 29.9163 40.35 28.9563 41.39 29.0663ZM15.28 50.7963C15.28 49.3263 15.34 49.5763 13.94 49.2363C14.03 49.7763 13.3 49.0663 14.45 50.3163L15.28 50.7963ZM19.6 58.3963C19.3905 57.9314 19.0601 57.5312 18.6432 57.2374C18.2264 56.9437 17.7383 56.7672 17.23 56.7263C17.49 58.3163 18.39 58.2763 19.6 58.3963ZM9.99 54.0963C8.73 53.1863 8.88 52.9863 8.37 54.4663C8.97 54.9263 9.28 54.5563 9.99 54.0963ZM25.52 20.2163C25.71 19.0263 25.05 17.6463 24.52 15.9963C23.57 17.6563 23.96 18.5363 25.52 20.2163ZM8.42 1.78632C8.36 1.20632 8.59 1.58632 8.17 0.966316L7.62 0.806316C7.54 3.02632 8.39 1.80632 8.42 1.80632V1.78632ZM2.14 -3.32368C2.86 -4.20368 3 -3.84368 2.07 -5.32368C1.43 -4.10368 1.41 -4.68368 2.14 -3.32368ZM5.65 41.1763L8.65 40.1763C8.10636 39.8924 7.48583 39.7907 6.88 39.8863C4.57 40.3363 5.7 41.1163 5.69 41.2163L5.65 41.1763ZM-1.64 20.3963C-1.7151 19.6151 -1.96879 18.8616 -2.38146 18.194C-2.79414 17.5265 -3.35475 16.9627 -4.02 16.5463C-3.86 17.8863 -3.16 19.7463 -1.64 20.3963ZM-8.81 6.39632C-7.67 6.83632 -7.3 6.75632 -6.81 5.68632C-7.88 5.52632 -6.03 4.94632 -8.09 5.68632C-9.2 6.09632 -8.54 6.03632 -8.85 6.36632L-8.81 6.39632ZM-10.81 -6.13368C-10.34 -6.13368 -11.3 -4.95368 -9.49 -6.47368C-8.37 -7.42368 -9.23 -6.84368 -9.1 -7.47368C-10.44 -7.11368 -10.2 -7.41368 -10.81 -6.08368V-6.13368ZM55.34 42.4663C53.34 42.8663 53.7 43.4663 54.55 44.9163L55.29 42.7763C55.37 42.8063 55.33 42.5663 55.34 42.4663Z" fill="#C7E6EE"/>
    <path fill-rule="evenodd" clip-rule="evenodd" d="M68.1396 53.6863C69.3496 52.9563 69.3196 53.5063 68.6096 51.9163C67.6096 53.1163 67.8896 52.3963 68.1396 53.6863ZM63.4396 55.0963C64.5996 53.0963 65.6196 50.9563 66.5996 48.8663C67.5555 46.6598 68.6857 44.5331 69.9796 42.5063C71.7869 45.6961 73.8895 48.7093 76.2597 51.5063C75.734 52.0787 75.2806 52.7134 74.9096 53.3963C74.5225 53.955 74.1685 54.536 73.8496 55.1363C73.3496 56.2963 73.5796 55.9463 73.6296 56.6763C74.1896 56.5763 73.7596 57.0063 74.3896 56.3763L75.6096 54.1063C76.059 53.4819 76.4698 52.8307 76.8396 52.1563C79.5296 55.2963 82.2997 58.0663 84.6897 60.4463C88.4797 64.2263 91.2397 66.9963 90.9697 68.2663C90.0596 71.8805 88.5266 75.3084 86.4397 78.3963C85.0197 80.3963 83.4396 81.7763 81.8196 81.6163H81.6897C80.4248 79.9711 79.3355 78.1981 78.4397 76.3263C77.5297 73.9163 77.2296 71.5463 76.1396 69.3963C75.6396 71.7763 77.5997 78.5963 80.2197 81.4663C76.4397 81.0663 73.5797 80.2363 70.9397 71.5263V71.4363C71.4454 71.4914 71.9565 71.4045 72.4157 71.1855C72.875 70.9665 73.2641 70.624 73.5396 70.1963C72.2197 70.1963 71.6797 70.0963 70.7197 70.7463C69.8379 68.0058 68.543 65.416 66.8796 63.0663C67.3096 63.3463 67.8796 63.2563 68.7496 63.0663C68.409 62.6557 67.9911 62.316 67.5196 62.0663C65.8196 61.2863 67.3196 61.8763 66.2096 61.9563C66.2096 62.0763 66.2897 62.1963 66.3297 62.2963C65.0165 60.5556 63.4331 59.0364 61.6396 57.7963C62.1096 57.1763 62.5596 56.5163 62.9896 55.7963L64.5496 57.3963C64.6196 56.2363 65.4296 57.8863 64.2296 55.9463L63.4396 55.1063V55.0963ZM83.1396 62.2263C81.7096 63.3863 80.5796 64.2263 80.4096 65.7063C81.5296 65.2963 83.1896 63.9463 83.1396 62.2263ZM85.8297 67.6763C84.4497 71.9863 83.7496 70.7563 83.9896 73.0063C85.5496 71.1863 86.9897 69.5063 85.8297 67.6763ZM75.6396 67.8363L73.5497 65.3963C73.3697 66.9163 73.5497 67.8463 75.6497 67.8863L75.6396 67.8363ZM70.8697 57.6863L69.2296 58.6863C70.3696 59.5563 70.0996 59.3163 71.4996 58.8263C71.3896 57.7063 72.0097 58.6863 70.8697 57.6863Z" fill="#C7E6EE"/>
    <path fill-rule="evenodd" clip-rule="evenodd" d="M85.6699 41.8763C81.6699 36.3863 73.8699 22.6963 69.5599 21.0863C71.0499 23.3863 73.4699 25.6463 75.2499 28.2063C79.2499 33.8963 84.0599 42.0163 88.5399 46.8563C89.0376 47.4273 89.5721 47.9651 90.1399 48.4663C90.4203 48.7012 90.7295 48.8995 91.0599 49.0563C91.1299 49.1063 91.2599 49.0563 91.3899 49.1863C91.4531 49.2447 91.5341 49.28 91.6199 49.2863C91.1954 49.3462 90.7645 49.3462 90.3399 49.2863C88.6791 49.0306 87.0833 48.4568 85.6399 47.5963C84.1163 46.6751 82.6891 45.603 81.3799 44.3963C80.8051 43.8078 80.326 43.133 79.9599 42.3963C80.9564 43.0878 82.1844 43.3607 83.3799 43.1563C82.7821 42.6306 82.1077 42.199 81.3799 41.8763C79.8299 41.1263 79.8099 41.2063 79.3799 41.2963C79.0199 40.5863 78.6399 39.7863 78.2299 38.9363C76.1399 34.4863 73.2199 28.4663 68.1399 23.9063C62.9399 19.2263 56.5299 19.6063 52.4499 20.5563L53.1999 19.7363L54.4799 17.9963C52.0299 18.2863 52.6499 19.2963 51.4799 20.4163C51.6597 20.4443 51.8232 20.5367 51.9399 20.6763C50.8097 20.9606 49.703 21.3317 48.6299 21.7863C44.3837 20.9476 40.2081 19.7841 36.1399 18.3063C36.9305 17.8963 37.5505 17.2197 37.8899 16.3963C36.8085 16.5198 35.8198 17.0663 35.1399 17.9163C32.1431 16.7602 29.2987 15.2423 26.6699 13.3963C28.8978 13.0224 31.1754 13.0596 33.3899 13.5063C32.3899 15.1663 32.9299 14.0363 33.2499 15.2963C34.4799 13.9363 34.6799 14.8063 33.4599 13.5163C35.7202 13.9583 37.9193 14.6701 40.0099 15.6363C49.0599 19.7363 52.5899 14.6363 55.0099 11.1863C55.3499 10.6963 55.6699 10.2463 55.9299 9.91631C56.5742 8.99339 56.8457 7.86102 56.6899 6.74631C60.4116 5.15082 64.5997 5.02574 68.4099 6.39631C73.4099 8.09631 77.7099 11.8163 80.9199 15.5863C84.1299 19.3563 88.2399 21.8663 91.9199 24.1263C95.1799 26.1263 98.0099 27.8863 99.0899 29.7863C100.368 32.1406 101.158 34.7292 101.41 37.3963C101.469 38.0345 101.489 38.6757 101.47 39.3163C100.36 35.7963 92.3799 25.7963 88.6499 25.8963C91.0894 27.8308 93.3792 29.9468 95.4999 32.2263C97.6399 34.6663 99.4399 37.5763 101.44 39.8263C101.414 41.0157 101.068 42.1761 100.44 43.1863C98.9978 45.0873 97.1972 46.6875 95.1399 47.8963C94.0757 48.5613 92.9002 49.0288 91.6699 49.2763C89.8299 46.7463 87.5699 44.5663 85.6699 41.8763ZM67.1399 13.2763C68.7299 14.3363 68.0799 14.0263 69.4399 13.2763C67.4399 12.2763 69.0199 12.4263 67.1399 13.2763ZM76.9299 34.9563C78.0199 35.1663 78.2799 33.9563 78.2799 33.9563C76.1799 34.1463 76.9499 34.8663 76.9299 34.9563ZM39.6899 19.1363C42.7499 20.6463 48.4299 18.7463 52.1399 17.6363C55.1399 16.7263 61.7599 15.3763 64.4399 13.9763C61.8999 13.2963 54.4399 15.9763 51.8899 16.7163C42.4399 19.4363 44.9799 18.1663 39.6899 19.1363ZM59.3699 9.57631C60.0699 9.50631 58.6499 11.4463 60.7699 8.8463C61.135 8.44628 61.3567 7.93616 61.3999 7.39631C59.8199 7.79631 59.9299 7.92631 59.3999 9.57631H59.3699ZM64.3699 8.85631C64.9783 8.72128 65.533 8.40883 65.9638 7.95847C66.3946 7.50812 66.6821 6.94011 66.7899 6.32631C65.9699 6.46631 65.9299 6.3263 64.9899 7.3763L64.4099 8.53631C64.4599 8.66631 64.4099 8.74631 64.4099 8.85631H64.3699ZM67.8999 20.0363C67.0599 17.5163 66.3499 18.6263 66.1699 18.5963C66.7399 20.9963 67.5999 20.0163 67.8999 20.0363ZM92.4999 38.2563C92.1835 38.6897 91.9589 39.1831 91.8399 39.7063C93.2399 39.5863 93.5399 38.8863 93.7499 37.5363C93.5299 37.5363 93.7499 36.6863 92.4999 38.2563ZM88.2299 32.1663C87.4999 33.3963 87.3599 33.3263 88.2299 34.5463C88.8899 33.5463 89.0999 33.2363 88.2299 32.1663ZM84.5799 29.7163C85.4799 28.1863 85.4699 29.1063 84.7599 27.4863C83.9599 28.6963 83.9699 27.8563 84.6099 29.7163H84.5799Z" fill="#C7E6EE"/>
    <path fill-rule="evenodd" clip-rule="evenodd" d="M49.0196 61.5663C49.5296 63.5063 51.5896 70.4963 56.2196 75.9163C60.6496 81.1063 57.5696 85.4563 55.2196 88.7463C55.0196 89.0263 54.8196 89.3063 54.6096 89.6163C54.0887 90.146 53.4128 90.4963 52.6796 90.6163C50.3796 85.2463 44.0896 72.7163 42.2796 70.8463L42.7096 72.4763C44.7096 76.5363 49.0296 86.3363 51.9496 90.7763C49.7751 91.074 47.5728 91.1109 45.3896 90.8863C41.2196 90.5363 37.1396 89.6263 36.0896 88.8863C35.5396 88.4663 35.1796 86.9563 34.7896 84.8863C36.2896 85.8863 36.9196 85.8863 38.7896 84.9763C38.1748 84.6591 37.4977 84.4812 36.8063 84.4552C36.115 84.4293 35.4264 84.556 34.7896 84.8263C34.6996 84.3263 34.6096 83.8263 34.5096 83.2363C34.0133 79.8296 33.1826 76.4801 32.0296 73.2363C32.0996 73.2363 32.2396 73.2363 32.1696 73.4863C32.6196 73.4863 31.8396 74.4163 33.4396 73.0663C35.2996 71.4963 33.5396 73.1863 33.9696 72.0663C33.5896 72.1463 33.9696 71.4963 32.5996 72.6563C32.382 72.8196 32.184 73.0075 32.0096 73.2163C31.7496 72.5663 31.4796 71.9263 31.1696 71.2963L31.4496 71.1163C31.9863 70.7811 32.4574 70.3507 32.8396 69.8463C33.3696 70.2963 32.6196 70.0763 33.7196 69.6763C35.2496 69.1263 33.9096 69.6763 34.2496 69.0463C33.9622 68.9871 33.6718 68.9437 33.3796 68.9163C35.3796 64.5063 30.8596 56.9963 27.1996 50.8463C26.6796 49.9563 26.1996 49.1063 25.6996 48.2963C25.7577 47.1165 25.5669 45.9376 25.1396 44.8363C24.8965 45.3854 24.7251 45.9635 24.6296 46.5563L24.2796 45.8963C23.5896 44.5163 22.7996 43.0963 21.9696 41.5963C19.6596 37.4063 16.9696 32.5963 15.5796 27.5963C19.5796 30.8463 28.5796 38.6663 35.4096 47.2763C35.0049 47.5285 34.5576 47.7047 34.0896 47.7963C33.9996 47.7963 33.6896 47.7163 33.7096 47.7963C33.7296 47.8763 33.4496 47.7963 33.3196 47.7963C34.4496 49.0663 34.7596 49.0663 36.0196 48.0263C36.2196 48.2963 36.4296 48.5663 36.6296 48.8463C41.1396 54.9263 43.7496 58.2763 46.1396 60.0763C46.9924 60.7344 47.9535 61.2386 48.9796 61.5663H49.0196ZM42.3996 66.1363C43.4496 65.1363 44.7796 64.2163 45.0496 63.1363C44.7054 63.139 44.3658 63.2153 44.0536 63.3602C43.7414 63.5051 43.4638 63.7152 43.2396 63.9763C41.6996 65.4163 42.3996 65.8363 42.3996 66.1663V66.1363ZM42.3996 78.5763C42.3707 78.3372 42.3707 78.0954 42.3996 77.8563C42.0885 78.0032 41.8097 78.2105 41.5796 78.4663C41.5796 78.5163 41.3696 78.6263 41.3996 78.7463C41.4296 78.8663 41.2996 78.9463 41.2496 79.0463C41.8596 78.9863 41.4796 79.3263 42.2496 78.6863L42.3896 78.5763H42.3996ZM38.0696 67.1063C37.5196 66.2963 37.0696 66.5063 37.0696 66.4663C36.9996 68.0363 36.8996 67.4663 38.4596 68.5563C38.5196 67.5563 38.9096 68.2363 38.1096 67.1063H38.0696ZM42.3796 78.5763C42.5196 79.5763 43.6596 77.5763 42.3796 78.5763V78.5763ZM35.0096 78.5763C36.5096 77.5763 35.2096 78.4363 35.1596 77.5763L34.1596 78.6363C34.9296 78.7563 34.0596 79.1963 35.0496 78.5763H35.0096ZM24.5396 42.5763C24.2396 40.8063 24.2896 42.1963 23.8996 41.9763C23.0696 42.6863 22.8996 42.6963 24.3196 43.4263C24.4396 43.1463 24.6196 43.0363 24.5396 42.5763ZM36.1396 59.1463C38.1396 59.2563 37.0196 58.7763 37.1396 58.3363C36.8996 58.3863 36.7196 57.2363 36.1396 59.1463ZM44.9696 84.3963L44.0596 85.1363C44.1696 85.1363 44.3496 85.1363 44.3996 85.1363L44.8596 84.7663C44.9696 84.8363 44.9296 84.5463 44.9696 84.4363V84.3963ZM52.1396 75.4863L51.2396 77.6363C52.6996 77.3563 52.4396 76.5763 52.1396 75.4863ZM31.1396 55.7663C32.5896 54.9463 32.1396 55.4763 32.1396 54.1063C30.8896 54.3963 31.1396 54.3963 31.1896 55.7663H31.1396Z" fill="#C7E6EE"/>
    <path fill-rule="evenodd" clip-rule="evenodd" d="M15.3297 82.3063C16.6197 84.8463 21.7097 94.7163 24.8197 99.4063C24.944 99.5877 25.0479 99.7822 25.1297 99.9863C25.7397 101.386 25.2097 102.886 24.1297 104.316C22.7596 105.991 21.1246 107.43 19.2897 108.576C17.855 109.531 16.3469 110.37 14.7797 111.086C14.3454 111.247 13.882 111.316 13.4197 111.286L13.1997 110.516C13.1997 110.436 12.6997 109.516 12.5897 109.226C12.2497 108.516 11.8997 107.696 11.5897 106.966C10.9097 105.286 10.3697 103.906 9.75971 102.156C8.75971 99.1563 8.17971 94.7663 7.23971 92.7663C6.03971 96.3963 9.93971 106.536 12.7197 111.216C11.53 111.011 10.3664 110.675 9.24971 110.216C7.24582 109.421 5.32076 108.44 3.49971 107.286C3.42421 107.222 3.34007 107.168 3.24971 107.126C2.60311 106.736 2.00553 106.269 1.46971 105.736C1.13971 105.286 0.809707 100.996 0.399707 95.2363C-0.050293 88.7063 -0.600293 80.3263 -1.80029 73.0063C-1.00029 74.1763 -0.180293 75.2163 0.569707 76.1563L1.56971 77.5063C4.56971 81.5063 6.81971 81.7063 10.7297 82.0963C11.4897 82.1663 12.3097 82.2463 13.2297 82.3663H13.4097C11.4097 83.6563 8.50971 85.2863 8.20971 87.4363L14.8097 82.3963C14.9841 82.3821 15.1577 82.3587 15.3297 82.3263V82.3063ZM4.74971 104.396L5.80971 103.396C5.44359 103.211 5.05786 103.066 4.65971 102.966C4.33849 102.849 4.00128 102.782 3.65971 102.766C3.94971 103.966 3.65971 103.446 4.73971 104.436L4.74971 104.396ZM2.87971 99.0363C3.64971 99.9063 4.65971 98.1863 4.71971 98.0363C3.33971 97.7963 3.38971 97.9163 2.87971 99.0363ZM5.18971 86.2663C5.18971 84.7363 5.18971 85.9763 4.90971 84.6563C3.83971 86.2563 3.80971 86.1063 4.82971 87.8763C5.30971 86.6663 5.20971 87.6863 5.18971 86.2663ZM2.36971 93.2663C5.06971 93.1463 3.30971 92.7063 3.36971 92.4263C2.78971 92.5163 3.06971 92.3463 2.48971 92.7463C2.48971 92.7463 2.34971 92.8963 2.38971 92.9863C2.42971 93.0763 2.38971 93.1763 2.33971 93.2663H2.36971ZM11.9297 96.2663C12.3 95.2447 12.7724 94.2631 13.3397 93.3363C13.3397 93.3363 12.4897 92.3363 11.4297 94.0563C10.8897 94.9563 11.2597 95.1563 11.9297 96.2663ZM17.7097 101.696C16.1997 102.286 16.4397 101.826 16.0697 103.426C16.1797 103.426 16.0697 104.326 17.2897 102.756C17.8997 101.966 17.5897 102.136 17.7097 101.666V101.696Z" fill="#C7E6EE"/>
    <path fill-rule="evenodd" clip-rule="evenodd" d="M90.3996 122.256C90.8474 122.072 91.2192 121.741 91.4537 121.318C91.6882 120.894 91.7714 120.403 91.6896 119.926C90.6896 120.096 90.8096 119.666 90.2796 120.826C89.4396 122.656 90.3896 122.236 90.3996 122.256Z" fill="#C7E6EE"/>
    <path fill-rule="evenodd" clip-rule="evenodd" d="M82.1396 123.086C84.1396 123.826 87.0596 124.416 88.7496 124.086C88.4896 123.786 88.6496 123.726 87.8396 123.316L85.2396 122.676C81.9596 122.236 82.6396 122.826 82.1396 123.086Z" fill="#C7E6EE"/>
    <path fill-rule="evenodd" clip-rule="evenodd" d="M93.5796 122.666L98.5096 125.136C98.1296 123.896 98.2496 123.886 96.5096 122.946C94.7696 122.006 94.4496 122.176 93.5796 122.666Z" fill="#C7E6EE"/>
    <path fill-rule="evenodd" clip-rule="evenodd" d="M95.7496 118.396C94.4896 116.206 91.6596 116.696 90.0596 117.566L95.7496 118.396Z" fill="#C7E6EE"/>
    <path fill-rule="evenodd" clip-rule="evenodd" d="M383.283 59.3206C383.613 57.9406 385.853 47.5706 381.543 39.0206L380.813 39.4106C378.173 40.8406 375.813 42.1006 374.743 42.5306C373.606 42.9391 372.381 43.0391 371.193 42.8206C371.365 43.1893 371.508 43.5704 371.623 43.9606C372.493 46.8006 372.163 50.4206 371.623 53.1006C371.404 54.4845 370.816 55.7837 369.92 56.8609C369.024 57.9381 367.854 58.7534 366.533 59.2206C366.273 59.3306 358.893 62.3306 358.133 64.9206C357.743 66.2706 358.393 67.5106 359.133 68.9206C359.996 70.3376 360.557 71.9171 360.783 73.5606C360.848 76.6855 360.59 79.8087 360.013 82.8806C359.563 86.215 358.799 89.4995 357.733 92.6906C356.769 95.4734 355.947 98.3037 355.273 101.171C354.766 103.555 354.071 105.896 353.193 108.171C352.38 109.097 351.349 109.805 350.193 110.231C348.882 110.851 347.482 111.259 346.043 111.441H345.963C345.053 111.441 343.363 109.941 341.963 108.021C340.563 106.101 339.543 103.891 339.543 102.021V101.791C339.643 99.6306 341.993 94.9406 344.033 90.8706C345.142 88.8745 346.085 86.7909 346.853 84.6406C346.983 83.8106 346.903 83.3706 346.683 83.1406C346.276 82.8515 345.8 82.6755 345.303 82.6306C344.307 83.6385 343.418 84.7479 342.653 85.9406C340.567 88.8004 338.692 91.8083 337.043 94.9406C337.047 96.0705 337.236 97.1921 337.603 98.2606C338.406 101.046 338.806 103.932 338.793 106.831C338.635 109.363 338.253 111.876 337.653 114.341C337.072 116.98 336.259 119.564 335.223 122.061C335.023 122.481 335.463 123.521 335.963 124.701C336.763 126.571 337.683 128.701 337.013 130.931C336.488 132.427 335.578 133.759 334.373 134.791C333.036 136.026 331.465 136.981 329.753 137.601H329.593H329.533C328.783 137.601 326.633 135.711 324.743 133.351C322.853 130.991 321.243 128.491 320.973 126.821V126.761C320.973 126.691 320.973 126.601 320.973 126.491C320.873 124.801 323.063 118.771 325.193 112.911C326.873 108.291 328.523 103.771 328.903 101.911C326.903 102.411 321.543 105.911 318.093 108.191C316.987 108.999 315.816 109.714 314.593 110.331C313.29 110.449 311.977 110.337 310.713 110.001C309.298 109.746 307.923 109.306 306.623 108.691C305.903 108.221 305.463 106.691 305.253 104.981C305.002 103.171 304.972 101.338 305.163 99.5206C305.413 98.3206 309.243 96.5206 313.683 94.3406C317.813 92.3406 322.503 90.0906 324.933 88.3406C328.483 85.5705 331.651 82.3424 334.353 78.7406C331.202 78.279 328.026 78.0085 324.843 77.9306C322.423 77.8106 320.303 77.7006 319.363 77.5306C317.845 77.1573 316.5 76.2749 315.553 75.0306C314.358 73.6564 313.523 72.0071 313.123 70.2306C313.003 69.1606 313.943 67.3306 315.273 65.7106C316.359 64.2081 317.771 62.9706 319.403 62.0906C320.963 61.4306 324.843 62.2206 328.803 63.0906C332.393 63.8306 336.053 64.5806 337.483 64.2406C338.591 63.9272 339.582 63.2942 340.333 62.4206C340.551 62.1797 340.755 61.9259 340.943 61.6606C340.701 61.7822 340.45 61.8858 340.193 61.9706C338.705 62.1032 337.207 61.8661 335.833 61.2806C334.136 60.7473 332.539 59.94 331.103 58.8906H331.053C330.303 58.1206 330.053 55.4506 330.423 52.6106C330.793 49.7706 331.723 46.8806 333.323 45.1706L333.513 44.9706C335.413 43.1306 341.513 40.8706 346.823 38.9106C350.573 37.5306 353.903 36.3006 354.823 35.6106C355.743 34.9206 356.053 34.3806 356.053 33.9006C355.931 33.2311 355.626 32.6083 355.173 32.1006C354.993 31.8506 352.633 32.2006 349.683 32.7606C345.325 33.5317 341.03 34.6247 336.833 36.0306C336.273 36.3006 335.463 37.7506 334.403 39.6306C332.764 42.8309 330.676 45.7807 328.203 48.3906C325.918 50.5571 323.441 52.5118 320.803 54.2306C318.043 56.1322 315.118 57.7821 312.063 59.1606C311.403 59.4106 310.903 60.7806 310.333 62.3506C309.483 64.6906 308.503 67.3506 306.073 68.7906C304.361 69.685 302.443 70.1127 300.513 70.0306C298.24 70.0275 295.993 69.54 293.923 68.6006L293.843 68.5406C293.801 68.5091 293.764 68.4721 293.733 68.4306C293.604 68.271 293.527 68.0754 293.513 67.8706C293.063 65.5653 292.966 63.2052 293.223 60.8706C293.493 57.3206 294.223 53.4306 295.353 51.7606L295.413 51.6906C295.413 51.6106 295.513 51.5506 295.543 51.5106C296.863 49.9206 303.973 46.3206 310.903 42.8106C316.673 39.8806 322.313 37.0206 324.033 35.6706C322.113 34.2906 313.763 32.8506 308.423 31.9406C306.75 31.7342 305.095 31.3999 303.473 30.9406C302.224 29.9575 301.158 28.7626 300.323 27.4106C299.267 26.0013 298.402 24.4577 297.753 22.8206C297.513 21.8206 298.393 20.1606 299.633 18.4606C300.928 16.6169 302.442 14.9379 304.143 13.4606C305.303 12.6506 310.313 14.2206 316.143 16.0506C321.603 17.7606 327.813 19.7106 331.553 20.1706C338.473 21.0006 345.653 19.8906 348.773 19.3906C347.773 17.6506 343.833 13.5606 340.573 10.1806C338.483 8.01061 336.653 6.12061 335.943 5.18061C334.929 3.66422 334.46 1.84838 334.613 0.0306091C330.783 -0.849388 315.033 -4.39939 312.843 -3.18939C311.623 -2.50939 311.213 -1.18939 310.763 0.32061C310.372 1.93413 309.658 3.45146 308.663 4.78061C306.515 7.05248 304.135 9.09357 301.563 10.8706C298.899 12.9233 296.05 14.7244 293.053 16.2506C290.408 17.546 287.835 18.9814 285.343 20.5506C283.309 21.8854 281.173 23.0558 278.953 24.0506C277.721 24.1365 276.487 23.9131 275.363 23.4006C273.989 22.9271 272.702 22.2311 271.553 21.3406C270.933 20.6706 270.753 18.4506 271.133 16.1306C271.513 13.8106 272.323 11.4806 273.673 10.1306C273.743 10.0606 273.793 10.0006 273.843 9.96061C275.433 8.50061 280.393 6.81061 284.703 5.35061C286.896 4.71236 289.033 3.89632 291.093 2.91061C291.763 2.41061 292.023 2.04061 292.023 1.72061C291.945 1.22486 291.731 0.760704 291.403 0.380608C289.986 0.402184 288.575 0.569733 287.193 0.880608C283.71 1.4318 280.274 2.24409 276.913 3.31061C276.094 4.09255 275.42 5.01347 274.923 6.03061C273.528 8.5736 271.781 10.9067 269.733 12.9606C267.846 14.6502 265.812 16.1663 263.653 17.4906C261.39 18.9682 258.996 20.2368 256.503 21.2806C256.053 21.4406 255.643 22.4806 255.173 23.6806C254.433 25.5706 253.573 27.7406 251.533 28.8506C250.108 29.5464 248.525 29.8535 246.943 29.7406C245.082 29.6894 243.255 29.2392 241.583 28.4206C241.013 27.9306 240.843 25.0406 241.153 22.0406C241.463 19.0406 242.103 16.0406 243.103 14.6906C243.155 14.6169 243.212 14.5467 243.273 14.4806C244.393 13.2006 250.183 10.4806 255.823 7.79061C260.263 5.68061 264.613 3.62061 266.223 2.54061C264.423 1.46061 258.173 0.220604 254.113 -0.589394C252.757 -0.797852 251.42 -1.11214 250.113 -1.52939C249.105 -2.37292 248.255 -3.3887 247.603 -4.52939C246.771 -5.70201 246.099 -6.97983 245.603 -8.32939C245.423 -9.17939 246.183 -10.5794 247.243 -11.9494C248.307 -13.4358 249.55 -14.7859 250.943 -15.9694C251.943 -16.6494 255.943 -15.2594 260.653 -13.6594C264.983 -12.1794 269.913 -10.4794 272.883 -10.0394C277.356 -9.51321 281.879 -9.5872 286.333 -10.2594C284.412 -12.7966 282.341 -15.2176 280.133 -17.5094C278.503 -19.2994 277.073 -20.8594 276.523 -21.6494C275.707 -22.9805 275.372 -24.5511 275.573 -26.0994C275.691 -27.9179 276.254 -29.6796 277.213 -31.2294C277.893 -32.0794 279.833 -32.7094 281.923 -32.9294C283.717 -33.1735 285.543 -33.0233 287.273 -32.4894C288.843 -31.8594 291.043 -28.5694 293.273 -25.1994C295.273 -22.1994 297.373 -19.0494 298.633 -18.2894C299.635 -17.722 300.786 -17.4743 301.933 -17.5794C302.933 -17.6244 303.917 -17.855 304.833 -18.2594C304.619 -18.7001 304.539 -19.1938 304.603 -19.6794C305.204 -21.3399 306.028 -22.911 307.053 -24.3494C307.837 -25.72 308.852 -26.9448 310.053 -27.9694C311.662 -28.476 313.306 -28.8604 314.973 -29.1194C320.283 -30.1894 328.583 -31.8494 330.463 -33.2894C328.703 -34.5994 322.993 -37.2894 317.143 -40.0594C310.143 -43.3694 302.903 -46.7694 301.543 -48.3194L301.353 -48.5594C300.133 -50.1994 299.353 -54.0594 298.963 -57.5594C298.645 -59.8839 298.672 -62.2427 299.043 -64.5594C299.052 -64.8211 299.163 -65.0689 299.353 -65.2494L299.433 -65.3094C301.499 -66.3391 303.765 -66.9056 306.073 -66.9694C308.001 -67.1139 309.934 -66.7447 311.673 -65.8994C314.133 -64.5694 315.193 -61.8994 316.103 -59.5894C316.723 -58.0394 317.253 -56.6794 317.923 -56.4494C321.018 -55.156 323.99 -53.5864 326.803 -51.7594C329.497 -50.1244 332.04 -48.2537 334.403 -46.1694C336.945 -43.6283 339.113 -40.7395 340.843 -37.5894C341.953 -35.7394 342.843 -34.3094 343.373 -34.0494C347.594 -32.7367 351.906 -31.7341 356.273 -31.0494C359.273 -30.5694 361.603 -30.2894 361.783 -30.5494C362.22 -31.0684 362.504 -31.6985 362.603 -32.3694C362.603 -32.8394 362.243 -33.3694 361.333 -34.0494C360.423 -34.7294 357.063 -35.8394 353.333 -37.1194C347.973 -38.9294 341.813 -41.0094 339.853 -42.7994L339.653 -42.9994C338.013 -44.6494 337.003 -47.6294 336.553 -50.3494C336.103 -53.0694 336.273 -55.8494 337.003 -56.6394L337.053 -56.6994C338.456 -57.7842 340.026 -58.632 341.703 -59.2094C343.06 -59.8346 344.551 -60.1162 346.043 -60.0294C347.043 -59.8094 350.343 -57.8394 353.953 -55.6994C357.078 -53.7412 360.303 -51.9455 363.613 -50.3194C365.673 -49.4894 370.063 -46.6794 374.203 -43.6594C377.963 -40.9094 381.543 -37.9594 383.033 -36.1194C384.248 -34.4819 385.125 -32.6191 385.613 -30.6394C386.193 -28.7294 386.713 -27.0094 388.333 -26.1194C391.333 -24.4494 400.393 -28.1194 400.983 -28.4094H401.083C402.393 -28.8446 403.798 -28.9038 405.14 -28.5803C406.481 -28.2568 407.705 -27.5636 408.673 -26.5794C411.323 -24.1694 413.313 -20.1394 414.503 -16.9694C415.161 -15.3895 415.376 -13.6604 415.126 -11.9675C414.875 -10.2746 414.169 -8.68162 413.083 -7.35939C412.753 -6.90939 406.923 1.04061 407.823 4.38061C408.303 6.17061 409.823 7.09061 411.563 8.11061C413.373 9.05148 414.975 10.3472 416.273 11.9206C417.703 13.8106 419.713 17.9906 421.473 22.2906C423.403 27.0306 425.103 31.9606 425.403 34.1506C426.19 37.7546 427.161 41.3159 428.313 44.8206C429.533 48.8206 430.653 52.5206 430.633 53.5306C430.358 54.9932 429.73 56.3663 428.803 57.5306C427.838 59.0224 426.635 60.3465 425.243 61.4506H425.183C424.233 61.9606 421.593 61.4506 418.963 60.3706C416.333 59.2906 413.773 57.5906 412.563 55.6106C412.563 55.6106 412.483 55.4806 412.423 55.3606C411.153 53.0406 410.603 46.5606 410.133 40.9206C409.793 36.9206 409.493 33.4106 409.063 32.3706C408.633 31.3306 408.203 30.8506 407.753 30.7306C407.066 30.6621 406.373 30.7868 405.753 31.0906C405.453 31.2006 405.163 33.5806 404.923 36.5606C404.551 40.9678 404.504 45.3965 404.783 49.8106C404.893 50.4306 406.073 51.6006 407.613 53.1206C410.264 55.5728 412.55 58.3913 414.403 61.4906C415.875 64.2698 417.097 67.1746 418.053 70.1706C419.148 73.3427 419.962 76.6054 420.483 79.9206C420.543 80.6206 421.733 81.4706 423.093 82.4306C425.093 83.8806 427.453 85.5406 428.153 88.2506C428.562 90.1395 428.462 92.1031 427.863 93.9406C427.261 96.0734 426.241 98.0652 424.863 99.8006C424.814 99.8525 424.761 99.8994 424.703 99.9406C423.993 100.441 420.553 99.7606 417.073 98.5106C413.593 97.2606 410.163 95.6006 408.853 94.0206L408.663 93.7706C407.483 92.0806 405.903 84.2606 404.373 76.6506C403.633 73.0206 402.913 69.4306 402.263 66.6506C400.743 69.0106 399.123 71.6506 397.943 73.8406C396.943 75.7606 396.243 77.2706 396.313 77.8406C396.473 79.0606 397.453 79.8406 398.533 80.7006C399.772 81.5906 400.816 82.7236 401.603 84.0306C402.795 86.5955 403.72 89.2763 404.363 92.0306C405.202 94.9718 405.764 97.9849 406.043 101.031C406.238 103.68 406.572 106.317 407.043 108.931C407.489 111.099 407.763 113.299 407.863 115.511C407.517 116.594 406.905 117.574 406.083 118.361C405.214 119.343 404.203 120.189 403.083 120.871H402.983C402.183 121.171 400.213 120.581 398.373 119.471C396.592 118.512 395.121 117.065 394.133 115.301L394.043 115.091C393.343 113.251 393.583 108.501 393.793 104.381C393.985 102.333 394.009 100.272 393.863 98.2206C393.683 97.5106 393.473 97.2206 393.243 97.1006C392.817 97.0126 392.375 97.0403 391.963 97.1806C391.574 98.3683 391.267 99.5811 391.043 100.811C390.352 103.916 389.891 107.068 389.663 110.241C390.075 111.157 390.632 112.001 391.313 112.741C392.994 114.768 394.378 117.024 395.423 119.441C396.214 121.597 396.813 123.819 397.213 126.081C397.695 128.489 397.963 130.935 398.013 133.391C398.013 133.771 398.723 134.451 399.553 135.231C400.903 136.501 402.463 137.961 402.713 140.071C402.827 141.519 402.555 142.972 401.923 144.281C401.253 145.848 400.25 147.251 398.983 148.391L398.903 148.441C398.273 148.761 395.743 147.941 393.303 146.661C390.863 145.381 388.543 143.841 387.723 142.541L387.603 142.321C386.893 140.931 386.523 135.131 386.153 129.491C385.873 125.171 385.603 120.951 385.253 119.161C383.733 120.441 380.703 125.161 378.723 128.161C378.089 129.239 377.37 130.266 376.573 131.231C375.529 131.816 374.387 132.206 373.203 132.381C371.927 132.69 370.615 132.828 369.303 132.791C368.503 132.651 367.563 131.531 366.743 130.161C365.873 128.748 365.181 127.233 364.683 125.651C364.443 124.501 366.953 121.571 369.883 118.161C372.573 115.021 375.633 111.451 376.993 109.101C378.905 105.569 380.341 101.799 381.263 97.8906C378.548 98.6639 375.877 99.5852 373.263 100.651C371.263 101.421 369.453 102.091 368.563 102.311C367.15 102.557 365.695 102.31 364.443 101.611C362.935 100.896 361.627 99.8207 360.633 98.4806C360.133 97.6106 360.243 95.7306 360.763 93.8806C361.16 92.2754 361.904 90.7768 362.943 89.4906C364.023 88.3506 367.533 87.6006 371.123 86.8306C374.363 86.1406 377.653 85.4306 378.693 84.6406C379.03 84.3869 379.327 84.0834 379.573 83.7406C379.698 83.5647 379.811 83.381 379.913 83.1906C379.149 82.5348 378.452 81.8045 377.833 81.0106C376.409 79.2688 375.2 77.3617 374.233 75.3306C373.763 74.0006 376.613 69.5906 379.913 64.4806C381.013 62.7806 382.153 61.0106 383.243 59.2706L383.283 59.3206ZM381.403 36.7606H381.463C386.013 34.3006 391.013 31.7006 392.663 31.9006H392.753C392.941 31.9022 393.127 31.9467 393.295 32.0307C393.464 32.1147 393.611 32.236 393.726 32.3854C393.841 32.5348 393.92 32.7084 393.957 32.893C393.995 33.0775 393.99 33.2682 393.943 33.4506L393.873 34.0806V34.1406C393.513 37.3206 392.663 44.8106 389.873 51.5706C388.363 55.2306 384.773 60.7806 381.623 65.6606C378.623 70.3306 376.013 74.3406 376.143 74.7306C377.03 76.5488 378.131 78.2543 379.423 79.8106C380.002 80.5985 380.673 81.3136 381.423 81.9406L381.593 81.9906H381.663C383.145 81.773 384.598 81.3872 385.993 80.8406C387.207 80.4921 388.363 79.9665 389.423 79.2806C389.563 79.1306 390.333 77.4906 391.363 75.2806C393.903 69.9006 397.933 61.2806 400.303 60.1106C400.501 59.9742 400.729 59.8855 400.967 59.8515C401.205 59.8175 401.448 59.8392 401.677 59.9147C401.905 59.9902 402.113 60.1177 402.284 60.287C402.455 60.4563 402.585 60.6629 402.663 60.8906C403.083 61.8288 403.417 62.8027 403.663 63.8006C403.666 63.8539 403.666 63.9073 403.663 63.9606C404.463 66.9606 405.393 71.5906 406.333 76.2606C407.833 83.6506 409.333 91.2606 410.333 92.6106C410.358 92.6541 410.388 92.6944 410.423 92.7306C411.423 94.0006 414.683 95.4906 417.753 96.6006C420.643 97.6006 423.223 98.4106 423.513 98.2806C424.643 96.8153 425.469 95.1392 425.943 93.3506C426.436 91.8645 426.532 90.2755 426.223 88.7406C425.713 86.7406 423.693 85.3206 421.953 84.0706C420.213 82.8206 418.633 81.7206 418.483 80.0706C417.981 76.9147 417.201 73.8093 416.153 70.7906C415.236 67.909 414.065 65.1147 412.653 62.4406C410.882 59.5374 408.71 56.8982 406.203 54.6006C404.423 52.8306 403.053 51.4606 402.813 50.2206C402.509 45.6274 402.549 41.0178 402.933 36.4306C403.233 32.7106 403.933 29.6506 405.073 29.2106C406.074 28.7412 407.195 28.5944 408.283 28.7906C409.353 29.0706 410.283 29.8906 410.963 31.6206C411.513 32.9406 411.823 36.6206 412.173 40.7706C412.633 46.2206 413.173 52.4806 414.223 54.4206L414.323 54.5806C415.323 56.1606 417.573 57.5806 419.773 58.5806C421.973 59.5806 423.773 59.9706 424.193 59.7506C425.335 58.7916 426.327 57.6656 427.133 56.4106C427.822 55.5595 428.319 54.5706 428.593 53.5106C428.031 50.7679 427.3 48.0626 426.403 45.4106C425.207 41.8001 424.206 38.1282 423.403 34.4106C423.113 32.4106 421.493 27.6306 419.603 23.0306C417.883 18.8506 415.963 14.8306 414.653 13.1106C413.509 11.7517 412.109 10.6305 410.533 9.81061C408.443 8.57061 406.533 7.44061 405.863 4.86061C404.683 0.460609 411.453 -8.61939 411.463 -8.63939L411.583 -8.76939C412.415 -9.81494 412.947 -11.0667 413.123 -12.3911C413.299 -13.7155 413.113 -15.0628 412.583 -16.2894C411.463 -19.2094 409.653 -22.9394 407.213 -25.0994C406.509 -25.8278 405.616 -26.3463 404.634 -26.597C403.652 -26.8478 402.62 -26.8209 401.653 -26.5194C400.913 -26.2194 391.093 -22.2094 387.243 -24.3294C384.903 -25.6194 384.243 -27.7194 383.553 -30.0394C383.139 -31.7693 382.388 -33.4005 381.343 -34.8394C379.973 -36.5294 376.533 -39.3494 372.893 -42.0094C368.893 -44.9494 364.663 -47.6594 362.763 -48.4294C359.348 -50.0868 356.027 -51.9296 352.813 -53.9494C350.465 -55.433 348.031 -56.7753 345.523 -57.9694C344.427 -57.959 343.346 -57.7134 342.353 -57.2494C340.942 -56.7783 339.611 -56.0974 338.403 -55.2294C338.063 -54.8594 338.093 -52.9094 338.463 -50.6494C338.833 -48.3894 339.693 -45.7194 341.003 -44.3994L341.133 -44.2694C342.763 -42.7794 348.713 -40.7694 353.883 -39.0194C357.823 -37.6894 361.323 -36.5094 362.483 -35.6594C364.003 -34.5494 364.583 -33.4794 364.603 -32.3794C364.529 -31.2816 364.117 -30.2336 363.423 -29.3794C362.703 -28.3194 359.583 -28.3794 355.903 -29.0194C351.355 -29.7381 346.868 -30.8046 342.483 -32.2094C341.333 -32.7294 340.333 -34.3894 339.033 -36.5494C337.4 -39.5298 335.356 -42.2665 332.963 -44.6794C330.709 -46.6896 328.279 -48.4935 325.703 -50.0694C323.02 -51.8117 320.189 -53.3142 317.243 -54.5594C315.683 -55.0994 314.993 -56.8594 314.193 -58.8794C313.393 -60.8994 312.493 -63.1694 310.683 -64.1394C309.27 -64.8146 307.703 -65.1011 306.143 -64.9694C304.292 -64.9373 302.467 -64.5361 300.773 -63.7894C300.583 -63.5394 300.703 -60.8494 301.023 -57.7894C301.363 -54.5394 302.023 -51.0694 303.023 -49.7394L303.113 -49.6294C304.203 -48.3894 311.213 -45.0794 318.043 -41.8594C324.333 -38.8594 330.473 -35.9894 332.043 -34.5994C332.245 -34.4701 332.415 -34.2955 332.539 -34.0894C332.662 -33.8833 332.736 -33.6513 332.754 -33.4118C332.773 -33.1723 332.735 -32.9317 332.645 -32.7092C332.554 -32.4866 332.413 -32.2881 332.233 -32.1294C330.493 -30.1294 321.233 -28.2494 315.363 -27.0794C312.993 -26.5994 311.223 -26.2494 311.033 -26.1394C310.119 -25.2725 309.335 -24.2791 308.703 -23.1894C307.829 -21.9453 307.104 -20.6027 306.543 -19.1894C306.565 -18.9587 306.648 -18.738 306.783 -18.5494C306.811 -18.5314 306.835 -18.5075 306.853 -18.4794C306.949 -18.3725 307.02 -18.2464 307.063 -18.1094C307.343 -17.6694 307.733 -17.1094 308.173 -16.5694C309.401 -14.9474 310.822 -13.48 312.403 -12.1994C312.743 -11.9694 317.263 -13.5294 322.513 -15.3394C328.003 -17.2394 334.253 -19.3994 338.173 -19.9794C345.453 -21.0794 352.983 -20.0894 356.113 -19.6794L356.733 -19.5994C356.93 -19.5982 357.124 -19.5512 357.299 -19.4622C357.475 -19.3731 357.627 -19.2445 357.745 -19.0864C357.862 -18.9283 357.941 -18.7451 357.976 -18.5513C358.01 -18.3574 357.999 -18.1582 357.943 -17.9694C357.713 -16.2094 353.563 -11.5594 349.943 -7.55939C351.733 -6.03939 354.003 -2.82939 356.313 0.440605C357.253 1.7806 358.203 3.12061 359.113 4.35061C360.063 3.02061 361.113 1.48061 362.113 -0.0693893C364.783 -4.06939 367.513 -8.18939 369.523 -9.39939C371.171 -10.3485 373.067 -10.7773 374.963 -10.6294C377.025 -10.5562 379.024 -9.90469 380.733 -8.74939L380.823 -8.66939C389.313 -1.06939 374.303 9.24061 373.423 9.84061C371.758 11.0033 369.809 11.6944 367.783 11.8406C365.89 12.0415 363.981 11.6687 362.303 10.7706C360.774 9.66845 359.442 8.31612 358.363 6.77061L358.273 6.66061C357.103 5.14061 355.863 3.39061 354.643 1.66061C351.943 -2.15939 349.293 -5.90939 347.983 -6.33939C346.156 -6.82632 344.247 -6.915 342.383 -6.59939C340.323 -6.32939 338.533 -5.79939 338.093 -5.20939C337.292 -3.78963 336.823 -2.20652 336.723 -0.579391C336.719 -0.556236 336.719 -0.532547 336.723 -0.509392C336.723 -0.349388 336.723 -0.189392 336.723 -0.0193939C336.563 1.37342 336.869 2.77987 337.593 3.98061C338.253 4.87061 340.023 6.70061 342.053 8.80061C345.943 12.8006 350.753 17.8006 351.053 19.6806C351.114 19.8675 351.13 20.066 351.101 20.2604C351.071 20.4547 350.996 20.6394 350.883 20.7997C350.769 20.9601 350.619 21.0916 350.446 21.1838C350.272 21.2759 350.079 21.3262 349.883 21.3306L349.273 21.4206C346.153 21.9206 338.653 23.1206 331.343 22.2306C327.413 21.7506 321.103 19.7706 315.553 18.0306C310.263 16.3706 305.693 14.9406 305.353 15.1806C303.849 16.5194 302.506 18.0296 301.353 19.6806C300.669 20.4586 300.143 21.362 299.803 22.3406C300.397 23.7382 301.159 25.058 302.073 26.2706C302.719 27.2936 303.503 28.2224 304.403 29.0306C304.583 29.1306 306.403 29.4306 308.753 29.8406C314.613 30.8406 323.953 32.4506 325.753 34.4206C325.937 34.5742 326.083 34.7684 326.179 34.9879C326.275 35.2073 326.319 35.4461 326.308 35.6855C326.296 35.9248 326.229 36.1582 326.112 36.3673C325.995 36.5764 325.831 36.7555 325.633 36.8906C324.063 38.3306 318.013 41.4006 311.803 44.5406C305.073 47.9606 298.153 51.4606 297.103 52.7306L297.043 52.8006C296.043 54.1506 295.513 57.6406 295.263 60.8906C295.018 62.8816 294.988 64.8932 295.173 66.8906C296.891 67.5826 298.731 67.9227 300.583 67.8906C302.151 67.9571 303.709 67.6124 305.103 66.8906C306.873 65.8906 307.723 63.5406 308.453 61.5206C309.183 59.5006 309.843 57.7006 311.383 57.1206C314.295 55.7958 317.083 54.2128 319.713 52.3906C322.246 50.7483 324.622 48.8771 326.813 46.8006C329.145 44.3242 331.115 41.5298 332.663 38.5006C333.893 36.3106 334.843 34.6206 335.983 34.0706C340.327 32.5493 344.78 31.356 349.303 30.5006C352.963 29.8006 356.093 29.6106 356.833 30.6506C357.558 31.493 357.999 32.5429 358.093 33.6506C358.093 34.7606 357.553 35.8406 356.093 37.0006C354.963 37.8806 351.493 39.1606 347.593 40.6006C342.473 42.4906 336.593 44.6706 334.993 46.2106L334.863 46.3406C333.593 47.6906 332.863 50.2706 332.503 52.6606C332.143 55.0506 332.223 56.8806 332.573 57.2406C333.801 58.0829 335.15 58.7337 336.573 59.1706C337.575 59.6085 338.659 59.8267 339.753 59.8106C340.736 59.3763 341.679 58.8577 342.573 58.2606L342.733 58.1606C343.943 57.4206 345.423 56.4806 346.953 55.5106C350.109 53.41 353.373 51.4774 356.733 49.7206C358.638 48.7461 360.46 47.6191 362.183 46.3506C364.083 45.0206 366.183 43.4606 368.093 41.9106C367.667 41.599 367.179 41.3809 366.663 41.2706C366.491 41.2327 366.331 41.1497 366.201 41.0303C366.071 40.9109 365.975 40.7592 365.923 40.5906C365.093 40.1072 364.347 39.4926 363.713 38.7706C362.923 37.7706 362.763 35.2806 363.113 32.7706C363.344 30.5642 364.061 28.4364 365.213 26.5406C366.393 24.8806 371.003 23.2206 375.713 21.5406C380.043 19.9806 384.453 18.3906 385.803 17.0506C388.493 14.3706 388.133 9.69061 387.463 8.38061C387.34 8.13926 387.317 7.85881 387.401 7.60094C387.484 7.34308 387.667 7.12894 387.908 7.00561C388.149 6.88228 388.43 6.85989 388.688 6.94334C388.945 7.02679 389.16 7.20926 389.283 7.45061C390.143 9.14061 390.633 15.1106 387.233 18.5006C385.583 20.1606 380.943 21.8206 376.403 23.5006C371.863 25.1806 367.693 26.6306 366.873 27.7806C365.91 29.4057 365.313 31.2212 365.123 33.1006C364.843 35.1506 364.873 37.0206 365.323 37.6006C366.623 38.8764 368.211 39.8197 369.953 40.3506C370.146 40.4211 370.343 40.4812 370.543 40.5306C371.678 40.8955 372.898 40.8955 374.033 40.5306C375.033 40.1406 377.293 38.9206 379.873 37.5306L381.463 36.6706L381.403 36.7606ZM383.303 38.0506C386.233 43.8206 386.383 50.3206 386.003 54.7306C386.752 53.44 387.42 52.1041 388.003 50.7306C390.653 44.2806 391.493 37.0706 391.843 33.9406C390.283 34.3406 386.773 36.1606 383.303 38.0206V38.0506ZM381.823 84.0506C381.65 84.3976 381.453 84.7318 381.233 85.0506C380.866 85.551 380.432 85.9986 379.943 86.3806C378.533 87.4506 375.013 88.2006 371.563 88.9406C368.283 89.6406 365.073 90.3306 364.443 91.0006C363.624 92.0421 363.044 93.2505 362.743 94.5406C362.371 95.4941 362.257 96.529 362.413 97.5406C363.213 98.531 364.238 99.3161 365.403 99.8306C366.235 100.309 367.201 100.502 368.153 100.381C368.883 100.201 370.623 99.5406 372.603 98.7906C376.453 97.3306 381.193 95.5406 382.603 95.9006H382.693C382.863 95.9265 383.026 95.991 383.167 96.0893C383.309 96.1875 383.426 96.3168 383.51 96.4674C383.594 96.618 383.643 96.7858 383.652 96.9579C383.661 97.1301 383.631 97.302 383.563 97.4606V97.5306L383.473 97.9006C382.496 102.17 380.945 106.288 378.863 110.141C377.423 112.631 374.293 116.291 371.533 119.501C368.963 122.501 366.753 125.081 366.783 125.241C367.237 126.6 367.848 127.902 368.603 129.121C368.911 129.72 369.294 130.278 369.743 130.781C370.808 130.781 371.87 130.65 372.903 130.391C373.762 130.262 374.6 130.016 375.393 129.661C375.483 129.591 376.183 128.511 377.113 127.061C379.483 123.401 383.243 117.591 385.113 116.921C385.306 116.817 385.521 116.762 385.74 116.759C385.959 116.756 386.176 116.805 386.372 116.903C386.567 117.001 386.737 117.145 386.866 117.322C386.995 117.499 387.08 117.704 387.113 117.921C387.643 119.421 387.953 124.341 388.283 129.391C388.633 134.831 388.993 140.391 389.513 141.391V141.461C390.113 142.461 392.233 143.781 394.293 144.851C395.491 145.517 396.731 146.109 398.003 146.621C398.904 145.71 399.621 144.634 400.113 143.451C400.587 142.475 400.8 141.393 400.733 140.311C400.573 138.931 399.303 137.751 398.213 136.721C397.123 135.691 395.963 134.611 396.023 133.291C395.967 130.996 395.709 128.71 395.253 126.461C394.881 124.321 394.319 122.22 393.573 120.181C392.589 117.947 391.3 115.86 389.743 113.981C388.603 112.491 387.743 111.351 387.673 110.351C387.9 106.986 388.378 103.644 389.103 100.351C389.703 97.6106 390.533 95.3506 391.563 95.1606C392.383 94.9001 393.263 94.9001 394.083 95.1606C394.564 95.3957 394.98 95.7444 395.295 96.1765C395.61 96.6087 395.816 97.1112 395.893 97.6406C396.116 99.8985 396.116 102.173 395.893 104.431C395.693 108.351 395.463 112.861 396.023 114.311V114.421C396.848 115.797 398.034 116.921 399.453 117.671C400.295 118.274 401.251 118.699 402.263 118.921C403.117 118.358 403.893 117.685 404.573 116.921C405.109 116.411 405.537 115.799 405.833 115.121C405.673 113.13 405.402 111.151 405.023 109.191C404.532 106.492 404.191 103.767 404.003 101.031C403.724 98.1553 403.188 95.3107 402.403 92.5306C401.804 89.938 400.946 87.412 399.843 84.9906C399.17 83.9377 398.297 83.0272 397.273 82.3106C395.843 81.1706 394.563 80.1506 394.273 78.1206C394.133 77.1206 394.913 75.1206 396.123 72.9106C397.593 70.1506 399.753 66.7506 401.573 63.9806C401.405 63.3539 401.205 62.7364 400.973 62.1306C399.113 63.6106 395.513 71.2806 393.213 76.1806C392.559 77.7322 391.79 79.233 390.913 80.6706C389.637 81.6128 388.205 82.3236 386.683 82.7706C385.118 83.3546 383.495 83.7735 381.843 84.0206L381.823 84.0506ZM305.823 -16.4194C304.645 -15.8491 303.369 -15.5096 302.063 -15.4194C300.506 -15.2896 298.946 -15.6385 297.593 -16.4194C295.933 -17.4194 293.733 -20.7194 291.593 -23.9494C289.453 -27.1794 287.513 -30.0794 286.533 -30.4594C285.114 -30.8841 283.619 -30.9933 282.153 -30.7794C280.543 -30.6094 279.153 -30.2494 278.823 -29.8394C278.108 -28.6217 277.696 -27.2497 277.623 -25.8394C277.457 -24.7605 277.661 -23.6572 278.203 -22.7094C278.703 -21.9994 280.073 -20.4994 281.653 -18.7694C284.703 -15.4294 288.463 -11.3094 288.653 -9.76939C288.704 -9.59162 288.713 -9.40434 288.68 -9.22241C288.646 -9.04049 288.57 -8.86893 288.459 -8.72138C288.347 -8.57383 288.202 -8.45434 288.037 -8.37241C287.871 -8.29047 287.688 -8.24835 287.503 -8.24939L287.013 -8.18939C282.238 -7.44446 277.383 -7.35362 272.583 -7.91939C269.423 -8.38939 264.403 -10.1194 259.993 -11.6294C255.833 -13.0594 252.253 -14.2894 252.063 -14.1594C250.838 -13.1336 249.741 -11.9653 248.793 -10.6794C248.277 -10.1024 247.849 -9.45198 247.523 -8.74939C247.967 -7.64523 248.541 -6.59787 249.233 -5.62939C249.728 -4.78322 250.337 -4.00928 251.043 -3.32939C251.163 -3.25939 252.563 -2.98939 254.443 -2.60939C259.153 -1.66939 266.643 -0.179398 268.083 1.48061C268.249 1.62638 268.379 1.80899 268.463 2.01389C268.546 2.21878 268.58 2.44029 268.563 2.66077C268.545 2.88126 268.476 3.0946 268.362 3.28381C268.247 3.47302 268.09 3.63287 267.903 3.75061C266.603 4.88061 261.673 7.22061 256.623 9.61061C251.173 12.1906 245.573 14.8406 244.733 15.8006L244.673 15.8806C243.913 16.8806 243.383 19.6606 243.113 22.2306C242.906 23.7615 242.816 25.306 242.843 26.8506C244.165 27.4194 245.584 27.7251 247.023 27.7506C248.24 27.8505 249.461 27.6262 250.563 27.1006C251.943 26.3506 252.663 24.5506 253.273 22.9906C253.883 21.4306 254.503 19.8606 255.833 19.4006C258.178 18.4096 260.43 17.2115 262.563 15.8206C264.618 14.564 266.552 13.1213 268.343 11.5106C270.251 9.58986 271.877 7.40813 273.173 5.03061C274.223 3.27061 275.043 1.92061 276.013 1.47061C279.542 0.3358 283.153 -0.530014 286.813 -1.11939C289.813 -1.60939 292.403 -1.67939 293.043 -0.74939C293.633 -0.0318146 293.983 0.853264 294.043 1.78061C293.995 2.35386 293.808 2.90692 293.5 3.3927C293.192 3.87848 292.771 4.28259 292.273 4.57061C291.273 5.27061 288.503 6.23061 285.333 7.30061C281.203 8.70061 276.463 10.3006 275.193 11.4806L275.093 11.5806C273.985 12.997 273.293 14.6935 273.093 16.4806C272.806 17.6191 272.768 18.8063 272.983 19.9606C273.926 20.6472 274.968 21.1867 276.073 21.5606C276.832 21.9134 277.656 22.1073 278.493 22.1306C280.486 21.1537 282.422 20.0653 284.293 18.8706C286.875 17.2403 289.546 15.7547 292.293 14.4206C295.15 12.9428 297.864 11.2055 300.403 9.23061C302.832 7.55783 305.084 5.6412 307.123 3.5106C307.94 2.37907 308.528 1.09826 308.853 -0.259392C309.433 -2.1694 309.953 -3.87939 311.853 -4.95939C314.603 -6.48939 330.473 -2.95939 334.853 -1.95939C335.051 -3.5823 335.578 -5.14766 336.403 -6.55939C337.173 -7.55939 339.513 -8.40939 342.053 -8.73939C344.047 -9.05606 346.082 -8.995 348.053 -8.55939C351.163 -11.9694 354.773 -15.9594 355.693 -17.6794C352.563 -18.0894 345.403 -18.9694 338.463 -17.9694C334.743 -17.4094 328.583 -15.2794 323.173 -13.4094C317.413 -11.4094 312.453 -9.71939 311.273 -10.4894C309.528 -11.9112 307.966 -13.5436 306.623 -15.3494C306.333 -15.7194 306.073 -16.0894 305.833 -16.4494L305.823 -16.4194ZM344.023 59.8706C343.596 61.3169 342.851 62.6494 341.843 63.7706C340.818 64.9512 339.463 65.7976 337.953 66.2006C336.083 66.6506 332.193 65.8506 328.383 65.0606C324.743 64.3106 321.183 63.5806 320.203 64.0006C318.898 64.6995 317.759 65.6716 316.863 66.8506C315.863 68.1006 315.103 69.3306 315.163 69.8506C315.52 71.2276 316.207 72.4973 317.163 73.5506C317.8 74.4302 318.717 75.0682 319.763 75.3606C320.623 75.5206 322.653 75.6206 324.983 75.7406C329.503 75.9706 335.083 76.2606 336.313 77.2206C336.473 77.3125 336.609 77.4399 336.712 77.5931C336.815 77.7463 336.881 77.921 336.905 78.1038C336.929 78.2867 336.911 78.4726 336.852 78.6472C336.792 78.8218 336.693 78.9804 336.563 79.1106L336.293 79.4606C333.417 83.3454 330.026 86.8207 326.213 89.7906C323.643 91.6706 318.863 93.9806 314.653 96.0006C310.653 97.9106 307.283 99.5506 307.233 99.7806C307.086 101.37 307.127 102.971 307.353 104.551C307.388 105.323 307.544 106.086 307.813 106.811C308.905 107.281 310.05 107.616 311.223 107.811C312.168 108.068 313.144 108.193 314.123 108.181C314.243 108.181 315.443 107.361 317.053 106.301C321.053 103.661 327.423 99.4506 329.623 99.6206C329.844 99.607 330.065 99.6452 330.268 99.7322C330.472 99.8192 330.652 99.9525 330.795 100.122C330.938 100.291 331.039 100.491 331.091 100.706C331.142 100.921 331.143 101.145 331.093 101.361C330.963 103.091 329.093 108.211 327.193 113.461C325.133 119.131 323.013 124.951 323.093 126.221V126.361C323.303 127.631 324.843 129.931 326.443 131.931C327.369 133.17 328.392 134.334 329.503 135.411C330.842 134.878 332.068 134.093 333.113 133.101C334.025 132.312 334.714 131.298 335.113 130.161C335.573 128.661 334.813 126.871 334.113 125.331C333.413 123.791 332.793 122.241 333.413 120.981C334.381 118.621 335.14 116.182 335.683 113.691C336.256 111.355 336.618 108.972 336.763 106.571C336.763 103.865 336.386 101.172 335.643 98.5706C335.153 96.5706 334.783 95.0506 335.163 94.0406C336.875 90.7537 338.834 87.6013 341.023 84.6106C342.823 82.1406 344.613 80.2806 345.713 80.4906C346.632 80.5924 347.496 80.9807 348.183 81.6006C348.555 82.041 348.813 82.5651 348.937 83.1279C349.061 83.6906 349.046 84.275 348.893 84.8306C348.703 85.9906 347.373 88.6606 345.893 91.6606C343.943 95.5506 341.703 100.021 341.623 101.751V101.891C341.83 103.667 342.522 105.352 343.623 106.761C344.218 107.779 345.031 108.653 346.003 109.321C347.149 109.149 348.264 108.812 349.313 108.321C350.103 108.04 350.825 107.597 351.433 107.021C352.171 104.929 352.782 102.795 353.263 100.631C353.956 97.6606 354.807 94.7298 355.813 91.8506C356.813 88.8167 357.529 85.6967 357.953 82.5306C358.507 79.6344 358.762 76.6889 358.713 73.7406C358.5 72.3599 358.018 71.0347 357.293 69.8406C356.363 68.0706 355.533 66.4906 356.153 64.3506C357.213 60.7506 365.723 57.3506 365.743 57.3506L365.923 57.3006C366.89 56.9461 367.742 56.3354 368.388 55.534C369.035 54.7325 369.451 53.7704 369.593 52.7506C370.053 50.3206 370.363 47.0506 369.593 44.5906C369.498 44.2699 369.375 43.9586 369.223 43.6606C367.223 45.2506 365.133 46.8306 363.223 48.1806C361.393 49.5308 359.453 50.725 357.423 51.7506C354.157 53.4673 350.983 55.3532 347.913 57.4006L343.973 59.8706H344.023ZM372.023 8.30061L372.183 8.17061C372.183 8.17061 386.183 -1.11939 379.373 -7.16939C378.012 -8.03934 376.438 -8.52005 374.823 -8.55939C373.334 -8.68661 371.842 -8.35882 370.543 -7.61939C368.933 -6.61939 366.333 -2.7394 363.783 1.09061C362.613 2.85061 361.463 4.59061 360.373 6.09061C361.181 7.21608 362.163 8.20522 363.283 9.02061C364.6 9.71353 366.094 9.99568 367.573 9.8306C369.182 9.72237 370.733 9.18358 372.063 8.27061L372.023 8.30061Z" fill="#C7E6EE"/>
</svg>
