<svg width="31" height="30" viewBox="0 0 31 30" fill="none"
    xmlns="http://www.w3.org/2000/svg">
    <defs>
        <linearGradient id="paint0_linear_21_424" x1="6.74562" y1="6.24562" x2="25.8844" y2="25.3844" gradientUnits="userSpaceOnUse">
            <stop stop-color="#2AA4F4"/>
            <stop offset="1" stop-color="#007AD9"/>
        </linearGradient>
    </defs>
    <path d="M15.5 2.5C8.59625 2.5 3 8.09625 3 15C3 21.9037 8.59625 27.5 15.5 27.5C22.4037 27.5 28 21.9037 28 15C28 8.09625 22.4037 2.5 15.5 2.5Z" fill="url(#paint0_linear_21_424)"/>
    <path d="M17.1919 18.3131H20.4269L20.935 15.0268H17.1919V13.2306C17.1919 11.8656 17.6381 10.6549 18.915 10.6549H20.9669V7.78745C20.6062 7.7387 19.8437 7.63245 18.4031 7.63245C15.3944 7.63245 13.6306 9.2212 13.6306 12.8412V15.0274H10.5375V18.3137H13.63V27.3462C14.2425 27.4374 14.8631 27.4999 15.5 27.4999C16.0756 27.4999 16.6375 27.4474 17.1919 27.3724V18.3131Z" fill="white"/>

</svg>
