<svg width="48" height="48" viewBox="0 0 48 48" fill="none"
    xmlns="http://www.w3.org/2000/svg">
    <rect width="48" height="48" rx="16" fill="#2CBBF3"/>
    <path d="M21.034 17.963L18.491 20.5C18.024 20.966 17.595 21.393 17.256 21.78C17.0269 22.0354 16.8199 22.3097 16.637 22.6L16.613 22.575L16.518 22.481C16.0757 22.0522 15.5558 21.7114 14.986 21.477L14.863 21.427L14.484 21.277C14.366 21.2304 14.2614 21.1552 14.1797 21.0582C14.098 20.9611 14.0418 20.8452 14.0161 20.721C13.9904 20.5967 13.996 20.4681 14.0325 20.3465C14.069 20.225 14.1351 20.1145 14.225 20.025C15.345 18.907 16.69 17.566 17.34 17.297C17.9043 17.0602 18.5223 16.981 19.128 17.068C19.674 17.149 20.19 17.43 21.034 17.963ZM25.377 31.313C25.582 31.521 25.717 31.668 25.841 31.825C26.003 32.032 26.148 32.252 26.275 32.483C26.417 32.743 26.528 33.02 26.749 33.575C26.7926 33.6798 26.8613 33.7722 26.9491 33.8441C27.0368 33.9161 27.141 33.9653 27.2523 33.9874C27.3636 34.0096 27.4786 34.004 27.5872 33.9711C27.6958 33.9382 27.7947 33.8791 27.875 33.799L27.959 33.716C29.079 32.599 30.424 31.258 30.694 30.611C30.9312 30.0489 31.0104 29.4327 30.923 28.829C30.842 28.284 30.561 27.769 30.026 26.927L27.474 29.471C26.996 29.948 26.558 30.385 26.161 30.727C25.924 30.933 25.664 31.137 25.377 31.313Z" fill="white"/>
    <path fill-rule="evenodd" clip-rule="evenodd" d="M26.4469 28.377L32.2939 22.547C33.1359 21.708 33.5569 21.288 33.7779 20.755C33.9999 20.22 33.9999 19.627 33.9999 18.44V17.873C33.9999 16.047 33.9999 15.134 33.4309 14.567C32.8619 14 31.9469 14 30.1159 14H29.5459C28.3559 14 27.7609 14 27.2259 14.221C26.6899 14.442 26.2689 14.862 25.4259 15.701L19.5799 21.531C18.5959 22.511 17.9859 23.12 17.7499 23.707C17.6763 23.8852 17.6383 24.0762 17.6379 24.269C17.6379 25.071 18.2849 25.717 19.5799 27.008L19.7539 27.181L21.7919 25.112C21.8611 25.0418 21.9434 24.9859 22.0341 24.9475C22.1248 24.9091 22.2223 24.889 22.3208 24.8883C22.4193 24.8875 22.517 24.9062 22.6083 24.9432C22.6996 24.9802 22.7827 25.0349 22.8529 25.104C22.9231 25.1731 22.979 25.2554 23.0174 25.3462C23.0558 25.4369 23.0759 25.5343 23.0767 25.6328C23.0774 25.7314 23.0588 25.8291 23.0217 25.9204C22.9847 26.0117 22.9301 26.0948 22.8609 26.165L20.8159 28.24L20.9529 28.377C22.2479 29.667 22.8959 30.313 23.6999 30.313C23.8779 30.313 24.0479 30.282 24.2189 30.219C24.8219 29.997 25.4379 29.383 26.4469 28.377ZM29.1939 21.531C28.8292 21.8944 28.3353 22.0984 27.8204 22.0984C27.3056 22.0984 26.8117 21.8944 26.4469 21.531C26.2667 21.3515 26.1236 21.1382 26.026 20.9032C25.9284 20.6683 25.8782 20.4164 25.8782 20.162C25.8782 19.9076 25.9284 19.6557 26.026 19.4208C26.1236 19.1858 26.2667 18.9725 26.4469 18.793C26.8117 18.4296 27.3056 18.2256 27.8204 18.2256C28.3353 18.2256 28.8292 18.4296 29.1939 18.793C29.3742 18.9725 29.5172 19.1858 29.6148 19.4208C29.7124 19.6557 29.7627 19.9076 29.7627 20.162C29.7627 20.4164 29.7124 20.6683 29.6148 20.9032C29.5172 21.1382 29.3742 21.3515 29.1939 21.531Z" fill="white"/>
</svg>
