<svg width="30" height="30" viewBox="0 0 30 30" fill="none"
    xmlns="http://www.w3.org/2000/svg">
    <defs>
        <clipPath id="clip0_26_587">
            <rect width="30" height="30" fill="white"/>
        </clipPath>
    </defs>
    <g clip-path="url(#clip0_26_587)">
        <path d="M15 -0.05C9.97547 -0.05 5.95 3.71939 5.95 8.4375V12.1378C4.24992 12.1615 2.95 13.3914 2.95 15V27.1875C2.95 28.8119 4.27547 30.05 6 30.05H24C25.7245 30.05 27.05 28.8119 27.05 27.1875V15C27.05 13.3914 25.7501 12.1615 24.05 12.1378V8.4375C24.05 3.71939 20.0245 -0.05 15 -0.05ZM24.95 15V27.1875C24.95 27.4564 24.8547 27.677 24.6908 27.8307C24.5266 27.9846 24.2896 28.075 24 28.075H6C5.71043 28.075 5.4734 27.9846 5.3092 27.8307C5.14529 27.677 5.05 27.4564 5.05 27.1875V15C5.05 14.7311 5.14529 14.5105 5.3092 14.3568C5.4734 14.2029 5.71043 14.1125 6 14.1125H7H23H24C24.2896 14.1125 24.5266 14.2029 24.6908 14.3568C24.8547 14.5105 24.95 14.7311 24.95 15ZM8.05 12.1375V8.4375C8.05 4.81185 11.1245 1.925 15 1.925C18.8755 1.925 21.95 4.81185 21.95 8.4375V12.1375H8.05Z" fill="#49717D" stroke="#49717D" stroke-width="0.1"/>
        <path d="M15 16.825C13.2755 16.825 11.95 18.0631 11.95 19.6875C11.95 20.9178 12.7502 21.959 13.95 22.349V24.375C13.95 24.6686 14.0547 24.9167 14.2408 25.0912C14.4266 25.2654 14.6896 25.3625 15 25.3625C15.3104 25.3625 15.5734 25.2654 15.7592 25.0912C15.9453 24.9167 16.05 24.6686 16.05 24.375V22.349C17.2498 21.959 18.05 20.9178 18.05 19.6875C18.05 18.0631 16.7245 16.825 15 16.825ZM15 20.575C14.7104 20.575 14.4734 20.4846 14.3092 20.3307C14.1453 20.177 14.05 19.9564 14.05 19.6875C14.05 19.4186 14.1453 19.198 14.3092 19.0443C14.4734 18.8904 14.7104 18.8 15 18.8C15.2896 18.8 15.5266 18.8904 15.6908 19.0443C15.8547 19.198 15.95 19.4186 15.95 19.6875C15.95 19.9564 15.8547 20.177 15.6908 20.3307C15.5266 20.4846 15.2896 20.575 15 20.575Z" fill="#49717D" stroke="#49717D" stroke-width="0.1"/>
    </g>
</svg>
