<svg width="21" height="22" viewBox="0 0 21 22" fill="none"
    xmlns="http://www.w3.org/2000/svg">
    <path d="M7.15191 17.7768C7.04264 17.7768 6.93582 17.7491 6.84496 17.6971C6.7541 17.6452 6.68328 17.5713 6.64146 17.4849C6.59964 17.3985 6.5887 17.3035 6.61002 17.2117C6.63134 17.12 6.68397 17.0358 6.76124 16.9696L13.7366 11L6.76124 5.03045C6.65763 4.94177 6.59942 4.82151 6.59942 4.6961C6.59942 4.5707 6.65763 4.45043 6.76124 4.36176C6.86486 4.27308 7.00538 4.22327 7.15191 4.22327C7.29844 4.22327 7.43897 4.27308 7.54258 4.36176L14.9085 10.6657C14.9598 10.7096 15.0005 10.7617 15.0283 10.8191C15.0561 10.8765 15.0704 10.9379 15.0704 11C15.0704 11.0621 15.0561 11.1236 15.0283 11.181C15.0005 11.2384 14.9598 11.2905 14.9085 11.3344L7.54258 17.6383C7.49134 17.6823 7.43044 17.7172 7.3634 17.7409C7.29635 17.7647 7.22448 17.7769 7.15191 17.7768Z" fill="#13566B"/>
</svg>
