<svg width="48" height="48" viewBox="0 0 48 48" fill="none"
    xmlns="http://www.w3.org/2000/svg">
    <rect width="48" height="48" rx="16" fill="#2CBBF3"/>
    <path d="M24 14C18.4861 14 14 18.4861 14 24C14 29.5139 18.4861 34 24 34C29.5139 34 34 29.5139 34 24C34 18.4861 29.5139 14 24 14ZM29.2043 20.6486L22.7428 28.3409C22.6719 28.4253 22.5837 28.4935 22.4842 28.5409C22.3846 28.5882 22.2761 28.6136 22.1659 28.6154H22.1529C22.0451 28.6153 21.9385 28.5926 21.84 28.5487C21.7415 28.5048 21.6534 28.4407 21.5813 28.3606L18.812 25.2837C18.7417 25.2091 18.687 25.1212 18.6511 25.0251C18.6152 24.9291 18.5989 24.8268 18.6031 24.7244C18.6073 24.622 18.632 24.5214 18.6756 24.4286C18.7192 24.3359 18.7809 24.2527 18.8572 24.1842C18.9334 24.1156 19.0225 24.0629 19.1193 24.0293C19.2162 23.9957 19.3188 23.9817 19.4211 23.9883C19.5234 23.9949 19.6234 24.0219 19.7151 24.0676C19.8068 24.1134 19.8885 24.177 19.9553 24.2548L22.1327 26.674L28.0264 19.6591C28.1586 19.5063 28.3457 19.4116 28.5471 19.3956C28.7486 19.3795 28.9483 19.4434 29.103 19.5733C29.2577 19.7033 29.3551 19.889 29.3741 20.0902C29.393 20.2914 29.3321 20.492 29.2043 20.6486Z" fill="white"/>
</svg>
