<svg width="48" height="48" viewBox="0 0 48 48" fill="none"
    xmlns="http://www.w3.org/2000/svg">
    <path d="M44.7614 13.7877C44.3322 13.4294 43.8109 13.199 43.257 13.1227C42.7032 13.0465 42.139 13.1275 41.629 13.3565L32.1445 17.572L26.6222 7.63172C26.3624 7.16404 25.9823 6.77434 25.5212 6.50302C25.0601 6.2317 24.5349 6.08862 23.9999 6.08862C23.4649 6.08862 22.9396 6.2317 22.4785 6.50302C22.0174 6.77434 21.6373 7.16404 21.3775 7.63172L15.8549 17.5718L6.36904 13.3555C5.85866 13.1288 5.29511 13.0489 4.74184 13.1251C4.18856 13.2012 3.66753 13.4303 3.23739 13.7865C2.80725 14.1428 2.48509 14.612 2.30717 15.1414C2.12926 15.6708 2.10265 16.2393 2.23035 16.783L7.0011 37.096C7.09187 37.4893 7.26186 37.8599 7.50068 38.1852C7.7395 38.5106 8.04213 38.7838 8.3901 38.9883C8.73991 39.1942 9.12752 39.3276 9.52991 39.3808C9.93231 39.4339 10.3413 39.4057 10.7325 39.2977C19.4119 36.9016 28.5782 36.9007 37.258 39.2952C37.6491 39.4031 38.0579 39.4312 38.4601 39.3781C38.8622 39.3249 39.2497 39.1914 39.5993 38.9857C39.9471 38.7814 40.2497 38.5084 40.4885 38.1833C40.7273 37.8582 40.8973 37.4879 40.9883 37.0949L45.7677 16.7853C45.8977 16.2416 45.8723 15.6722 45.6944 15.1422C45.5164 14.6122 45.193 14.143 44.7612 13.7879L44.7614 13.7877ZM31.4916 30.4715C31.4713 30.6675 31.4124 30.8575 31.3185 31.0308C31.2246 31.204 31.0974 31.357 30.9443 31.481C30.7911 31.6051 30.615 31.6976 30.426 31.7535C30.237 31.8093 30.0389 31.8273 29.8429 31.8065C25.9582 31.3985 22.0415 31.3985 18.1568 31.8065C17.7622 31.8461 17.368 31.7278 17.0604 31.4775C16.7528 31.2272 16.5568 30.8653 16.5153 30.4709C16.4738 30.0765 16.5902 29.6817 16.839 29.3729C17.0878 29.0641 17.4487 28.8664 17.8429 28.823C21.9363 28.393 26.0634 28.393 30.1568 28.823C30.3527 28.8436 30.5426 28.9025 30.7158 28.9965C30.8889 29.0905 31.0418 29.2177 31.1658 29.3708C31.2897 29.5239 31.3823 29.6999 31.4383 29.8888C31.4942 30.0777 31.5124 30.2757 31.4918 30.4717L31.4916 30.4715Z" fill="#2CBBF3"/>
</svg>
