<svg width="141" height="140" viewBox="0 0 141 140" fill="none"
    xmlns="http://www.w3.org/2000/svg">
    <circle cx="70.5" cy="70" r="70" fill="#2CBBF3" fill-opacity="0.2"/>
    <circle cx="71" cy="70" r="50" fill="#2CBBF3" fill-opacity="0.2"/>
    <path d="M102.142 54.6816C101.498 54.1441 100.717 53.7985 99.8858 53.6841C99.055 53.5697 98.2088 53.6912 97.4437 54.0347L83.217 60.358L74.9336 45.4476C74.5439 44.7461 73.9737 44.1615 73.2821 43.7545C72.5904 43.3475 71.8025 43.1329 71 43.1329C70.1975 43.1329 69.4096 43.3475 68.718 43.7545C68.0264 44.1615 67.4562 44.7461 67.0665 45.4476L58.7825 60.3578L44.5538 54.0333C43.7882 53.6931 42.9429 53.5734 42.113 53.6876C41.2831 53.8019 40.5015 54.1455 39.8563 54.6798C39.2111 55.2142 38.7279 55.918 38.461 56.7121C38.1941 57.5062 38.1542 58.359 38.3458 59.1745L45.5019 89.644C45.6381 90.2339 45.893 90.7898 46.2513 91.2779C46.6095 91.7659 47.0634 92.1757 47.5854 92.4824C48.1101 92.7912 48.6915 92.9915 49.2951 93.0712C49.8987 93.1509 50.5122 93.1085 51.0991 92.9465C64.1181 89.3524 77.8675 89.3511 90.8872 92.9428C91.4739 93.1046 92.087 93.1468 92.6903 93.0671C93.2936 92.9873 93.8747 92.7872 94.3992 92.4785C94.9209 92.1721 95.3747 91.7626 95.7329 91.2749C96.0912 90.7873 96.3463 90.2318 96.4827 89.6424L103.652 59.1779C103.847 58.3623 103.809 57.5083 103.542 56.7133C103.275 55.9184 102.79 55.2144 102.142 54.6819L102.142 54.6816ZM82.2377 79.7072C82.2071 80.0012 82.1189 80.2863 81.978 80.5462C81.8371 80.806 81.6464 81.0356 81.4166 81.2216C81.1869 81.4076 80.9227 81.5465 80.6393 81.6302C80.3558 81.714 80.0586 81.741 79.7646 81.7097C73.9376 81.0978 68.0625 81.0978 62.2354 81.7097C61.6435 81.7691 61.0522 81.5917 60.5908 81.2162C60.1294 80.8408 59.8354 80.2979 59.7732 79.7063C59.711 79.1148 59.8855 78.5226 60.2587 78.0594C60.6319 77.5961 61.1733 77.2995 61.7646 77.2345C67.9047 76.5896 74.0954 76.5896 80.2354 77.2345C80.5293 77.2653 80.8142 77.3538 81.0739 77.4948C81.3336 77.6358 81.5629 77.8266 81.7489 78.0562C81.9348 78.2859 82.0737 78.5499 82.1577 78.8332C82.2416 79.1165 82.2688 79.4136 82.2379 79.7075L82.2377 79.7072Z" fill="#2CBBF3"/>
</svg>
